<svg width="36" height="36" viewBox="0 0 36 36" fill="none" xmlns="http://www.w3.org/2000/svg">
<path d="M27.6689 29.2539C30.0309 26.8305 31.501 23.6442 31.501 19.498V8.99863C31.501 8.20311 31.1845 7.43954 30.6221 6.87695C30.0595 6.31435 29.296 5.99805 28.5004 5.99805C26.1419 5.99805 23.008 4.62765 20.599 2.68457L20.1156 2.27852L19.8871 2.09922C19.3383 1.70892 18.6792 1.49817 18.001 1.49805C17.2258 1.49805 16.4634 1.78551 15.874 2.28906C13.4283 4.42556 10.0144 5.99805 7.4998 5.99805C6.70452 5.9982 5.94232 6.31469 5.37988 6.87695C4.81727 7.43956 4.50098 8.20298 4.50098 8.99863V19.498C4.50098 23.6442 5.96995 26.8319 8.33477 29.2539C10.6502 31.6251 13.7583 33.198 16.9814 34.3147C17.6281 34.5555 18.3512 34.5607 19.0047 34.3393C22.2317 33.2144 25.3479 31.6353 27.6689 29.2539Z" fill="#CCE7FF"/>
</svg>
