<svg width="39" height="39" viewBox="0 0 39 39" fill="none" xmlns="http://www.w3.org/2000/svg">
<path d="M10 19.5C10 20.0642 10.4721 20.5248 11.0248 20.5248H18.4752V27.9752C18.4752 28.5279 18.9358 29 19.5 29C20.0642 29 20.5364 28.5279 20.5364 27.9752V20.5248H27.9752C28.5279 20.5248 29 20.0642 29 19.5C29 18.9358 28.5279 18.4636 27.9752 18.4636H20.5364V11.0248C20.5364 10.4721 20.0642 10 19.5 10C18.9358 10 18.4752 10.4721 18.4752 11.0248V18.4636H11.0248C10.4721 18.4636 10 18.9358 10 19.5Z" fill="#CCE7FF"/>
</svg>
