<svg width="36" height="36" viewBox="0 0 36 36" fill="none" xmlns="http://www.w3.org/2000/svg">
<path d="M31.761 10.2186C32.5541 9.4257 32.9997 8.35027 32.9998 7.22884C33 6.10742 32.5546 5.03187 31.7618 4.2388C30.9689 3.44573 29.8935 3.00011 28.772 2.99997C27.6506 2.99983 26.5751 3.44518 25.782 4.23805L5.76291 24.2616C5.41464 24.6089 5.15708 25.0364 5.01291 25.5066L3.0314 32.0347C2.99263 32.1644 2.98971 32.3022 3.02293 32.4334C3.05615 32.5647 3.12428 32.6845 3.2201 32.7802C3.31591 32.8758 3.43583 32.9438 3.56714 32.9768C3.69845 33.0098 3.83624 33.0066 3.96591 32.9677L10.4954 30.9876C10.9652 30.8448 11.3927 30.5888 11.7404 30.2421L31.761 10.2186Z" stroke="#CCE7FF" stroke-width="3.00001" stroke-linecap="round" stroke-linejoin="round"/>
</svg>
