<svg width="233" height="123" viewBox="0 0 233 123" fill="none" xmlns="http://www.w3.org/2000/svg">
<path d="M24.5797 80.2128C24.5629 81.0994 23.5469 81.5921 22.8403 81.0562L9.55446 70.9792C9.45984 70.9074 9.37765 70.8206 9.31119 70.7222L8.32086 69.256C8.10269 68.933 8.07466 68.5178 8.24744 68.1684L23.3184 37.6923C23.8317 36.6543 25.3964 37.0357 25.3745 38.1935L24.5797 80.2128Z" fill="#282633"/>
<path fill-rule="evenodd" clip-rule="evenodd" d="M32.878 111.311C33.0946 111.632 33.4659 111.813 33.8521 111.786L84.5313 108.246C84.9157 108.219 85.257 107.99 85.4277 107.645L107.855 62.2929C108.027 61.9435 107.999 61.5283 107.781 61.2053L79.5424 19.3984C79.3258 19.0776 78.9545 18.8967 78.5683 18.9237L27.8891 22.4638C27.5047 22.4907 27.1635 22.7195 26.9927 23.0649L4.56579 68.4169C4.39302 68.7663 4.42105 69.1815 4.63922 69.5045L32.878 111.311ZM24.774 86.8027C24.7113 86.5715 24.5737 86.3677 24.3829 86.223L20.1709 83.0284C19.1938 82.2874 17.9306 83.4831 18.617 84.4993L24.211 92.781C24.897 93.7967 26.4773 93.0726 26.156 91.8898L24.774 86.8027ZM82.4761 105.203C82.8606 105.177 83.202 104.948 83.3729 104.602L83.5253 104.294C83.5961 104.151 83.6344 103.994 83.6374 103.834L84.6495 50.2971C84.6661 49.4211 83.6908 48.8882 82.9625 49.3753L31.2512 83.9631C30.5205 84.4519 30.6446 85.5614 31.4652 85.8767L81.6626 105.158C81.8104 105.215 81.9688 105.239 82.1267 105.228L82.4761 105.203ZM104.173 62.5408C104.345 62.1914 104.317 61.7762 104.099 61.4532L103.109 59.987C103.042 59.8886 102.96 59.8018 102.866 59.73L89.5801 49.6536C88.8735 49.1177 87.8575 49.6104 87.8407 50.497L87.0459 92.5161C87.024 93.6739 88.5887 94.0553 89.102 93.0173L104.173 62.5408ZM34.499 108.012C34.7157 108.333 35.0869 108.514 35.4731 108.487L69.505 106.109C70.6625 106.029 70.9014 104.431 69.8183 104.015L30.4368 88.8879C29.608 88.5695 28.7688 89.3276 29.0016 90.1844L33.3583 106.22C33.3896 106.335 33.4395 106.444 33.5062 106.542L34.499 108.012ZM81.1686 46.7471C81.8994 46.2583 81.7753 45.1488 80.9546 44.8336L30.7582 25.5506C30.6103 25.4938 30.4518 25.4701 30.2938 25.4811L29.9439 25.5055C29.5594 25.5324 29.218 25.7613 29.0473 26.1069L28.8952 26.4147C28.8244 26.5579 28.7862 26.7149 28.7832 26.8745L27.7703 80.4132C27.7537 81.2891 28.729 81.8221 29.4573 81.335L81.1686 46.7471ZM9.31119 70.7222C9.37765 70.8206 9.45984 70.9074 9.55446 70.9792L22.8403 81.0562C23.5469 81.5921 24.5629 81.0994 24.5797 80.2128L25.3745 38.1935C25.3964 37.0357 23.8317 36.6543 23.3184 37.6923L8.24744 68.1684C8.07466 68.5178 8.10269 68.933 8.32086 69.256L9.31119 70.7222ZM79.0616 24.4894C79.0304 24.3745 78.9805 24.2655 78.9138 24.1668L77.921 22.697C77.7043 22.3762 77.3331 22.1952 76.9469 22.2222L42.9157 24.5994C41.7582 24.6803 41.5193 26.2773 42.6024 26.6933L81.9827 41.8206C82.8115 42.139 83.6507 41.3809 83.418 40.5241L79.0616 24.4894ZM87.6464 43.9072C87.7091 44.1383 87.8467 44.3421 88.0375 44.4868L92.2495 47.6814C93.2266 48.4224 94.4898 47.2267 93.8034 46.2105L88.209 37.9282C87.5229 36.9125 85.9427 37.6366 86.2641 38.8194L87.6464 43.9072Z" fill="#47445A"/>
<path d="M18.617 84.4993C17.9306 83.4831 19.1938 82.2874 20.1709 83.0284L24.3829 86.223C24.5737 86.3677 24.7113 86.5715 24.774 86.8027L26.156 91.8898C26.4773 93.0726 24.897 93.7967 24.211 92.781L18.617 84.4993Z" fill="#282633"/>
<path d="M69.8183 104.015C70.9014 104.431 70.6625 106.029 69.505 106.109L35.4731 108.487C35.0869 108.514 34.7157 108.333 34.499 108.012L33.5062 106.542C33.4395 106.444 33.3896 106.335 33.3583 106.22L29.0016 90.1844C28.7688 89.3276 29.608 88.5695 30.4368 88.8879L69.8183 104.015Z" fill="#282633"/>
<path d="M83.6374 103.834C83.6344 103.994 83.5961 104.151 83.5253 104.294L83.3729 104.602C83.202 104.948 82.8606 105.177 82.4761 105.203L82.1267 105.228C81.9688 105.239 81.8104 105.215 81.6626 105.158L31.4652 85.8767C30.6446 85.5614 30.5205 84.4519 31.2512 83.9631L82.9625 49.3753C83.6908 48.8882 84.6661 49.4211 84.6495 50.2971L83.6374 103.834Z" fill="#282633"/>
<path d="M30.2938 25.4811C30.4518 25.4701 30.6103 25.4938 30.7582 25.5506L80.9546 44.8336C81.7753 45.1488 81.8994 46.2583 81.1686 46.7471L29.4573 81.335C28.729 81.8221 27.7537 81.2891 27.7703 80.4132L28.7832 26.8745C28.7862 26.7149 28.8244 26.5579 28.8952 26.4147L29.0473 26.1069C29.218 25.7613 29.5594 25.5324 29.9439 25.5055L30.2938 25.4811Z" fill="#282633"/>
<path d="M76.9469 22.2222C77.3331 22.1952 77.7043 22.3762 77.921 22.697L78.9138 24.1668C78.9805 24.2655 79.0304 24.3745 79.0616 24.4894L83.418 40.5241C83.6507 41.3809 82.8115 42.139 81.9827 41.8206L42.6024 26.6933C41.5193 26.2773 41.7582 24.6803 42.9157 24.5994L76.9469 22.2222Z" fill="#282633"/>
<path d="M93.8034 46.2105C94.4898 47.2267 93.2266 48.4224 92.2495 47.6814L88.0375 44.4868C87.8467 44.3421 87.7091 44.1383 87.6464 43.9072L86.2641 38.8194C85.9427 37.6366 87.5229 36.9125 88.209 37.9282L93.8034 46.2105Z" fill="#282633"/>
<path d="M102.866 59.73C102.96 59.8018 103.042 59.8886 103.109 59.987L104.099 61.4532C104.317 61.7762 104.345 62.1914 104.173 62.5408L89.102 93.0173C88.5887 94.0553 87.024 93.6739 87.0459 92.5161L87.8407 50.497C87.8575 49.6104 88.8735 49.1177 89.5801 49.6536L102.866 59.73Z" fill="#282633"/>
<path d="M27.7376 20.3009L27.5237 20.3227C26.5301 20.4584 25.6538 21.0458 25.1507 21.9134L25.0488 22.1035L2.62135 67.4558L2.53161 67.654C2.14382 68.591 2.21558 69.6568 2.72561 70.5333L2.84246 70.718L31.0805 112.525C31.6899 113.427 32.7071 113.961 33.7863 113.957L34.0031 113.95L84.6825 110.409C85.7634 110.333 86.7305 109.726 87.2694 108.796L87.3714 108.606L109.799 63.254C110.317 62.2061 110.233 60.9606 109.579 59.9918L81.3396 18.1845L81.2125 18.0092C80.5503 17.1568 79.5032 16.6841 78.417 16.76L27.7376 20.3009Z" stroke="#282633" stroke-width="4.33735"/>
<path d="M211.935 35.3317C212.174 35.5201 212.366 35.7603 212.498 36.0341L228.62 69.5665C228.915 70.1798 228.878 70.9008 228.521 71.4805L210.622 100.6C210.46 100.864 210.239 101.086 209.977 101.25L192.065 112.426C191.718 112.643 191.312 112.748 190.903 112.726L155.43 110.892C155.015 110.871 154.616 110.72 154.29 110.462L137.966 97.5103C137.74 97.3314 137.556 97.1059 137.425 96.8491L121.737 65.958C121.426 65.3452 121.451 64.6156 121.804 64.0257L140.74 32.3657C140.911 32.0806 141.15 31.8425 141.435 31.6728L158.919 21.2883C159.258 21.0867 159.649 20.9901 160.043 21.0105L195.542 22.8461C195.956 22.8675 196.354 23.0171 196.679 23.2743L211.935 35.3317ZM149.025 96.8146C147.384 97.1828 146.902 99.2879 148.219 100.333L155.828 106.369C156.154 106.627 156.552 106.778 156.968 106.799L189.817 108.498C190.226 108.519 190.632 108.414 190.979 108.197L199.315 102.996C200.753 102.098 200.493 99.9312 198.883 99.3997L174.574 91.3726C174.231 91.2591 173.863 91.241 173.509 91.3202L149.025 96.8146ZM179.973 45.0412C179.098 45.2383 178.461 45.9935 178.415 46.8889L176.391 86.0347C176.345 86.9347 176.906 87.7546 177.761 88.0371L205.939 97.341C206.819 97.6317 207.784 97.2791 208.269 96.4892L223.792 71.2368C224.148 70.6571 224.186 69.936 223.891 69.3228L209.752 39.9173C209.348 39.0777 208.418 38.6281 207.51 38.8329L179.973 45.0412ZM126.55 64.1888C126.197 64.7787 126.172 65.5083 126.483 66.121L140.131 92.9969C140.545 93.8124 141.46 94.2431 142.352 94.0428L170.682 87.6855C171.558 87.489 172.196 86.7334 172.242 85.8373L174.266 46.6908C174.313 45.7915 173.752 44.9721 172.897 44.6889L145.47 35.6054C144.58 35.3108 143.606 35.6732 143.125 36.4773L126.55 64.1888ZM152.375 30.0159C150.901 30.8915 151.14 33.0949 152.767 33.6341L176.079 41.3548C176.424 41.469 176.793 41.4872 177.148 41.4073L200.885 36.0558C202.526 35.6858 203.005 33.5786 201.685 32.5356L195.145 27.3671C194.82 27.11 194.422 26.9604 194.008 26.939L161.08 25.2363C160.686 25.2159 160.294 25.3126 159.955 25.514L152.375 30.0159Z" fill="#47445A"/>
<path d="M149.025 96.8146C147.384 97.1828 146.902 99.2879 148.219 100.333L155.828 106.369C156.154 106.627 156.552 106.778 156.968 106.799L189.817 108.498C190.226 108.519 190.632 108.414 190.979 108.197L199.315 102.996C200.753 102.098 200.493 99.9312 198.883 99.3997L174.574 91.3726C174.231 91.2591 173.863 91.241 173.509 91.3202L149.025 96.8146Z" fill="#282633"/>
<path d="M126.55 64.1888C126.197 64.7787 126.172 65.5083 126.483 66.121L140.131 92.9969C140.545 93.8124 141.46 94.2431 142.352 94.0428L170.682 87.6855C171.558 87.489 172.196 86.7334 172.242 85.8373L174.266 46.6908C174.313 45.7915 173.752 44.9721 172.897 44.6889L145.47 35.6054C144.58 35.3108 143.606 35.6732 143.125 36.4773L126.55 64.1888Z" fill="#282633"/>
<path d="M179.973 45.0412C179.098 45.2383 178.461 45.9935 178.415 46.8889L176.391 86.0347C176.345 86.9347 176.906 87.7546 177.761 88.0371L205.939 97.341C206.819 97.6317 207.784 97.2791 208.269 96.4892L223.792 71.2368C224.148 70.6571 224.186 69.936 223.891 69.3228L209.752 39.9173C209.348 39.0777 208.418 38.6281 207.51 38.8329L179.973 45.0412Z" fill="#282633"/>
<path d="M152.375 30.0159C150.901 30.8915 151.14 33.0949 152.767 33.6341L176.079 41.3548C176.424 41.469 176.793 41.4872 177.148 41.4073L200.885 36.0558C202.526 35.6858 203.005 33.5786 201.685 32.5356L195.145 27.3671C194.82 27.11 194.422 26.9604 194.008 26.939L161.08 25.2363C160.686 25.2159 160.294 25.3126 159.955 25.514L152.375 30.0159Z" fill="#282633"/>
<path d="M195.645 20.8487C196.474 20.8915 197.269 21.1913 197.92 21.7056L213.176 33.7624L213.35 33.9083C213.747 34.2601 214.07 34.688 214.3 35.1671L230.423 68.6997L230.525 68.9318C230.969 70.0269 230.905 71.2635 230.352 72.3072L230.225 72.5275L212.326 101.647C212.043 102.108 211.669 102.507 211.228 102.818L211.036 102.946L193.124 114.122C192.429 114.556 191.618 114.766 190.8 114.724L155.327 112.89C154.6 112.852 153.899 112.617 153.299 112.213L153.047 112.028L136.722 99.0773C136.328 98.7642 135.997 98.3794 135.745 97.9443L135.642 97.7551L119.954 66.8638C119.332 65.6383 119.382 64.1789 120.088 62.9993L139.024 31.3392L139.158 31.1301C139.486 30.6522 139.914 30.25 140.414 29.9531L157.897 19.5686L158.156 19.4275C158.771 19.121 159.457 18.9775 160.147 19.0132L195.645 20.8487Z" stroke="#282633" stroke-width="4"/>
<path d="M151.108 78.4689C151.173 79.2856 152.138 79.6823 152.759 79.1471L169.179 64.9761C169.262 64.9046 169.333 64.82 169.388 64.7257L170.654 62.5716C170.835 62.2631 170.838 61.8812 170.661 61.5702L148.616 22.8451C148.087 21.9161 146.665 22.3531 146.75 23.4187L151.108 78.4689Z" fill="#282633"/>
<path fill-rule="evenodd" clip-rule="evenodd" d="M142.929 117.646C142.748 117.955 142.416 118.143 142.058 118.14L78.0338 117.546C77.6777 117.542 77.3502 117.35 77.1741 117.04L45.4986 61.3977C45.3215 61.0868 45.3242 60.7049 45.5055 60.3964L77.8508 5.35342C78.0321 5.04491 78.3645 4.85678 78.7223 4.8601L142.746 5.4543C143.103 5.4576 143.43 5.65004 143.606 5.95953L175.282 61.6022C175.459 61.9132 175.456 62.295 175.275 62.6035L142.929 117.646ZM151.334 85.9332C151.378 85.7174 151.493 85.5224 151.66 85.3784L158.424 79.5412C159.28 78.8023 160.512 79.8298 159.939 80.805L151.368 95.3914C150.795 96.3666 149.298 95.7902 149.526 94.6825L151.334 85.9332ZM80.3723 113.566C80.0161 113.563 79.6884 113.371 79.5122 113.061L79.1553 112.434C79.0827 112.307 79.039 112.165 79.0274 112.018L73.6469 44.0525C73.583 43.2463 74.4531 42.7017 75.1504 43.1115L143.604 83.3375C144.301 83.7473 144.249 84.7724 143.514 85.109L81.5182 113.482C81.3849 113.543 81.2398 113.574 81.0931 113.573L80.3723 113.566ZM50.1198 61.4288C49.9428 61.1179 49.9454 60.736 50.1267 60.4275L51.3925 58.2734C51.448 58.179 51.5185 58.0944 51.6014 58.0229L68.0217 43.8528C68.6419 43.3176 69.6072 43.7143 69.6719 44.5309L74.0306 99.581C74.1149 100.647 72.6934 101.084 72.1646 100.155L50.1198 61.4288ZM140.653 113.625C140.472 113.933 140.14 114.121 139.782 114.118L95.2234 113.704C94.1545 113.694 93.8445 112.24 94.8165 111.795L145.03 88.813C145.775 88.4721 146.591 89.1224 146.425 89.9247L142.036 111.166C142.014 111.273 141.975 111.376 141.919 111.47L140.653 113.625ZM77.1769 39.6628C76.4796 39.253 76.5319 38.228 77.2674 37.8914L139.261 9.51652C139.395 9.45544 139.54 9.42448 139.687 9.42584L140.408 9.43253C140.765 9.43583 141.092 9.6284 141.268 9.93806L141.625 10.5646C141.697 10.6921 141.741 10.8339 141.752 10.9801L147.134 78.9478C147.198 79.7541 146.328 80.2987 145.631 79.8889L77.1769 39.6628ZM169.388 64.7257C169.333 64.82 169.262 64.9046 169.179 64.9761L152.759 79.1471C152.138 79.6823 151.173 79.2856 151.108 78.4689L146.75 23.4187C146.665 22.3531 148.087 21.9161 148.616 22.8451L170.661 61.5702C170.838 61.8812 170.835 62.2631 170.654 62.5716L169.388 64.7257ZM78.7444 11.833C78.7665 11.7258 78.8061 11.623 78.8615 11.5287L80.1274 9.37456C80.3087 9.06605 80.641 8.87792 80.9988 8.88124L125.556 9.29471C126.625 9.30463 126.935 10.7591 125.963 11.204L75.7515 34.1852C75.0066 34.5261 74.1902 33.8758 74.356 33.0736L78.7444 11.833ZM69.4465 37.0668C69.402 37.2825 69.2874 37.4775 69.1206 37.6215L62.3563 43.4587C61.5 44.1976 60.2678 43.1701 60.8408 42.1949L69.413 27.6075C69.9861 26.6323 71.4834 27.2087 71.2545 28.3164L69.4465 37.0668Z" fill="#47445A"/>
<path d="M159.939 80.805C160.512 79.8298 159.28 78.8023 158.424 79.5412L151.66 85.3784C151.493 85.5224 151.378 85.7174 151.334 85.9332L149.526 94.6825C149.298 95.7902 150.795 96.3666 151.368 95.3914L159.939 80.805Z" fill="#282633"/>
<path d="M94.8165 111.795C93.8445 112.24 94.1545 113.694 95.2234 113.704L139.782 114.118C140.14 114.121 140.472 113.933 140.653 113.625L141.919 111.47C141.975 111.376 142.014 111.273 142.036 111.166L146.425 89.9247C146.591 89.1224 145.775 88.4721 145.03 88.813L94.8165 111.795Z" fill="#282633"/>
<path d="M79.0274 112.018C79.039 112.165 79.0827 112.307 79.1553 112.434L79.5122 113.061C79.6884 113.371 80.0161 113.563 80.3723 113.566L81.0931 113.573C81.2398 113.574 81.3849 113.543 81.5182 113.482L143.514 85.109C144.249 84.7724 144.301 83.7473 143.604 83.3375L75.1504 43.1115C74.4531 42.7017 73.583 43.2463 73.6469 44.0525L79.0274 112.018Z" fill="#282633"/>
<path d="M139.687 9.42584C139.54 9.42448 139.395 9.45544 139.261 9.51652L77.2674 37.8914C76.5319 38.228 76.4796 39.253 77.1769 39.6628L145.631 79.8889C146.328 80.2987 147.198 79.7541 147.134 78.9478L141.752 10.9801C141.741 10.8339 141.697 10.6921 141.625 10.5646L141.268 9.93806C141.092 9.6284 140.765 9.43583 140.408 9.43253L139.687 9.42584Z" fill="#282633"/>
<path d="M80.9988 8.88124C80.641 8.87792 80.3087 9.06605 80.1274 9.37456L78.8615 11.5287C78.8061 11.623 78.7665 11.7258 78.7444 11.833L74.356 33.0736C74.1902 33.8758 75.0066 34.5261 75.7515 34.1852L125.963 11.204C126.935 10.7591 126.625 9.30463 125.556 9.29471L80.9988 8.88124Z" fill="#282633"/>
<path d="M60.8408 42.1949C60.2678 43.1701 61.5 44.1976 62.3563 43.4587L69.1206 37.6215C69.2874 37.4775 69.402 37.2825 69.4465 37.0668L71.2545 28.3164C71.4834 27.2087 69.9861 26.6323 69.413 27.6075L60.8408 42.1949Z" fill="#282633"/>
<path d="M51.6014 58.0229C51.5185 58.0944 51.448 58.179 51.3925 58.2734L50.1267 60.4275C49.9454 60.736 49.9428 61.1179 50.1198 61.4288L72.1646 100.155C72.6934 101.084 74.1149 100.647 74.0306 99.581L69.6719 44.5309C69.6072 43.7143 68.6419 43.3176 68.0217 43.8528L51.6014 58.0229Z" fill="#282633"/>
<path d="M142.765 3.45435L142.964 3.46313C143.888 3.53318 144.729 4.02695 145.24 4.80005L145.344 4.96997L177.02 60.6125L177.113 60.7903C177.518 61.6283 177.512 62.6083 177.095 63.4407L177 63.6165L144.654 118.659C144.144 119.527 143.236 120.078 142.24 120.135L142.04 120.14L78.0151 119.545C77.0136 119.536 76.0878 119.028 75.5405 118.199L75.436 118.03L43.7603 62.387C43.2293 61.4541 43.237 60.3085 43.7808 59.3831L76.1265 4.34009L76.2339 4.17114C76.7955 3.34653 77.7344 2.85129 78.7407 2.8606L142.765 3.45435Z" stroke="#282633" stroke-width="4"/>
</svg>
