<svg width="44" height="44" viewBox="0 0 44 44" fill="none" xmlns="http://www.w3.org/2000/svg">
<path d="M21.502 13.4982H14.502C13.9715 13.4982 13.4628 13.7089 13.0877 14.0839C12.7127 14.459 12.502 14.9677 12.502 15.4982V29.4982C12.502 30.0286 12.7127 30.5373 13.0877 30.9124C13.4628 31.2874 13.9715 31.4982 14.502 31.4982H28.502C29.0324 31.4982 29.5411 31.2874 29.9162 30.9124C30.2912 30.5373 30.502 30.0286 30.502 29.4982V22.4982M27.877 13.1232C28.2748 12.7253 28.8143 12.5018 29.377 12.5018C29.9396 12.5018 30.4791 12.7253 30.877 13.1232C31.2748 13.521 31.4983 14.0605 31.4983 14.6232C31.4983 15.1858 31.2748 15.7253 30.877 16.1232L21.864 25.1372C21.6265 25.3744 21.3332 25.5481 21.011 25.6422L18.138 26.4822C18.0519 26.5072 17.9607 26.5088 17.8739 26.4865C17.787 26.4643 17.7078 26.4191 17.6444 26.3557C17.581 26.2923 17.5358 26.2131 17.5136 26.1262C17.4914 26.0394 17.4929 25.9482 17.518 25.8622L18.358 22.9892C18.4525 22.6672 18.6265 22.3742 18.864 22.1372L27.877 13.1232Z" stroke="#CCE7FF" stroke-width="2" stroke-linecap="round" stroke-linejoin="round"/>
</svg>
