<svg width="36" height="36" viewBox="0 0 36 36" fill="none" xmlns="http://www.w3.org/2000/svg">
<path d="M24.8935 12.2567H11.1079V27.1919C11.108 27.3926 11.2192 27.6897 11.4887 27.9591C11.7582 28.2286 12.0552 28.3399 12.256 28.34H23.7454C23.9462 28.3398 24.2434 28.2285 24.5127 27.9591C24.7821 27.6897 24.8934 27.3926 24.8935 27.1919V12.2567ZM21.4478 8.80955C21.4478 8.60877 21.3351 8.3118 21.0656 8.04227C20.796 7.77273 20.4991 7.66145 20.2983 7.66145H15.7031C15.5024 7.66145 15.2053 7.77282 14.9358 8.04227C14.6663 8.3118 14.5536 8.60877 14.5536 8.80955V9.95906H21.4478V8.80955ZM23.7454 9.95906H28.3407L28.4577 9.9647C29.037 10.0235 29.4886 10.5124 29.4888 11.1072C29.4888 11.7021 29.0372 12.1923 28.4577 12.251L28.3407 12.2567H27.1912V27.1919C27.1911 28.1398 26.7295 28.992 26.1376 29.584C25.5456 30.1759 24.6933 30.6374 23.7454 30.6376H12.256C11.308 30.6375 10.4559 30.176 9.86386 29.584C9.27184 28.992 8.81034 28.1398 8.81025 27.1919V12.2567H7.66074C7.02624 12.2567 6.51123 11.7417 6.51123 11.1072C6.51137 10.4728 7.02632 9.95906 7.66074 9.95906H12.256V8.80955C12.256 7.86152 12.7189 7.00948 13.311 6.41744C13.903 5.82546 14.7551 5.36243 15.7031 5.36243H20.2983C21.2464 5.36243 22.0984 5.8254 22.6904 6.41744C23.2825 7.00948 23.7454 7.86152 23.7454 8.80955V9.95906Z" fill="#CCE7FF"/>
</svg>
