<svg width="36" height="36" viewBox="0 0 36 36" fill="none" xmlns="http://www.w3.org/2000/svg">
<path fill-rule="evenodd" clip-rule="evenodd" d="M12.375 9.5625C12.375 6.4559 14.8934 3.9375 18 3.9375C21.1066 3.9375 23.625 6.4559 23.625 9.5625C23.625 12.6691 21.1066 15.1875 18 15.1875C14.8934 15.1875 12.375 12.6691 12.375 9.5625Z" fill="#CCE7FF"/>
<path fill-rule="evenodd" clip-rule="evenodd" d="M23.625 14.0625C23.625 11.5772 25.6397 9.5625 28.125 9.5625C30.6103 9.5625 32.625 11.5772 32.625 14.0625C32.625 16.5478 30.6103 18.5625 28.125 18.5625C25.6397 18.5625 23.625 16.5478 23.625 14.0625Z" fill="#CCE7FF"/>
<path fill-rule="evenodd" clip-rule="evenodd" d="M3.375 14.0625C3.375 11.5772 5.38972 9.5625 7.875 9.5625C10.3603 9.5625 12.375 11.5772 12.375 14.0625C12.375 16.5478 10.3603 18.5625 7.875 18.5625C5.38972 18.5625 3.375 16.5478 3.375 14.0625Z" fill="#CCE7FF"/>
<path fill-rule="evenodd" clip-rule="evenodd" d="M9.46479 22.1138C11.2617 19.3041 14.4125 17.4375 18 17.4375C21.5879 17.4375 24.739 19.3046 26.5359 22.1148C27.7781 24.0576 28.3155 26.4003 28.0634 28.6844C28.0241 29.0413 27.8166 29.358 27.5051 29.5368C24.7041 31.1439 21.4576 32.0625 18 32.0625C14.5424 32.0625 11.2959 31.1439 8.49487 29.5367C8.18339 29.358 7.97595 29.0413 7.93655 28.6844C7.6844 26.3999 8.22212 24.0568 9.46479 22.1138Z" fill="#CCE7FF"/>
<path d="M7.62343 20.818C7.60536 20.8458 7.58741 20.8736 7.56956 20.9015C6.12137 23.1659 5.45862 25.8625 5.66207 28.521C4.75 28.3825 3.86505 28.1596 3.01564 27.8605L2.8432 27.7998C2.52864 27.689 2.30884 27.4033 2.28239 27.0709L2.26788 26.8886C2.25603 26.7396 2.25 26.5891 2.25 26.4375C2.25 23.4152 4.63357 20.9496 7.62343 20.818Z" fill="#CCE7FF"/>
<path d="M30.3385 28.5209C30.5418 25.863 29.8794 23.1669 28.4318 20.9028C28.4137 20.8744 28.3955 20.8462 28.3771 20.8181C31.3667 20.9499 33.75 23.4154 33.75 26.4375C33.75 26.5891 33.744 26.7396 33.7321 26.8886L33.7176 27.0709C33.6912 27.4033 33.4714 27.689 33.1568 27.7998L32.9844 27.8605C32.1351 28.1596 31.2503 28.3824 30.3385 28.5209Z" fill="#CCE7FF"/>
</svg>
