<svg width="36" height="36" viewBox="0 0 36 36" fill="none" xmlns="http://www.w3.org/2000/svg">
<path d="M4.25977 13.6229C4.25977 13.7042 4.26127 13.785 4.26422 13.8653L4.25977 13.6229ZM4.26476 13.8944L4.26563 13.9415C4.26496 13.9279 4.26484 13.9081 4.26476 13.8944C4.26477 13.8964 4.26475 13.8923 4.26476 13.8944Z" fill="#CCE7FF"/>
<path d="M6.63542 7.88591C5.11412 9.4072 4.2599 11.4714 4.25977 13.6229L4.26422 13.8653L4.26563 13.9415C4.39855 17.2045 6.55137 19.6114 8.37209 21.3733L17.1273 30.1285C17.6093 30.61 18.3908 30.6101 18.8727 30.1285L27.625 21.3719C29.484 19.5494 31.7402 17.0409 31.7402 13.6221C31.7401 11.6052 30.9889 9.6656 29.6416 8.17755L29.3646 7.88591C27.8432 6.36449 25.7786 5.51025 23.627 5.51025C22.4031 5.5103 21.2888 5.68491 20.1991 6.15949C19.4299 6.49447 18.7125 6.96346 17.9993 7.56788C17.2862 6.96372 16.5698 6.49438 15.8009 6.15949C14.8471 5.74406 13.8743 5.55903 12.8259 5.51905L12.3716 5.51025C10.3546 5.51038 8.41514 6.26144 6.92706 7.60892L6.63542 7.88591Z" fill="#CCE7FF"/>
</svg>
