<svg width="36" height="36" viewBox="0 0 36 36" fill="none" xmlns="http://www.w3.org/2000/svg">
<path d="M17.999 17.4375C21.2091 17.4375 24.0682 18.9333 25.9219 21.2607C26.599 20.9723 27.3442 20.8125 28.125 20.8125C31.2315 20.8126 33.75 23.331 33.75 26.4375C33.75 26.5891 33.7433 26.7397 33.7314 26.8887C33.6961 27.3318 33.4036 27.7126 32.9844 27.8604C31.4626 28.3963 29.8264 28.6875 28.125 28.6875C28.1039 28.6875 28.0826 28.6856 28.0615 28.6855C28.0218 29.042 27.815 29.3586 27.5039 29.5371C24.703 31.1442 21.4565 32.0625 17.999 32.0625C14.5416 32.0625 11.2951 31.1441 8.49414 29.5371C8.18299 29.3586 7.97526 29.042 7.93555 28.6855C7.91537 28.6856 7.89519 28.6875 7.875 28.6875C6.17347 28.6875 4.53747 28.3963 3.01562 27.8604C2.59624 27.7126 2.30286 27.3319 2.26758 26.8887C2.25572 26.7396 2.25 26.5891 2.25 26.4375C2.25 23.3309 4.7684 20.8125 7.875 20.8125C8.6548 20.8125 9.39877 20.972 10.0752 21.2598C11.9289 18.9324 14.789 17.4375 17.999 17.4375ZM17.999 19.6875C15.2109 19.6875 12.7603 21.1357 11.3594 23.3262C10.5842 24.5382 10.1318 25.9763 10.124 27.5225C10.124 27.5358 10.124 27.5492 10.124 27.5625C10.124 27.6653 10.128 27.7674 10.1318 27.8691C12.48 29.1091 15.1558 29.8125 17.999 29.8125C20.8415 29.8125 23.5165 29.1095 25.8643 27.8701C25.8682 27.7681 25.874 27.6656 25.874 27.5625C25.874 27.5477 25.8741 27.5341 25.874 27.5215C25.8662 25.9759 25.4134 24.5389 24.6387 23.3271C23.2378 21.1363 20.7874 19.6875 17.999 19.6875ZM7.875 23.0625C6.16707 23.0625 4.75561 24.3312 4.53125 25.9775C5.59405 26.2751 6.71471 26.4375 7.875 26.4375C7.8952 26.4375 7.91537 26.4356 7.93555 26.4355C8.06234 25.2919 8.38077 24.2051 8.85645 23.208C8.54622 23.1139 8.21704 23.0625 7.875 23.0625ZM28.125 23.0625C27.7817 23.0625 27.4509 23.1133 27.1396 23.208C27.6155 24.2053 27.9337 25.2917 28.0605 26.4355C28.0819 26.4357 28.1036 26.4375 28.125 26.4375C29.285 26.4375 30.4053 26.275 31.4678 25.9775C31.2434 24.3313 29.8328 23.0626 28.125 23.0625ZM10.124 14.0625C10.124 12.8199 9.11661 11.8126 7.87402 11.8125C6.63138 11.8125 5.62402 12.8199 5.62402 14.0625C5.62402 15.3051 6.63138 16.3125 7.87402 16.3125C9.11661 16.3124 10.124 15.3051 10.124 14.0625ZM30.374 14.0625C30.374 12.8199 29.3666 11.8126 28.124 11.8125C26.8814 11.8125 25.874 12.8199 25.874 14.0625C25.874 15.3051 26.8814 16.3125 28.124 16.3125C29.3666 16.3124 30.374 15.3051 30.374 14.0625ZM21.374 9.5625C21.374 7.69858 19.8629 6.18757 17.999 6.1875C16.1351 6.1875 14.624 7.69854 14.624 9.5625C14.624 11.4265 16.1351 12.9375 17.999 12.9375C19.8629 12.9374 21.374 11.4264 21.374 9.5625ZM12.374 14.0625C12.374 16.5477 10.3592 18.5624 7.87402 18.5625C5.38874 18.5625 3.37402 16.5478 3.37402 14.0625C3.37402 11.5772 5.38874 9.5625 7.87402 9.5625C10.3592 9.56257 12.374 11.5773 12.374 14.0625ZM32.624 14.0625C32.624 16.5477 30.6092 18.5624 28.124 18.5625C25.6387 18.5625 23.624 16.5478 23.624 14.0625C23.624 11.5772 25.6387 9.5625 28.124 9.5625C30.6092 9.56257 32.624 11.5773 32.624 14.0625ZM23.624 9.5625C23.624 12.6691 21.1056 15.1874 17.999 15.1875C14.8924 15.1875 12.374 12.6691 12.374 9.5625C12.374 6.4559 14.8924 3.9375 17.999 3.9375C21.1056 3.93757 23.624 6.45594 23.624 9.5625Z" fill="#CCE7FF"/>
</svg>
