<svg width="36" height="36" viewBox="0 0 36 36" fill="none" xmlns="http://www.w3.org/2000/svg">
<path d="M30.375 12.9375C30.375 12.6268 30.1232 12.375 29.8125 12.375H25.875V27C25.875 28.2426 26.8824 29.25 28.125 29.25C29.3676 29.25 30.375 28.2426 30.375 27V12.9375ZM20.25 23.625C20.8713 23.625 21.375 24.1287 21.375 24.75C21.375 25.3713 20.8713 25.875 20.25 25.875H9C8.37868 25.875 7.875 25.3713 7.875 24.75C7.875 24.1287 8.37868 23.625 9 23.625H20.25ZM20.25 19.125C20.8713 19.125 21.375 19.6287 21.375 20.25C21.375 20.8713 20.8713 21.375 20.25 21.375H9C8.37868 21.375 7.875 20.8713 7.875 20.25C7.875 19.6287 8.37868 19.125 9 19.125H20.25ZM13.5 10.125C14.1213 10.125 14.625 10.6287 14.625 11.25V15.75C14.625 16.3713 14.1213 16.875 13.5 16.875H9C8.37868 16.875 7.875 16.3713 7.875 15.75V11.25C7.875 10.6287 8.37868 10.125 9 10.125H13.5ZM20.25 14.625C20.8713 14.625 21.375 15.1287 21.375 15.75C21.375 16.3713 20.8713 16.875 20.25 16.875H18C17.3787 16.875 16.875 16.3713 16.875 15.75C16.875 15.1287 17.3787 14.625 18 14.625H20.25ZM10.125 14.625H12.375V12.375H10.125V14.625ZM20.25 10.125C20.8713 10.125 21.375 10.6287 21.375 11.25C21.375 11.8713 20.8713 12.375 20.25 12.375H18C17.3787 12.375 16.875 11.8713 16.875 11.25C16.875 10.6287 17.3787 10.125 18 10.125H20.25ZM23.625 7.3125C23.625 7.00184 23.3732 6.75 23.0625 6.75H6.1875C5.87684 6.75 5.625 7.00184 5.625 7.3125V27C5.625 28.2426 6.63236 29.25 7.875 29.25H24.2285C23.8454 28.588 23.625 27.8199 23.625 27V7.3125ZM25.875 10.125H29.8125C31.3658 10.125 32.625 11.3842 32.625 12.9375V27C32.625 29.4853 30.6103 31.5 28.125 31.5H7.875C5.38972 31.5 3.375 29.4853 3.375 27V7.3125C3.375 5.7592 4.6342 4.5 6.1875 4.5H23.0625C24.6158 4.5 25.875 5.7592 25.875 7.3125V10.125Z" fill="#CCE7FF"/>
</svg>
