<svg width="36" height="36" viewBox="0 0 36 36" fill="none" xmlns="http://www.w3.org/2000/svg">
<path fill-rule="evenodd" clip-rule="evenodd" d="M6.1875 4.5C4.6342 4.5 3.375 5.7592 3.375 7.3125V27C3.375 29.4853 5.38972 31.5 7.875 31.5H30.375C27.8897 31.5 25.875 29.4853 25.875 27V7.3125C25.875 5.7592 24.6158 4.5 23.0625 4.5H6.1875ZM18 14.625C17.3787 14.625 16.875 15.1287 16.875 15.75C16.875 16.3713 17.3787 16.875 18 16.875H20.25C20.8713 16.875 21.375 16.3713 21.375 15.75C21.375 15.1287 20.8713 14.625 20.25 14.625H18ZM16.875 11.25C16.875 10.6287 17.3787 10.125 18 10.125H20.25C20.8713 10.125 21.375 10.6287 21.375 11.25C21.375 11.8713 20.8713 12.375 20.25 12.375H18C17.3787 12.375 16.875 11.8713 16.875 11.25ZM9 19.125C8.37868 19.125 7.875 19.6287 7.875 20.25C7.875 20.8713 8.37868 21.375 9 21.375H20.25C20.8713 21.375 21.375 20.8713 21.375 20.25C21.375 19.6287 20.8713 19.125 20.25 19.125H9ZM7.875 24.75C7.875 24.1287 8.37868 23.625 9 23.625H20.25C20.8713 23.625 21.375 24.1287 21.375 24.75C21.375 25.3713 20.8713 25.875 20.25 25.875H9C8.37868 25.875 7.875 25.3713 7.875 24.75ZM9 10.125C8.37868 10.125 7.875 10.6287 7.875 11.25V15.75C7.875 16.3713 8.37868 16.875 9 16.875H13.5C14.1213 16.875 14.625 16.3713 14.625 15.75V11.25C14.625 10.6287 14.1213 10.125 13.5 10.125H9Z" fill="#CCE7FF"/>
<path d="M28.125 10.125H30.9375C31.8695 10.125 32.625 10.8805 32.625 11.8125V27C32.625 28.2426 31.6176 29.25 30.375 29.25C29.1324 29.25 28.125 28.2426 28.125 27V10.125Z" fill="#CCE7FF"/>
</svg>
