<svg width="436" height="436" viewBox="0 0 436 436" fill="none" xmlns="http://www.w3.org/2000/svg">
<path d="M73.839 312.526L63.2807 376.117L78.0423 387.113L105.454 356.73L73.839 312.526Z" fill="#CCE7FF"/>
<path d="M137.43 323.084L73.839 312.526L105.454 356.73L144.206 339.791L137.43 323.084Z" fill="#CCE7FF"/>
<path d="M78.0423 387.113L126.871 386.675L144.206 339.791L105.454 356.73L78.0423 387.113Z" fill="#A3B9CC"/>
<path d="M205.342 48L251.461 93.0369L246.059 110.633L205.987 102.343L205.342 48Z" fill="#CCE7FF"/>
<path d="M160.305 94.1187L205.342 48L205.987 102.343L164.721 111.599L160.305 94.1187Z" fill="#CCE7FF"/>
<path d="M246.059 110.633L206.424 139.156L164.721 111.599L205.987 102.343L246.059 110.633Z" fill="#A3B9CC"/>
<path d="M178.009 305.158L161.368 311.7L143.787 338.5L143.893 357.166L168.321 335.617L178.009 305.158Z" fill="#B8D0E5"/>
<path d="M159.983 386.507L191.386 388.32L201.302 357.251L168.321 335.617L143.893 357.166L159.983 386.507Z" fill="#CCE7FF"/>
<path d="M226.198 335.25L211.592 307.831L178.009 305.158L168.321 335.617L201.302 357.251L226.198 335.25Z" fill="#A6BDD2"/>
<path d="M191.386 388.32L209.149 381.375L226.729 354.575L226.198 335.25L201.302 357.251L191.386 388.32Z" fill="#8A9AA9"/>
<path d="M94.3955 249.983L112.276 249.764L138.213 230.933L144.73 213.441L114.25 224.934L94.3955 249.983Z" fill="#B8D0E5"/>
<path d="M140.083 180.302L111.361 167.478L91.0775 193.015L114.25 224.934L144.73 213.441L140.083 180.302Z" fill="#CCE7FF"/>
<path d="M60 204.765L63.9401 235.581L94.3955 249.983L114.25 224.934L91.0775 193.015L60 204.765Z" fill="#A6BDD2"/>
<path d="M111.361 167.478L92.2895 167.676L66.3521 186.506L60 204.765L91.0775 193.015L111.361 167.478Z" fill="#8A9AA9"/>
<path d="M301.542 364.458L295.792 309.134L245.8 333.516L301.542 364.458Z" fill="#CCE7FF"/>
<path d="M295.792 309.134L250.09 309.831L245.8 333.516L295.792 309.134Z" fill="#A6BDD2"/>
<path d="M227.968 349.684L251.548 388.84L245.8 333.516L227.968 349.684Z" fill="#A6BDD2"/>
<path d="M251.548 388.84L297.251 388.142L301.542 364.458L251.548 388.84Z" fill="#A6BDD2"/>
<path d="M319.373 348.29L295.792 309.134L301.542 364.458L319.373 348.29Z" fill="#A6BDD2"/>
<path d="M319.373 348.29L301.542 364.458L297.251 388.142L319.373 348.29Z" fill="#8A9AA9"/>
<path d="M227.968 349.684L245.8 333.516L250.09 309.831L227.968 349.684Z" fill="#8A9AA9"/>
<path d="M251.548 388.84L301.542 364.458L245.8 333.516L251.548 388.84Z" fill="#B8D0E5"/>
<path d="M125.389 309.476L179.98 298.819L151.239 251.198L125.389 309.476Z" fill="#CCE7FF"/>
<path d="M179.98 298.819L175.212 253.36L151.239 251.198L179.98 298.819Z" fill="#A6BDD2"/>
<path d="M133.546 234.879L96.648 261.855L151.239 251.198L133.546 234.879Z" fill="#A6BDD2"/>
<path d="M96.648 261.855L101.416 307.313L125.389 309.476L96.648 261.855Z" fill="#A6BDD2"/>
<path d="M143.082 325.795L179.98 298.819L125.389 309.476L143.082 325.795Z" fill="#A6BDD2"/>
<path d="M143.082 325.795L125.389 309.476L101.416 307.313L143.082 325.795Z" fill="#8A9AA9"/>
<path d="M133.546 234.879L151.239 251.198L175.212 253.36L133.546 234.879Z" fill="#8A9AA9"/>
<path d="M96.648 261.855L125.389 309.476L151.239 251.198L96.648 261.855Z" fill="#B8D0E5"/>
<path d="M307.74 256.239L331.061 295.4L376.637 294.783L353.316 255.622L307.74 256.239Z" fill="#525C66"/>
<path d="M307.74 256.239L331.061 295.4L308.807 335.18L285.486 296.018L307.74 256.239Z" fill="#8FA2B3"/>
<path d="M331.061 295.4L376.637 294.783L354.383 334.563L308.807 335.18L331.061 295.4Z" fill="#7A8B99"/>
<path d="M353.316 255.622L376.637 294.783L354.383 334.563L331.061 295.4L353.316 255.622Z" fill="#CCE7FF"/>
<path d="M353.316 255.622L307.74 256.239L285.486 296.018L331.061 295.4L353.316 255.622Z" fill="#A3B9CC"/>
<path d="M285.486 296.018L308.807 335.18L354.383 334.563L331.061 295.4L285.486 296.018Z" fill="#B8D0E6"/>
<path d="M164.086 248.328L195.487 215.29L182.575 171.577L151.174 204.615L164.086 248.328Z" fill="#525C66"/>
<path d="M164.086 248.328L195.487 215.29L239.8 225.964L208.399 259.002L164.086 248.328Z" fill="#8FA2B3"/>
<path d="M195.487 215.29L182.575 171.577L226.888 182.252L239.8 225.964L195.487 215.29Z" fill="#7A8B99"/>
<path d="M151.174 204.615L182.575 171.577L226.888 182.252L195.487 215.29L151.174 204.615Z" fill="#CCE7FF"/>
<path d="M151.174 204.615L164.086 248.328L208.399 259.002L195.487 215.29L151.174 204.615Z" fill="#A3B9CC"/>
<path d="M208.399 259.002L239.8 225.964L226.888 182.252L195.487 215.29L208.399 259.002Z" fill="#B8D0E6"/>
<path d="M230.355 236.349L184.774 281.93L230.355 300.846V236.349Z" fill="#CCE7FF"/>
<path d="M275.936 281.93L230.355 236.349V300.846L275.936 281.93Z" fill="#B8D0E5"/>
<path d="M230.355 327.511L275.936 281.93L230.355 300.846V327.511Z" fill="#8A9AA9"/>
<path d="M184.774 281.93L230.355 327.511V300.846L184.774 281.93Z" fill="#B8D0E5"/>
<path d="M235.857 111.865L290.99 145.265L251.233 174.503L235.857 111.865Z" fill="#CCE7FF"/>
<path d="M202.457 166.999L235.857 111.865L251.233 174.503L202.457 166.999Z" fill="#B8D0E5"/>
<path d="M257.59 200.399L202.457 166.999L251.233 174.503L257.59 200.399Z" fill="#8A9AA9"/>
<path d="M290.99 145.265L257.59 200.399L251.233 174.503L290.99 145.265Z" fill="#B8D0E5"/>
<path d="M232.95 238.84L273.47 206.351L288.506 290.928L232.95 238.84Z" fill="#A3B9CC"/>
<path d="M322.704 222.883L273.47 206.351L288.506 290.928L322.704 222.883Z" fill="#CCE7FF"/>
<path d="M125.594 119.919L177.328 115.338L142.963 194.067L125.594 119.919Z" fill="#A3B9CC"/>
<path d="M209.144 156.388L177.328 115.338L142.963 194.067L209.144 156.388Z" fill="#CCE7FF"/>
<path d="M283.559 157.58L344.472 136.49L357.791 149.195L332.445 181.321L283.559 157.58Z" fill="#CCE7FF"/>
<path d="M304.649 218.494L283.559 157.58L332.445 181.321L322.257 222.367L304.649 218.494Z" fill="#CCE7FF"/>
<path d="M357.791 149.195L365.562 197.403L322.257 222.367L332.445 181.321L357.791 149.195Z" fill="#A3B9CC"/>
</svg>
