<svg width="221" height="219" viewBox="0 0 221 219" fill="none" xmlns="http://www.w3.org/2000/svg">
<path d="M90.1644 20.0085L90.9813 19.8177L90.988 19.8161L91.8067 19.6329C109.006 15.8636 126.94 17.1074 143.473 23.2348L144.271 23.5343C160.996 29.91 175.505 41.0293 186.011 55.5358L186.508 56.2286C196.708 70.5903 202.57 87.579 203.398 105.175L203.434 106.027C204.121 124.209 199.401 142.188 189.871 157.688C180.489 172.946 166.86 185.128 150.664 192.748L149.891 193.107C133.613 200.581 115.514 203.139 97.8138 200.476L96.9715 200.346C79.2848 197.517 62.8144 189.589 49.5767 177.541L48.9491 176.964C45.7248 173.974 43.6747 172.599 42.3755 171.918C41.7346 171.581 41.263 171.407 40.9019 171.291C40.6973 171.225 40.5634 171.188 40.3639 171.127C40.1954 171.076 39.9712 171.005 39.7486 170.901C39.1887 170.638 38.7802 170.232 38.4879 169.643C38.2518 169.167 38.0867 168.557 37.9218 167.859C37.7502 167.132 37.5418 166.135 37.2555 164.821C36.9663 163.493 36.5898 161.802 36.0737 159.638L36.0206 159.386C35.5382 156.785 37.1754 154.235 39.7774 153.615C42.4635 152.974 45.1603 154.632 45.8009 157.318L46.1366 158.751C46.8058 161.662 47.1219 163.394 47.3093 164.401C47.8249 164.422 48.4095 164.546 49.0915 164.818C50.5883 165.416 52.6724 166.779 55.7479 169.631L56.8712 170.653C68.5723 181.106 83.0368 187.99 98.5509 190.471L100.054 190.697C115.59 192.887 131.44 190.576 145.718 184.02L147.093 183.373C161.228 176.563 173.122 165.834 181.352 152.45C189.847 138.635 194.054 122.61 193.442 106.404L193.37 104.887C192.516 89.727 187.469 75.1011 178.792 62.6408L177.912 61.4019C168.696 48.6773 156.025 38.8765 141.416 33.1523L139.997 32.6112C124.793 26.9761 108.259 25.9753 92.4862 29.7352C70.1168 35.1617 50.7086 49.0209 38.316 68.4176L28.4856 84.4067L63.7581 75.9946L63.7972 75.9863L64.0095 75.9417C66.6115 75.4591 69.1608 77.0963 69.7816 79.6983C70.3827 82.2189 68.9604 84.7495 66.5614 85.5814L66.3264 85.6565C66.3124 85.6606 66.2981 85.665 66.2841 85.6686L66.1093 85.7144L19.0634 96.9343C16.3773 97.5749 13.6805 95.9167 13.0399 93.2306L1.82747 46.2161C1.18687 43.53 2.84506 40.8332 5.53115 40.1926C8.21725 39.552 10.9141 41.2102 11.5547 43.8963L19.967 79.1697L29.8367 63.118L29.8681 63.0684L29.8717 63.0625L30.5238 62.0546C44.33 40.9945 65.6377 25.9554 90.1397 20.0144L90.1644 20.0085ZM46.0976 164.548C46.0616 164.555 46.0525 164.56 46.0788 164.554C46.0828 164.553 46.0892 164.551 46.0976 164.548Z" fill="#47445A" stroke="#282633" stroke-width="3" stroke-linecap="round" stroke-linejoin="round"/>
<path d="M64.9546 112.545L105.935 136.093L106.192 136.251C107.441 137.084 108.2 138.487 108.2 139.996V187.092L107.445 188.393L66.4642 211.941C65.1504 212.696 63.5508 212.743 62.2013 212.082L61.9352 211.941L20.9546 188.393L20.1997 187.092V139.996L20.21 139.696C20.3101 138.202 21.1506 136.848 22.4642 136.093L63.4449 112.545H64.9546ZM62.69 164.412C62.69 163.908 62.4372 163.441 62.0207 163.163L61.9352 163.11L25.4836 142.165L25.3885 142.114C24.3997 141.632 23.2191 142.346 23.2191 143.466V185.357L23.2228 185.457C23.2559 185.951 23.5321 186.4 23.9644 186.652L60.4255 207.603L60.5206 207.654C61.5094 208.136 62.69 207.422 62.69 206.302V164.412ZM64.9472 116.01C64.4837 115.748 63.9149 115.747 63.4515 116.01L26.9933 136.96L26.9019 137.017C25.988 137.628 26.0182 139.003 26.9933 139.563L63.4449 160.508L63.5333 160.555C63.9532 160.761 64.4455 160.76 64.8654 160.555L64.9546 160.508L101.406 139.563C102.381 139.003 102.411 137.628 101.498 137.017L101.406 136.96L64.9472 116.01ZM65.7094 206.302C65.7094 207.459 66.9675 208.182 67.9739 207.603L104.434 186.652C104.867 186.4 105.143 185.952 105.177 185.457L105.18 185.357V143.466L105.177 143.359C105.105 142.301 103.968 141.648 103.011 142.114L102.916 142.165L66.4642 163.11C65.9971 163.379 65.7094 163.875 65.7094 164.412V206.302Z" fill="#47445A"/>
<path d="M64.9472 116.01C64.4837 115.748 63.9149 115.747 63.4515 116.01L26.9933 136.96L26.9019 137.017C25.988 137.628 26.0182 139.003 26.9933 139.563L63.4449 160.508L63.5333 160.555C63.9532 160.761 64.4455 160.76 64.8654 160.555L64.9546 160.508L101.406 139.563C102.381 139.003 102.411 137.628 101.498 137.017L101.406 136.96L64.9472 116.01Z" fill="#282633"/>
<path d="M62.69 164.412C62.69 163.908 62.4372 163.441 62.0207 163.163L61.9352 163.11L25.4836 142.165L25.3885 142.114C24.3997 141.632 23.2191 142.346 23.2191 143.466V185.357L23.2228 185.457C23.2559 185.951 23.5321 186.4 23.9644 186.652L60.4255 207.603L60.5206 207.654C61.5094 208.136 62.69 207.422 62.69 206.302V164.412Z" fill="#282633"/>
<path d="M65.7094 206.302C65.7094 207.459 66.9675 208.182 67.9739 207.603L104.434 186.652C104.867 186.4 105.143 185.952 105.177 185.457L105.18 185.357V143.466L105.177 143.359C105.105 142.301 103.968 141.648 103.011 142.114L102.916 142.165L66.4642 163.11C65.9971 163.379 65.7094 163.875 65.7094 164.412V206.302Z" fill="#282633"/>
<path d="M152.696 112.5L193.676 136.048L193.933 136.207C195.182 137.04 195.941 138.442 195.941 139.952V187.047L195.186 188.349L154.205 211.896C152.892 212.651 151.292 212.698 149.942 212.038L149.676 211.896L108.696 188.349L107.941 187.047V139.952L107.951 139.651C108.051 138.158 108.892 136.803 110.205 136.048L151.186 112.5H152.696ZM150.431 164.367C150.431 163.864 150.178 163.396 149.762 163.119L149.676 163.066L113.225 142.121L113.13 142.07C112.141 141.588 110.96 142.302 110.96 143.422V185.312L110.964 185.413C110.997 185.907 111.273 186.355 111.706 186.608L148.167 207.559L148.262 207.61C149.251 208.092 150.431 207.378 150.431 206.258V164.367ZM152.688 115.966C152.225 115.703 151.656 115.703 151.193 115.966L114.735 136.915L114.643 136.973C113.729 137.584 113.759 138.958 114.735 139.518L151.186 160.464L151.275 160.511C151.694 160.716 152.187 160.716 152.607 160.511L152.696 160.464L189.147 139.518C190.122 138.958 190.153 137.584 189.239 136.973L189.147 136.915L152.688 115.966ZM153.451 206.258C153.451 207.414 154.709 208.137 155.715 207.559L192.176 186.608C192.608 186.355 192.885 185.907 192.918 185.413L192.922 185.312V143.422L192.918 143.315C192.846 142.257 191.709 141.603 190.752 142.07L190.657 142.121L154.205 163.066C153.738 163.334 153.451 163.83 153.451 164.367V206.258Z" fill="#47445A"/>
<path d="M152.688 115.966C152.225 115.703 151.656 115.703 151.193 115.966L114.735 136.915L114.643 136.973C113.729 137.584 113.759 138.958 114.735 139.518L151.186 160.464L151.275 160.511C151.694 160.716 152.187 160.716 152.607 160.511L152.696 160.464L189.147 139.518C190.122 138.958 190.153 137.584 189.239 136.973L189.147 136.915L152.688 115.966Z" fill="#282633"/>
<path d="M150.431 164.367C150.431 163.864 150.178 163.396 149.762 163.119L149.676 163.066L113.225 142.121L113.13 142.07C112.141 141.588 110.96 142.302 110.96 143.422V185.312L110.964 185.413C110.997 185.907 111.273 186.355 111.706 186.608L148.167 207.559L148.262 207.61C149.251 208.092 150.431 207.378 150.431 206.258V164.367Z" fill="#282633"/>
<path d="M153.451 206.258C153.451 207.414 154.709 208.137 155.715 207.559L192.176 186.608C192.608 186.355 192.885 185.907 192.918 185.413L192.922 185.312V143.422L192.918 143.315C192.846 142.257 191.709 141.603 190.752 142.07L190.657 142.121L154.205 163.066C153.738 163.334 153.451 163.83 153.451 164.367V206.258Z" fill="#282633"/>
<path d="M109.115 69.4556L163.405 100.801L163.745 101.012C165.4 102.121 166.405 103.988 166.405 105.998V168.688L165.405 170.42L111.115 201.765C109.375 202.77 107.256 202.833 105.468 201.954L105.115 201.765L50.8252 170.42L49.8252 168.688V105.998L49.8389 105.597C49.9714 103.61 51.085 101.806 52.8252 100.801L107.115 69.4556H109.115ZM106.115 138.498C106.115 137.828 105.78 137.205 105.229 136.835L105.115 136.765L56.8252 108.884L56.6992 108.817C55.3893 108.175 53.8252 109.125 53.8252 110.617V166.378L53.8301 166.512C53.874 167.17 54.2398 167.767 54.8125 168.103L103.115 195.992L103.241 196.059C104.551 196.701 106.115 195.751 106.115 194.259V138.498ZM109.105 74.0688C108.492 73.719 107.738 73.7187 107.124 74.0688L58.8252 101.956L58.7041 102.032C57.4934 102.845 57.5333 104.675 58.8252 105.42L107.115 133.301L107.232 133.364C107.789 133.638 108.441 133.637 108.997 133.364L109.115 133.301L157.405 105.42C158.697 104.675 158.737 102.845 157.526 102.032L157.405 101.956L109.105 74.0688ZM110.115 194.259C110.115 195.799 111.782 196.762 113.115 195.992L161.417 168.103C161.99 167.767 162.356 167.17 162.4 166.512L162.405 166.378V110.617L162.4 110.474C162.305 109.065 160.799 108.196 159.531 108.817L159.405 108.884L111.115 136.765C110.496 137.122 110.115 137.783 110.115 138.498V194.259Z" fill="#47445A"/>
<path d="M109.105 74.0688C108.492 73.719 107.738 73.7187 107.124 74.0688L58.8252 101.956L58.7041 102.032C57.4934 102.845 57.5333 104.675 58.8252 105.42L107.115 133.301L107.232 133.364C107.789 133.638 108.441 133.637 108.997 133.364L109.115 133.301L157.405 105.42C158.697 104.675 158.737 102.845 157.526 102.032L157.405 101.956L109.105 74.0688Z" fill="#282633"/>
<path d="M106.115 138.498C106.115 137.828 105.78 137.205 105.229 136.835L105.115 136.765L56.8252 108.884L56.6992 108.817C55.3893 108.175 53.8252 109.125 53.8252 110.617V166.378L53.8301 166.512C53.874 167.17 54.2398 167.767 54.8125 168.103L103.115 195.992L103.241 196.059C104.551 196.701 106.115 195.751 106.115 194.259V138.498Z" fill="#282633"/>
<path d="M110.115 194.259C110.115 195.799 111.782 196.762 113.115 195.992L161.417 168.103C161.99 167.767 162.356 167.17 162.4 166.512L162.405 166.378V110.617L162.4 110.474C162.305 109.065 160.799 108.196 159.531 108.817L159.405 108.884L111.115 136.765C110.496 137.122 110.115 137.783 110.115 138.498V194.259Z" fill="#282633"/>
<path d="M109.115 66.9556L110.365 67.2905L164.655 98.6362L164.724 98.6772L165.063 98.8882L165.137 98.9351C167.482 100.506 168.905 103.151 168.905 105.998V168.688L168.57 169.938L167.57 171.67L166.655 172.585L112.365 203.93C109.9 205.354 106.897 205.443 104.364 204.197L104.289 204.159L103.937 203.97L103.865 203.93L49.5752 172.585L48.6602 171.67L47.6602 169.938L47.3252 168.688V105.998L47.3262 105.913L47.3398 105.512L47.3447 105.431C47.5325 102.615 49.1095 100.06 51.5752 98.6362L105.865 67.2905L107.115 66.9556H109.115Z" stroke="#282633" stroke-width="5" stroke-miterlimit="1"/>
</svg>
