<svg width="127" height="144" viewBox="0 0 127 144" fill="none" xmlns="http://www.w3.org/2000/svg">
<path d="M64.29 5L118.58 36.3457L118.92 36.5566C120.575 37.6652 121.58 39.5324 121.58 41.542V104.232L120.58 105.965L66.29 137.31C64.5496 138.314 62.4304 138.377 60.6426 137.498L60.29 137.31L6 105.965L5 104.232V41.542L5.01367 41.1416C5.14623 39.154 6.25977 37.3505 8 36.3457L62.29 5H64.29ZM61.29 74.042C61.29 73.3721 60.9551 72.7494 60.4033 72.3799L60.29 72.3096L12 44.4287L11.874 44.3613C10.5641 43.7195 9 44.6697 9 46.1611V101.923L9.00488 102.057C9.04881 102.714 9.41462 103.311 9.9873 103.647L58.29 131.536L58.416 131.604C59.7259 132.245 61.29 131.295 61.29 129.804V74.042ZM64.2803 9.61328C63.6663 9.26344 62.9127 9.26318 62.2988 9.61328L14 37.5L13.8789 37.5762C12.6682 38.3895 12.7081 40.219 14 40.9648L62.29 68.8457L62.4072 68.9082C62.9634 69.1819 63.6156 69.1817 64.1719 68.9082L64.29 68.8457L112.58 40.9648C113.872 40.219 113.912 38.3896 112.701 37.5762L112.58 37.5L64.2803 9.61328ZM65.29 129.804C65.29 131.343 66.9567 132.306 68.29 131.536L116.592 103.647C117.165 103.311 117.531 102.714 117.575 102.057L117.58 101.923V46.1611L117.575 46.0186C117.48 44.6098 115.974 43.7402 114.706 44.3613L114.58 44.4287L66.29 72.3096C65.6712 72.6669 65.29 73.3275 65.29 74.042V129.804Z" fill="#47445A"/>
<path d="M64.2803 9.61328C63.6663 9.26344 62.9127 9.26318 62.2988 9.61328L14 37.5L13.8789 37.5762C12.6682 38.3895 12.7081 40.219 14 40.9648L62.29 68.8457L62.4072 68.9082C62.9634 69.1819 63.6156 69.1817 64.1719 68.9082L64.29 68.8457L112.58 40.9648C113.872 40.219 113.912 38.3896 112.701 37.5762L112.58 37.5L64.2803 9.61328Z" fill="#282633"/>
<path d="M61.29 74.042C61.29 73.3721 60.9551 72.7494 60.4033 72.3799L60.29 72.3096L12 44.4287L11.874 44.3613C10.5641 43.7195 9 44.6697 9 46.1611V101.923L9.00488 102.057C9.04881 102.714 9.41462 103.311 9.9873 103.647L58.29 131.536L58.416 131.604C59.7259 132.245 61.29 131.295 61.29 129.804V74.042Z" fill="#282633"/>
<path d="M65.29 129.804C65.29 131.343 66.9567 132.306 68.29 131.536L116.592 103.647C117.165 103.311 117.531 102.714 117.575 102.057L117.58 101.923V46.1611L117.575 46.0186C117.48 44.6098 115.974 43.7402 114.706 44.3613L114.58 44.4287L66.29 72.3096C65.6712 72.6669 65.29 73.3275 65.29 74.042V129.804Z" fill="#282633"/>
<path d="M64.29 2.5L65.54 2.83496L119.83 34.1807L119.898 34.2217L120.238 34.4326L120.312 34.4795C122.657 36.0505 124.08 38.6955 124.08 41.542V104.232L123.745 105.482L122.745 107.215L121.83 108.13L67.54 139.475C65.0744 140.898 62.0723 140.987 59.5391 139.741L59.4639 139.703L59.1113 139.515L59.04 139.475L4.75 108.13L3.83496 107.215L2.83496 105.482L2.5 104.232V41.542L2.50098 41.457L2.51465 41.0566L2.51953 40.9756C2.70733 38.1596 4.28432 35.6043 6.75 34.1807L61.04 2.83496L62.29 2.5H64.29Z" stroke="#282633" stroke-width="5" stroke-miterlimit="1"/>
</svg>
