<svg width="130" height="130" viewBox="0 0 130 130" fill="none" xmlns="http://www.w3.org/2000/svg">
<path d="M110.458 65L65 0L19.5427 65H65.0003H110.458Z" fill="#CCE7FF"/>
<path d="M65 0L8.5 32.5L19.5427 65L65 0Z" fill="#A6BDD2"/>
<path d="M8.5 97.5L65 130L42.2714 97.5L19.5427 65L8.5 97.5Z" fill="#A6BDD2"/>
<path d="M65 130L121.5 97.5L110.458 65L65 130Z" fill="#A6BDD2"/>
<path d="M121.5 32.5L65 0L110.458 65L121.5 32.5Z" fill="#A6BDD2"/>
<path d="M121.5 65V32.5L110.458 65L121.5 97.5V65Z" fill="#8A9AA9"/>
<path d="M8.5 65V97.5L19.5427 65L8.5 32.5V65Z" fill="#8A9AA9"/>
<path d="M65 130L110.458 65H65.0003H19.5427L42.2714 97.5L65 130Z" fill="#B8D0E5"/>
</svg>
