<svg width="36" height="36" viewBox="0 0 36 36" fill="none" xmlns="http://www.w3.org/2000/svg">
<path d="M29.9878 15.9877C30.0989 16.1496 30.3468 16.1173 30.4126 15.9323L32.4006 10.3493C32.4098 10.3234 32.4146 10.2961 32.4146 10.2686V9.821C32.4146 9.73757 32.3713 9.66011 32.3003 9.61632L21.6849 3.0707C21.4637 2.9343 21.2134 3.1971 21.3604 3.4114L29.9878 15.9877Z" fill="#CCE7FF"/>
<path d="M17.7867 2.27307C17.7559 2.29043 17.7293 2.31435 17.7088 2.34314L7.50141 16.6971C7.3882 16.8563 7.50202 17.077 7.69737 17.077H28.5976C28.7945 17.077 28.9079 16.8534 28.7917 16.6945L18.29 2.34082C18.2696 2.31305 18.2436 2.28996 18.2136 2.27312L18.1175 2.2192C18.0443 2.17808 17.9549 2.17818 17.8817 2.21946L17.7867 2.27307Z" fill="#CCE7FF"/>
<path d="M31.766 17.3623C31.6514 17.7793 31.6514 18.2196 31.766 18.6366L32.871 22.6574C32.8858 22.7115 32.9655 22.7007 32.9655 22.6447V13.3542C32.9655 13.2982 32.8858 13.2874 32.871 13.3415L31.766 17.3623Z" fill="#CCE7FF"/>
<path d="M17.71 33.1744C17.7303 33.2019 17.7561 33.2248 17.7858 33.2415L17.8816 33.2954C17.9548 33.3367 18.0443 33.3367 18.1175 33.2954L18.2132 33.2415C18.243 33.2248 18.2688 33.2019 18.289 33.1744L28.4862 19.3064C28.6029 19.1476 28.4896 18.9235 28.2925 18.9235H7.70734C7.51025 18.9235 7.39686 19.1476 7.51361 19.3064L17.71 33.1744Z" fill="#CCE7FF"/>
<path d="M21.9675 31.3419C21.8069 31.5511 22.0517 31.8289 22.2795 31.6959L31.7995 26.1393C31.8733 26.0962 31.9187 26.0172 31.9187 25.9317V25.4868C31.9187 25.4605 31.9144 25.4344 31.906 25.4096L30.399 20.9647C30.3373 20.7826 30.0975 20.743 29.9805 20.8955L21.9675 31.3419Z" fill="#CCE7FF"/>
<path d="M4.03156 25.4217C4.02786 25.4386 4.02599 25.4558 4.02599 25.4731V25.9325C4.02599 26.0175 4.07092 26.0963 4.14414 26.1395L13.5537 31.6986C13.7801 31.8324 14.0262 31.5576 13.8683 31.3472L5.56369 20.2845C5.44019 20.12 5.18052 20.1764 5.1365 20.3774L4.03156 25.4217Z" fill="#CCE7FF"/>
<path d="M3.03437 22.5695C3.03437 22.6269 3.11677 22.6361 3.12937 22.5801L4.04201 18.5278C4.12035 18.1799 4.12036 17.819 4.04201 17.4711L3.12937 13.4189C3.11677 13.3629 3.03437 13.372 3.03437 13.4294V22.5695Z" fill="#CCE7FF"/>
<path d="M3.4558 9.61702C3.38241 9.66024 3.33736 9.73905 3.33736 9.82422V10.2717C3.33736 10.2972 3.34141 10.3225 3.34935 10.3467L5.10558 15.6977C5.16607 15.8821 5.40873 15.9225 5.5258 15.7678L14.8516 3.44293C15.0105 3.2329 14.7648 2.95699 14.5378 3.09064L3.4558 9.61702Z" fill="#CCE7FF"/>
</svg>
