<svg width="436" height="436" viewBox="0 0 436 436" fill="none" xmlns="http://www.w3.org/2000/svg">
<g filter="url(#filter0_n_386_11992)">
<g filter="url(#filter1_d_386_11992)">
<path d="M84.4766 286.091L91.9091 276.608L121.894 268.764L131.121 262.383L157.518 269.496L175.971 283.127L174.689 290.536H86.0144L84.4766 286.091Z" fill="#929292"/>
</g>
<path d="M109.977 283.128L157.518 269.496L159.94 278.254L166.488 290.536H113.629L109.977 283.128Z" fill="#868686"/>
<path d="M121.894 268.764L132.941 276.543L109.977 283.128L100.914 284.181L84.4766 286.091L96.4134 278.254L116.884 272.475L121.894 268.764Z" fill="#868686"/>
<path d="M84.4766 286.091L99.2008 283.255L109.977 283.128L121.702 289.399L86.0144 290.537L84.4766 286.091Z" fill="#767676"/>
<path d="M131.121 262.383L132.941 276.543L138.989 274.809L150.714 273.587L157.518 269.496L131.121 262.383Z" fill="#BFBEBD"/>
<path d="M166.488 290.537L175.063 288.378L174.689 290.537H166.488Z" fill="#838180"/>
<path d="M86.0142 290.537L146.882 288.06L166.488 290.537H86.0142Z" fill="#636363"/>
</g>
<g filter="url(#filter2_f_386_11992)">
<ellipse cx="56.8015" cy="67.9586" rx="56.8015" ry="67.9586" transform="matrix(0.965926 -0.258819 0.965926 0.258819 136.018 306.858)" fill="black" fill-opacity="0.3"/>
</g>
<path d="M236.363 287.752L241.407 259.324L227.196 214.413L219.521 211.279L208.924 214.912L202.438 204.934L192.46 206.929L184.977 212.417L185.475 217.406L175.497 225.389V252.828L167.016 259.813L166.018 272.785L183.48 287.752H236.363Z" fill="#9F9F9F"/>
<path d="M214.294 213.071L222.394 252.33L208.924 214.912L214.294 213.071Z" fill="#636363"/>
<path d="M192.46 206.93V214.413L185.475 217.407L184.977 212.418L192.46 206.93Z" fill="#868686"/>
<path d="M185.476 217.406L193.957 219.402L202.937 246.343L196.039 230.93L190.126 222.966L185.476 217.406Z" fill="#636363"/>
<path d="M175.497 225.389L184.751 223.301L200.941 262.807L199.445 287.752H183.48L166.018 272.785L167.016 259.813L175.497 252.829V225.389Z" fill="#868686"/>
<path d="M183.48 287.752L193.458 269.292L175.497 252.828L167.016 259.813L166.018 272.785L183.48 287.752Z" fill="#868686"/>
<path d="M240.433 264.815L243.275 269.156L249.834 271.787L257.816 287.752H236.363L240.433 264.815Z" fill="#A6A6A6"/>
<path d="M219.655 211.233L220.414 222.458L230.792 234.671L241.407 259.324L227.196 214.413L219.655 211.233Z" fill="#B3B3B3"/>
<path d="M222.394 252.33L219.655 260.312L202.937 246.343L193.957 219.402L192.46 214.413V206.929L202.438 204.934L208.924 214.912L222.394 252.33Z" fill="#B3B3B3"/>
<path d="M237.696 280.239L213.839 273.811L207.427 266.407L200.942 262.807L199.445 287.752H236.363L237.696 280.239Z" fill="#636363"/>
<path d="M191.016 273.811L205.931 275.778L212.416 287.752H183.48L176.864 282.081L187.808 281.866L191.016 273.811Z" fill="#767676"/>
<path d="M237.696 280.239L222.394 252.33L241.407 259.324L237.696 280.239Z" fill="#868686"/>
<path d="M185.475 217.406L184.751 223.301L175.498 225.389L185.475 217.406Z" fill="#B3B3B3"/>
<path d="M193.458 269.292L205.93 275.778L191.016 273.811L193.458 269.292Z" fill="#A9A9A9"/>
<path d="M191.016 273.811L170.698 264.815L167.016 259.813L175.498 252.828L193.458 269.292L191.016 273.811Z" fill="#B3B3B3"/>
<path d="M166.018 272.785L184.166 286.816L193.707 287.752H183.48L166.018 272.785Z" fill="#636363"/>
<path d="M219.655 260.312L213.657 238.171L212.049 223.593L222.394 252.33L219.655 260.312Z" fill="#9F9F9F"/>
<path d="M195.602 206.301L198.473 215.723L202.313 222.458L197.449 215.91L194.451 206.531L195.602 206.301Z" fill="#636363"/>
<path d="M196.503 251.978L199.445 254.45L201.752 255.572L199.227 254.918L197.09 253.408L196.503 251.978Z" fill="#636363"/>
<path d="M219.655 260.312L223.018 270.415L211.169 256.445L208.924 251.345L219.655 260.312Z" fill="#868686"/>
<path d="M253.276 278.672L253.478 284.693L256.07 287.752H257.816L253.276 278.672Z" fill="#767676"/>
<path d="M256.07 287.752L253.478 284.693L236.363 287.752H256.07Z" fill="#636363"/>
<path d="M248.372 271.201L246.7 271.054L246.217 273.107L245.791 270.166L248.372 271.201Z" fill="#636363"/>
<g filter="url(#filter3_f_386_11992)">
<ellipse cx="25.2017" cy="20.7017" rx="25.2017" ry="20.7017" transform="matrix(0.965926 -0.258819 0.965926 0.258819 82 282.703)" fill="black" fill-opacity="0.3"/>
</g>
<path d="M174.301 200.324C172.403 201.532 170.632 203.094 168.568 203.841C166.746 204.501 164.275 204.991 162.645 204.281C154.669 200.806 151.436 190.028 156.142 182.983C156.978 181.731 157.971 178.578 160.761 181.802C162.075 184.633 163.827 183.529 165.618 183.162C168.37 182.598 171.374 181.537 173.935 182.132C179.034 183.318 179.772 183.441 182.406 179.188C181.622 178.037 180.653 177.029 180.168 175.825C178.52 171.738 179.778 169.373 184.499 165.388C189.31 161.326 193.757 156.836 198.49 152.677C200.489 150.92 202.81 149.53 205.219 148.014C208.315 150.282 211.176 152.509 214.036 155.006C213.987 157.553 214.897 158.355 217.249 157.775C220.114 157.069 223.059 156.684 225.97 156.16C226.188 156.548 226.406 156.936 226.623 157.325C224.887 159.655 223.228 162.049 221.39 164.295C219.783 166.258 219.924 167.509 222.449 168.322C224.74 169.06 227.012 169.865 229.267 170.708C231.503 171.544 231.738 173.007 229.77 174.376C228.757 175.079 227.501 175.45 226.327 175.899C224.374 176.647 222.399 177.338 220.42 178.058C221.644 180.231 222.622 181.909 223.544 183.618C224.56 185.503 223.852 186.489 221.822 186.519C220.572 186.537 219.292 186.122 218.073 186.275C216.805 186.435 215.133 186.674 214.445 187.529C212.459 189.994 210.88 192.787 209.141 195.451C203.093 199.208 197.151 202.916 195.059 210.541C193.135 217.557 181.931 219.875 176.754 212.277C179.299 211.7 181.373 211.26 183.71 210.799C185.305 209.798 186.639 208.818 188.193 207.834C189.302 206.349 190.191 204.869 191.319 203.315C195.469 197.859 199.379 192.476 203.283 187.103C199.076 184.35 191.966 185.857 187.496 190.726C185.793 191.821 184.33 192.931 182.867 194.041C181.552 194.636 180.236 195.23 178.584 196.148C176.932 197.756 175.617 199.04 174.301 200.324ZM191.65 180.179C192.289 179.928 192.958 179.735 193.56 179.415C197.966 177.074 199.45 174.009 197.973 169.951C197.672 169.123 196.79 168.141 196.01 167.964C195.323 167.808 194.206 168.499 193.628 169.134C192.247 170.652 191.071 172.358 189.428 174.261C187.798 175.703 186.168 177.146 183.693 179.336C186.864 179.761 189.028 180.051 191.65 180.179ZM164.961 191.633C165.401 192.078 165.842 192.524 166.282 192.969C167.62 191.442 168.988 189.94 170.261 188.36C170.436 188.143 170.252 187.262 170.038 187.176C169.465 186.946 168.46 186.682 168.205 186.961C167.026 188.251 166.043 189.721 164.961 191.633Z" fill="#BF382F"/>
<path d="M245.081 179.319C235.529 185.226 225.961 190.839 216.392 196.72C215.338 197.367 213.993 198.139 212.609 198.681C211.359 197.796 210.343 196.226 209.154 195.224C210.694 192.451 212.459 189.994 214.445 187.529C215.133 186.674 216.805 186.435 218.072 186.275C219.292 186.122 220.571 186.537 221.822 186.519C223.852 186.489 224.56 185.503 223.543 183.618C222.622 181.909 221.644 180.231 220.419 178.058C222.398 177.338 224.374 176.647 226.327 175.899C227.501 175.45 228.757 175.079 229.77 174.376C231.738 173.007 231.503 171.544 229.267 170.708C227.011 169.865 224.74 169.06 222.448 168.322C219.923 167.509 219.783 166.258 221.389 164.295C223.228 162.049 224.886 159.655 226.623 157.325C226.405 156.936 226.187 156.548 225.969 156.16C223.059 156.684 220.114 157.069 217.249 157.775C214.896 158.355 213.987 157.553 214.247 154.92C216.052 152.329 217.269 149.738 219.172 147.508C224.954 148.961 230.801 150.772 236.275 152.209C238.006 152.663 239.75 153.069 241.487 153.497C243.046 154.853 244.596 156.218 246.164 157.563C249.329 160.276 252.503 162.979 255.775 166.028C253.803 171 255.269 173.498 261.055 175.08C262.625 176.172 264.038 177.088 265.433 178.031C267.615 179.506 269.784 181 271.958 182.486C272.85 184.142 297.107 195.98 297.936 197.99C297.345 198.245 273.419 188.049 272.932 187.853C265.621 184.914 258.369 181.82 250.982 179.091C249.236 178.446 247.067 179.312 245.081 179.319Z" fill="url(#paint0_linear_386_11992)"/>
<path fill-rule="evenodd" clip-rule="evenodd" d="M236.276 152.209C230.801 150.772 225.331 149.317 219.635 147.619C220.833 143.971 222.145 140.427 223.449 136.905C224.26 134.715 225.068 132.534 225.843 130.341C226.079 129.675 225.873 128.852 225.667 128.03C225.572 127.65 225.476 127.27 225.425 126.905C225.112 127.047 224.778 127.167 224.444 127.286C223.722 127.545 222.999 127.803 222.492 128.287C219.624 131.019 216.793 133.789 213.962 136.559C211.7 138.772 209.438 140.985 207.158 143.178C206.446 143.862 205.622 144.429 204.798 144.996C204.418 145.257 204.038 145.518 203.669 145.791C205.36 126.161 220.847 111.787 228.379 107.054C219.835 125.328 231.267 133.123 239.026 134.786C235.387 137.933 235.676 147.713 236.276 152.209Z" fill="#771F1C"/>
<path d="M236.276 152.209C238.007 152.664 239.75 153.07 241.471 153.203C240.17 146.344 240.323 140.116 245.204 134.786C247.022 132.801 246.334 131.435 243.576 130.852C243.299 130.793 243.018 130.739 242.735 130.683C241.438 130.43 240.108 130.171 239.026 129.529C229.67 123.974 229.434 114.961 234.716 106.348C235.902 104.413 237.332 102.627 238.761 100.841C239.415 100.025 240.068 99.208 240.699 98.3772L239.959 97.1987C239.22 97.3888 238.458 97.5357 237.696 97.6825C236.05 97.9999 234.403 98.3172 232.989 99.0711C218.915 106.573 209.189 118.084 203.433 132.827C201.842 136.903 201.072 141.522 203.669 145.791C205.36 126.161 220.847 111.787 228.379 107.054C219.835 125.328 231.267 133.123 239.026 134.786C235.387 137.933 235.676 147.713 236.276 152.209Z" fill="#771F1C"/>
<path d="M342.431 98.0312C327.126 105.744 323.138 122.75 332.106 137.911C332.126 138.186 332.048 138.26 331.789 138.232C330.647 137.986 329.678 137.933 328.896 137.522C319.915 132.81 310.49 129.535 300.057 128.497C291.47 127.173 283.164 126.389 274.805 127.536C276.304 125.557 277.718 123.755 279.307 122.123C280.697 120.695 282.284 119.459 284.027 118.092C285.6 117.38 286.983 116.8 288.253 116.034C302.438 107.477 317.744 101.903 333.987 98.8742C336.758 98.3576 339.615 98.3006 342.431 98.0312Z" fill="#771F1C"/>
<path d="M283.768 247.434C283.731 246.937 283.693 246.439 283.682 245.404C284.487 242.507 285.117 240.084 286.071 237.796C290.995 225.98 295.54 213.811 300.518 202.018C300.825 201.99 301.593 202.352 302.282 202.366C302.663 202.407 302.974 202.474 302.974 202.474C303.938 208.227 304.904 213.98 305.866 219.733C306.332 222.519 306.793 225.305 307.295 228.663C307.684 231.481 308.053 233.725 308.378 235.976C309.629 244.635 310.865 253.296 312.106 261.956C311.704 262.744 311.227 264.129 310.518 265.018C307.719 263.504 305.306 261.287 302.81 259.68C296.465 255.595 290.116 251.516 283.768 247.434Z" fill="#8B221E"/>
<path d="M332.165 138.15C333.562 138.963 334.921 139.811 336.279 140.66C336.03 141.285 335.781 141.909 335.531 142.533C327.882 142.716 320.781 143.998 315.291 149.797C309.829 155.565 308.132 162.499 307.67 170.258C306.914 170.003 306.224 169.659 305.905 169.102C303.358 164.663 300.914 160.165 298.356 155.732C297.86 154.872 297.068 154.143 296.298 153.488C294.561 152.01 292.759 150.609 290.972 149.191C287.208 146.203 283.383 143.29 279.686 140.222C277.045 138.03 274.571 135.634 272.165 133.191C272.674 132.915 273.041 132.778 273.676 132.594C274.942 132.373 275.945 132.027 276.938 132.053C282.442 132.194 287.944 132.426 293.723 132.632C294.735 132.638 295.472 132.64 296.477 132.644C297.949 132.873 299.151 133.1 300.633 133.346C307.296 134.716 313.703 135.964 320.052 137.461C323.27 138.22 326.394 139.395 329.539 140.445C331.698 141.166 332.266 140.2 332.048 138.26C332.048 138.26 332.126 138.186 332.165 138.15Z" fill="#771F1C"/>
<path d="M272.084 182.284C269.784 181 267.615 179.506 265.433 178.031C264.038 177.088 262.625 176.172 261.118 174.837C267.376 166.674 270.873 157.756 271.667 147.788C271.858 145.396 271.696 142.976 271.696 140.29C272.615 140.56 273.135 140.563 273.433 140.821C281.013 147.387 288.801 153.739 296.025 160.678C299.269 163.793 303.46 166.679 303.842 171.961C293.265 168.271 283.671 169.368 275.647 177.849C274.402 179.166 273.35 180.666 272.084 182.284Z" fill="#771F1C"/>
<path d="M198.791 209.4C208.549 206.238 217.959 202.801 227.845 200.923C228.092 201.284 228.339 201.644 228.585 202.004C226.984 204.96 225.464 207.964 223.768 210.864C215.554 224.911 207.285 238.927 199.061 252.969C198.489 253.945 198.122 255.041 197.492 256.261C197.112 253.66 196.899 250.879 196.827 247.564C197.1 242.994 197.23 238.959 197.361 234.923C197.614 227.21 197.856 219.497 198.139 211.785C198.163 211.143 198.479 210.296 198.791 209.4Z" fill="#A62C27"/>
<path d="M198.79 260.189C208.187 263.603 217.611 267.245 227.026 270.908C233.554 273.448 240.225 275.63 247.018 278.518C248.203 286.26 248.962 294.055 249.875 301.465C244.023 297.988 238.174 294.505 232.316 291.038C230.067 289.707 227.798 288.411 225.247 286.796C222.224 284.074 219.491 281.655 216.642 279.039C215.598 277.859 214.773 276.747 213.723 275.922C211.775 274.391 209.694 273.028 207.669 271.595C205.488 268.816 203.312 266.034 201.123 263.261C200.368 262.304 199.584 261.37 198.79 260.189Z" fill="#87211E"/>
<path d="M245.063 179.274C247.046 179.008 249.236 178.446 250.982 179.091C258.369 181.821 265.622 184.915 272.932 187.853C273.42 188.049 273.98 188.063 274.67 188.022C276.329 188.796 277.733 189.938 279.337 190.583C285.427 193.034 291.581 195.324 297.972 197.721C296.769 198.189 295.297 199.005 293.844 198.97C278.501 198.608 263.163 198.07 247.821 197.689C245.092 197.622 242.354 198.129 239.616 198.23C238.116 198.284 236.606 198.043 234.233 197.872C237.784 192.254 240.849 187.465 243.834 182.627C244.407 181.697 244.664 180.57 245.063 179.274Z" fill="#AB2F29"/>
<path d="M204.985 147.974C202.81 149.53 200.489 150.92 198.489 152.677C193.757 156.836 189.31 161.326 184.499 165.388C179.778 169.374 178.52 171.739 180.168 175.825C180.653 177.029 181.622 178.037 182.406 179.189C179.772 183.441 179.034 183.318 173.934 182.132C171.373 181.537 168.37 182.598 165.618 183.162C163.827 183.529 162.075 184.633 160.854 181.982C163.402 180.391 166.117 179.225 168.505 177.583C169.103 177.172 169.04 175.069 168.612 174.018C166.522 168.895 166.936 166.546 170.619 162.528C173.475 159.413 176.116 156.101 179.304 152.76C184.1 150.982 188.445 149.323 192.789 147.663C195.992 147.502 199.195 147.342 202.874 147.319C203.895 147.629 204.44 147.801 204.985 147.974Z" fill="#89221D"/>
<path d="M304.048 172.081C303.46 166.679 299.269 163.793 296.025 160.678C288.801 153.739 281.013 147.387 273.433 140.821C273.135 140.563 272.615 140.56 271.696 140.29C271.696 142.976 271.858 145.396 271.667 147.788C270.873 157.756 267.376 166.674 260.954 174.673C255.269 173.498 253.803 171 255.974 166.146C261.393 160.253 264.473 153.51 265.425 145.831C265.656 143.961 265.31 142.02 265.507 139.825C267.864 137.469 269.943 135.399 272.023 133.33C274.571 135.634 277.045 138.029 279.686 140.222C283.383 143.29 287.208 146.203 290.972 149.19C292.759 150.608 294.561 152.01 296.298 153.488C297.068 154.143 297.86 154.872 298.356 155.732C300.914 160.164 303.358 164.662 305.905 169.101C306.224 169.658 306.914 170.003 307.63 170.562C307.935 174.241 306.139 173.325 304.048 172.081Z" fill="#AB2F29"/>
<path d="M336.529 205.874C334.751 204.219 333.18 202.435 331.579 200.679C331.476 200.567 331.144 200.664 330.05 200.664C330.05 203.387 330.05 206.102 330.052 209.117C324.915 208.787 322.118 204.942 319.173 201.363C318.472 200.511 317.788 199.341 317.767 198.304C317.732 196.564 317.779 194.484 318.701 193.203C319.186 192.53 321.6 193.249 323.489 193.36C323.78 190.972 323.848 188.129 324.533 185.444C325.198 182.836 326.351 180.318 327.555 177.893C328.942 175.1 331.637 175.156 334.14 175.724C334.789 175.871 335.531 177.466 335.514 178.383C335.441 182.258 334.956 186.127 334.899 190.002C334.851 193.255 335.548 193.523 338.635 192.458C339.721 192.084 341.006 192.284 342.399 192.212C342.515 197.899 340.611 202.241 336.529 205.874Z" fill="#A32E28"/>
<path d="M342.671 97.9826C339.614 98.3007 336.758 98.3577 333.987 98.8743C317.744 101.903 302.438 107.477 288.253 116.034C286.983 116.8 285.6 117.38 284.009 117.834C283.202 116.034 282.655 114.446 282.107 112.857C283.455 112.919 284.803 112.993 286.151 113.026C286.345 113.031 286.543 112.839 287.516 112.337C286.766 110.838 285.998 109.303 285.229 107.768C291.678 104.897 297.951 101.505 304.613 99.2717C316.077 95.4284 327.974 93.5916 340.126 94.0762C341.973 94.1499 343.799 94.7398 345.635 95.0909C345.693 95.4406 345.751 95.7903 345.809 96.1399C344.843 96.7379 343.877 97.3359 342.671 97.9826Z" fill="#AB2F29"/>
<path d="M197.17 235.006C197.231 238.959 197.1 242.994 196.778 247.252C194.565 246.42 192.453 245.506 190.546 244.274C188.674 243.066 187.481 243.668 186.156 245.103C182.582 248.976 182.476 248.932 179.852 244.134C176.033 244.701 173.595 241.163 174.825 236.837C176.5 230.946 182.943 227.954 188.446 230.603C191.339 231.996 194.137 233.587 197.17 235.006ZM178.947 241.675C179.024 241.755 179.089 241.858 179.182 241.909C179.266 241.955 179.468 241.969 179.471 241.959C179.74 240.9 179.996 239.837 180.252 238.775C179.954 238.712 179.655 238.649 179.357 238.587C179.177 239.475 178.998 240.363 178.947 241.675ZM183.489 234.678C183.473 234.86 183.457 235.042 183.441 235.225C183.545 235.226 183.648 235.228 183.752 235.229C183.745 235.046 183.739 234.863 183.489 234.678Z" fill="#7A201E"/>
<path fill-rule="evenodd" clip-rule="evenodd" d="M331.578 200.679C331.518 200.613 331.376 200.62 331.043 200.637C330.814 200.648 330.495 200.664 330.05 200.664V200.7C330.05 203.411 330.05 206.117 330.06 209.396C330.2 209.817 330.339 210.234 330.476 210.648C331.946 215.068 333.286 219.1 335.002 222.964C336.217 225.7 337.543 228.388 338.869 231.076C340.652 234.693 342.435 238.309 343.946 242.037C345.94 246.953 343.759 251.107 339.929 254.499C336.729 257.332 333.459 256.523 330.107 254.951L329.997 254.747C328.833 253.488 327.667 252.274 326.515 251.074C324.629 249.111 322.78 247.187 321.042 245.167C318.906 242.686 316.809 240.172 314.725 237.674C312.254 234.712 309.803 231.774 307.33 228.941C307.534 230.404 307.743 231.769 307.945 233.094C308.095 234.069 308.241 235.021 308.378 235.976L308.6 237.51C309.776 245.658 310.625 253.801 312.018 262.018C311.377 262.734 311.302 263.532 310.805 264.526C309.941 265.401 309.009 265.805 308.018 266.518C305.373 268.768 302.346 271.15 300.018 273.518C300.48 273.746 301.721 274.006 302.178 274.167C302.849 274.404 303.485 274.629 303.997 275.016C311.243 280.501 319.794 282.463 328.439 282.475C337.628 282.487 346.211 279.534 352.332 271.867C357.42 265.494 359.606 258.06 358.856 250.105C357.716 238.017 351.959 227.867 344.495 218.494C342.374 215.83 340.587 212.9 338.8 209.97C337.987 208.637 337.174 207.304 336.329 205.996C336.046 205.677 335.763 205.358 335.48 205.039C334.186 203.58 332.892 202.12 331.578 200.679Z" fill="#771F1C"/>
<path d="M285.016 107.82C285.998 109.303 286.766 110.839 287.516 112.337C286.543 112.839 286.345 113.031 286.151 113.026C284.803 112.993 283.455 112.919 282.107 112.858C282.655 114.446 283.202 116.034 283.766 117.881C282.284 119.459 280.697 120.695 279.307 122.123C277.718 123.755 276.304 125.558 274.84 127.769C274.38 129.715 273.894 131.178 273.408 132.641C273.041 132.778 272.673 132.915 272.164 133.191C269.943 135.4 267.864 137.469 265.537 139.545C264.767 138.35 264.246 137.149 263.834 135.538C263.956 134.802 264.114 134.351 263.958 134.168C262.085 131.967 261.805 130.079 263.29 127.158C264.553 124.676 265.493 122.759 268.253 121.753C269.136 121.431 269.429 119.488 269.993 118.286C274.49 115.069 278.987 111.852 283.792 108.47C284.206 108.218 284.302 108.118 284.386 108.007C284.525 107.961 284.664 107.916 285.016 107.82Z" fill="#AB2F29"/>
<path d="M205.219 148.015C204.44 147.802 203.895 147.629 203.179 147.326C203.01 147.196 203.046 147.202 203.162 147.172C203.417 147.025 203.474 146.875 203.449 146.695C203.505 146.549 203.561 146.403 203.643 146.024C204.838 144.927 206.118 144.178 207.157 143.178C212.292 138.239 217.333 133.201 222.491 128.287C223.234 127.579 224.435 127.354 225.424 126.905C225.588 128.059 226.187 129.367 225.843 130.341C223.821 136.06 221.578 141.702 219.325 147.615C217.646 150.094 215.796 152.794 213.991 155.115C210.919 152.975 208.314 150.282 205.219 148.015Z" fill="#BF8F65"/>
<path d="M296.951 275.804C295.178 280.425 296.347 284.656 300.561 286.516C307.282 289.484 308.799 295.906 311.407 301.668C311.453 301.769 311.433 301.898 311.47 302.006C314.506 310.818 314.505 310.815 306.378 314.593C305.446 315.026 304.39 315.332 303.637 315.982C301.497 317.83 299.999 317.744 299.282 314.588C297.576 315.2 296.1 315.796 294.583 316.254C292.909 316.761 291.259 317.037 291.639 314.024C292.639 312.223 293.436 310.766 294.233 309.308C293.86 309.141 293.487 308.974 293.115 308.807C292.535 310.471 291.956 312.135 291.377 313.8C289.538 314.281 287.699 314.762 285.861 315.243C285.732 314.93 285.604 314.618 285.476 314.306C285.996 313.701 286.517 313.096 287.147 312.363C286.492 312.271 285.93 312.192 285.33 312.107C287.567 306.981 289.477 304.955 295.985 303.145C296.533 300.203 296.503 298.002 292.39 297.693C285.772 297.196 280.375 293.96 275.694 288.758C275.326 287.865 274.81 287.406 274.606 286.878C274.49 286.579 274.381 286.285 274.279 285.994C271.776 278.848 273.603 274.154 281.536 268.923C289.075 267.114 292.221 268.539 295.514 275.026C295.703 275.398 296.613 275.508 296.951 275.804ZM295.333 306.972C295.494 307.279 295.654 307.586 295.815 307.893C296.048 307.662 296.282 307.432 296.515 307.201C296.205 307.041 295.895 306.882 295.333 306.972Z" fill="url(#paint1_linear_386_11992)"/>
<path d="M274.279 285.994C274.381 286.285 274.49 286.579 274.606 286.878C274.775 287.315 274.856 287.787 274.962 288.407C274.984 288.535 275.007 288.669 275.032 288.811C268.187 293.306 261.363 297.583 254.437 301.686C253.613 302.174 252.453 302.094 251.34 302.018C251.104 302.002 250.87 301.985 250.642 301.975C252.821 300.609 252.486 298.757 252.166 296.986C252.085 296.535 252.004 296.09 251.966 295.66C251.593 291.428 251.142 287.204 250.691 282.98C250.513 281.311 250.335 279.642 250.161 277.973C260.379 269.043 270.598 260.113 281.266 251.09C283.868 252.381 286.021 253.764 288.217 255.384C290.308 257.522 292.357 259.433 294.82 261.726C292.357 259.433 290.313 257.523 288.458 255.428C294.942 259.14 301.23 263.043 307.518 266.946C305.095 269.154 302.673 271.361 300.088 273.738C298.939 274.562 297.953 275.218 296.738 275.898C296.172 275.627 295.703 275.398 295.514 275.026C292.221 268.539 289.075 267.114 281.536 268.923C281.571 268.863 281.607 268.801 281.644 268.738C282.045 268.045 282.559 267.158 283.306 266.704C282.759 267.036 282.331 267.601 281.903 268.165C281.692 268.443 281.481 268.722 281.256 268.972C273.592 274.156 271.776 278.848 274.279 285.994Z" fill="#89221D"/>
<path d="M192.894 147.448C188.445 149.323 184.1 150.983 179.485 152.623C182.402 142.917 187.991 135.002 196.335 128.98C197.201 135.58 194 141.196 192.894 147.448Z" fill="#BA9169"/>
<path d="M269.785 118.368C269.429 119.488 269.136 121.431 268.253 121.753C265.493 122.759 264.553 124.676 263.29 127.158C261.805 130.079 262.085 131.967 263.958 134.168C264.114 134.351 263.956 134.802 263.807 135.29C261.974 133.916 260.244 132.413 258.588 130.834C255.154 127.557 254.752 125.176 257.19 121.037C258.161 119.388 259.411 117.816 260.84 116.555C261.869 115.646 263.403 115.31 264.711 114.718C264.937 116.051 265.137 117.389 265.398 118.715C265.526 119.359 265.768 119.98 266.058 120.946C267.386 120.004 268.481 119.227 269.785 118.368Z" fill="#AB2F29"/>
<path d="M249.956 301.61C248.962 294.055 247.94 286.229 247.018 278.518C248.014 278.024 249.128 278.248 250.367 277.955C251.214 283.749 251.887 289.638 252.407 295.541C252.594 297.665 253.815 300.143 250.843 301.8C250.403 302.006 250.201 301.942 249.956 301.61Z" fill="#992824"/>
<path d="M203.283 187.103C199.076 184.351 191.966 185.858 187.738 190.74C187.788 191.152 187.857 191.565 187.925 191.979C188.093 192.994 188.261 194.01 188.164 194.999C188.123 195.408 187.625 195.773 187.017 196.217C186.703 196.447 186.359 196.698 186.034 196.988L186.03 196.997C186.023 196.982 186.016 196.967 186.009 196.953C184.846 198.81 183.565 201.091 182.329 203.29C181.366 205.005 180.43 206.67 179.601 208.046C180.744 208.92 181.888 209.794 183.502 210.723C185.306 209.798 186.639 208.819 187.972 207.839C187.446 206.015 186.921 204.192 186.36 201.843C186.332 201.678 186.31 201.501 186.294 201.316C186.311 201.401 186.328 201.488 186.345 201.576C187.779 202.29 189.193 202.745 191.083 203.221C195.469 197.859 199.38 192.476 203.283 187.103Z" fill="#5E1615"/>
<path d="M179.411 207.869C180.744 208.92 181.888 209.794 183.239 210.744C181.373 211.26 179.298 211.7 176.928 212.174C176.414 211.593 176.071 210.99 176.007 210.358C175.895 209.267 175.955 208.157 175.943 207.055C177.036 207.268 178.129 207.48 179.411 207.869Z" fill="#C69971"/>
<path d="M187.497 190.726C187.912 192.163 188.3 193.607 188.163 194.999C188.103 195.62 186.987 196.137 186.091 196.74C184.984 195.929 184.136 195.081 183.078 194.137C184.33 192.931 185.793 191.821 187.497 190.726Z" fill="#C69971"/>
<path d="M174.472 200.529C175.617 199.04 176.932 197.756 178.433 196.338C178.688 196.54 178.818 196.876 178.816 197.212C178.807 198.738 178.76 200.263 178.727 201.789C177.365 201.437 176.004 201.086 174.472 200.529Z" fill="#E1A678"/>
<path d="M302.969 202.317C302.974 202.474 302.663 202.407 302.512 202.354C302.362 202.302 302.395 202.079 302.422 201.97C302.685 201.85 302.857 201.95 302.969 202.317Z" fill="#A92E28"/>
<path fill-rule="evenodd" clip-rule="evenodd" d="M216.813 279.284L216.759 279.236C217.013 279.588 217.262 279.946 217.506 280.308C217.522 280.331 217.536 280.355 217.551 280.38C217.564 280.401 217.577 280.422 217.591 280.442C217.651 280.531 217.71 280.621 217.771 280.71C217.832 280.801 217.893 280.891 217.954 280.981C218.001 281.05 218.049 281.12 218.097 281.189C218.155 281.273 218.214 281.357 218.273 281.441C218.521 281.793 218.778 282.137 219.05 282.468C218.781 282.14 218.525 281.797 218.273 281.441C218.214 281.357 218.155 281.273 218.097 281.189C218.049 281.12 218.001 281.05 217.954 280.981C217.893 280.891 217.832 280.801 217.771 280.71C217.711 280.622 217.651 280.532 217.591 280.442C217.577 280.422 217.564 280.401 217.551 280.38C217.536 280.355 217.522 280.331 217.506 280.308C217.282 279.973 217.054 279.631 216.813 279.284Z" fill="#751D1B"/>
<path fill-rule="evenodd" clip-rule="evenodd" d="M216.813 279.284L216.759 279.236C217.013 279.588 217.262 279.946 217.506 280.308C217.522 280.331 217.536 280.355 217.551 280.38C217.564 280.401 217.577 280.422 217.591 280.442C217.651 280.531 217.71 280.621 217.771 280.71C217.832 280.801 217.893 280.891 217.954 280.981C218.001 281.05 218.049 281.12 218.097 281.189C218.155 281.273 218.214 281.357 218.273 281.441C218.521 281.793 218.778 282.137 219.05 282.468C218.781 282.14 218.525 281.797 218.273 281.441C218.214 281.357 218.155 281.273 218.097 281.189C218.049 281.12 218.001 281.05 217.954 280.981C217.893 280.891 217.832 280.801 217.771 280.71C217.711 280.622 217.651 280.532 217.591 280.442C217.577 280.422 217.564 280.401 217.551 280.38C217.536 280.355 217.522 280.331 217.506 280.308M217.506 280.308C217.282 279.973 217.054 279.631 216.813 279.284Z" fill="#6E1C1A"/>
<path fill-rule="evenodd" clip-rule="evenodd" d="M217.551 280.38C217.565 280.4 217.577 280.422 217.591 280.442C217.651 280.531 217.71 280.621 217.771 280.71C217.832 280.801 217.893 280.891 217.954 280.981C218.001 281.05 218.049 281.12 218.097 281.189C218.155 281.273 218.214 281.357 218.273 281.441C218.521 281.793 218.778 282.137 219.05 282.468C218.781 282.14 218.525 281.797 218.273 281.441C218.214 281.357 218.155 281.273 218.097 281.189C218.049 281.12 218.001 281.05 217.954 280.981C217.893 280.891 217.832 280.801 217.771 280.71C217.711 280.622 217.651 280.532 217.591 280.442C217.577 280.422 217.565 280.4 217.551 280.38Z" fill="#6E1C1A"/>
<path fill-rule="evenodd" clip-rule="evenodd" d="M217.506 280.308C217.535 280.352 217.561 280.398 217.591 280.442C217.636 280.51 217.681 280.577 217.726 280.644C217.741 280.666 217.756 280.688 217.771 280.71C217.832 280.801 217.893 280.891 217.954 280.981C218.001 281.05 218.049 281.12 218.097 281.189C218.155 281.273 218.214 281.357 218.273 281.441C218.567 281.856 218.866 282.254 219.185 282.629C219.183 282.627 219.187 282.631 219.185 282.629C219.14 282.577 219.093 282.521 219.05 282.468C218.975 282.376 218.901 282.284 218.828 282.19C218.637 281.946 218.453 281.695 218.273 281.441C218.214 281.357 218.155 281.273 218.097 281.189C218.049 281.12 218.001 281.05 217.954 280.981C217.893 280.891 217.832 280.801 217.771 280.71C217.71 280.621 217.651 280.531 217.591 280.442C217.59 280.441 217.592 280.444 217.591 280.442C217.578 280.423 217.563 280.399 217.551 280.38C217.537 280.357 217.52 280.33 217.506 280.308Z" fill="#6E1C1A"/>
<path fill-rule="evenodd" clip-rule="evenodd" d="M216.813 279.284L216.759 279.236C217.044 279.631 217.317 280.037 217.591 280.442C217.631 280.502 217.671 280.562 217.711 280.622M217.551 280.38C217.553 280.383 217.555 280.386 217.557 280.39C217.554 280.385 217.554 280.385 217.551 280.38ZM217.506 280.308C217.282 279.973 217.054 279.631 216.813 279.284ZM217.506 280.308C218.091 281.183 218.641 282.006 219.279 282.738ZM219.279 282.738C219.249 282.704 219.219 282.669 219.189 282.634ZM219.189 282.634L219.185 282.629ZM219.185 282.629C219.169 282.61 219.153 282.591 219.137 282.572ZM219.137 282.572C218.963 282.365 218.795 282.151 218.63 281.931ZM218.625 281.925C218.506 281.766 218.389 281.605 218.273 281.441C218.227 281.375 218.181 281.31 218.135 281.244C218.131 281.239 218.128 281.234 218.124 281.228C218.115 281.215 218.106 281.202 218.097 281.189C218.049 281.12 218.001 281.05 217.954 280.981C217.94 280.961 217.926 280.94 217.913 280.92C217.913 280.921 217.912 280.919 217.913 280.92C217.866 280.851 217.818 280.78 217.771 280.71C217.751 280.681 217.731 280.651 217.711 280.622M218.63 281.931C218.628 281.929 218.626 281.927 218.625 281.925ZM196.073 300.569C196.217 300.45 196.327 300.348 196.403 300.262C196.318 300.341 196.213 300.431 196.075 300.54C196.073 300.55 196.072 300.56 196.073 300.569ZM197.102 307.433C196.333 307.268 195.64 307.086 195.059 306.834C195.674 307.078 196.396 307.239 197.179 307.376C197.155 307.396 197.13 307.415 197.102 307.433Z" fill="#6E1C1A"/>
<path fill-rule="evenodd" clip-rule="evenodd" d="M197.102 307.433C197.13 307.415 197.155 307.396 197.179 307.376C196.396 307.239 195.674 307.078 195.059 306.834C195.64 307.086 196.333 307.268 197.102 307.433Z" fill="#682123"/>
<path d="M197.25 299.405C197.292 299.55 197.141 299.695 196.825 299.889C196.735 299.725 196.868 299.548 197.25 299.405Z" fill="#682123"/>
<path d="M196.527 300.025C196.534 300.083 196.492 300.162 196.403 300.262C196.327 300.348 196.217 300.45 196.073 300.569C196.072 300.56 196.073 300.55 196.075 300.54C196.092 300.432 196.24 300.256 196.527 300.025Z" fill="#682123"/>
<path d="M194.466 302.055C194.486 302.154 194.352 302.345 194.073 302.636C194.057 302.54 194.184 302.343 194.466 302.055Z" fill="#682123"/>
<path d="M216.759 279.236L216.813 279.284C217.054 279.631 217.282 279.973 217.506 280.308C218.091 281.183 218.641 282.006 219.279 282.738C219.249 282.704 219.219 282.669 219.189 282.634L219.185 282.629C218.866 282.254 218.567 281.856 218.273 281.441C218.214 281.357 218.155 281.273 218.097 281.189C218.049 281.12 218.001 281.05 217.954 280.981C217.893 280.891 217.832 280.801 217.771 280.71C217.711 280.622 217.651 280.532 217.591 280.442C217.317 280.037 217.044 279.631 216.759 279.236ZM197.102 307.433C197.203 307.455 197.306 307.477 197.411 307.498C197.858 307.664 198.276 307.837 198.672 308.001C199.776 308.459 200.707 308.846 201.613 308.792C205.697 308.552 209.773 308.093 213.832 307.561C215.233 307.377 216.931 307.115 217.871 306.228C219.014 305.149 220.029 303.932 221.044 302.716C222.138 301.404 223.231 300.093 224.484 298.957C227.643 296.092 228.001 293.382 225.365 290.023C225.021 289.585 225.035 288.863 225.052 288.064C225.061 287.629 225.071 287.171 225.023 286.723C222.243 284.092 219.528 281.687 216.813 279.284C216.757 279.203 216.7 279.121 216.642 279.039C216.375 278.737 216.122 278.44 215.877 278.151C215.162 277.309 214.505 276.536 213.723 275.922C211.775 274.391 209.695 273.028 207.469 271.714C207.266 271.947 207.065 272.171 206.869 272.39C206.129 273.214 205.457 273.963 204.99 274.823C203.059 278.377 201.124 282.063 203.339 286.141C205.194 289.555 207.909 292.139 212.122 293.081L212.143 293.35C211.862 296.64 210.192 297.73 207.355 297.966C205.17 298.148 202.997 298.49 200.826 298.841L200.421 298.906C199.42 299.069 198.42 299.231 197.418 299.378C197.292 299.55 197.141 299.695 196.839 299.904C196.713 299.993 196.695 299.957 196.695 299.957C196.613 300.05 196.531 300.143 196.403 300.262C196.327 300.348 196.217 300.45 196.073 300.569C196.072 300.56 196.073 300.55 196.075 300.54C196.025 300.579 195.971 300.62 195.912 300.664C195.27 301.216 194.945 301.59 194.62 301.963C194.486 302.154 194.352 302.345 194.087 302.645C193.956 302.754 193.934 302.73 193.934 302.73C193.834 302.933 193.695 303.106 193.384 303.345C193.249 303.443 193.229 303.426 193.229 303.426C192.989 305.33 193.737 306.261 195.059 306.834C193.746 306.313 192.92 305.414 193.028 303.573C192.652 304.979 192.477 306.238 192.303 307.497C192.656 307.516 193.009 307.538 193.362 307.559C194.256 307.613 195.15 307.668 196.046 307.692C196.446 307.703 196.85 307.601 197.102 307.433ZM197.102 307.433C196.333 307.268 195.64 307.086 195.059 306.834C195.674 307.078 196.396 307.239 197.179 307.376C197.155 307.396 197.13 307.415 197.102 307.433ZM193.775 302.798C193.834 302.933 193.695 303.106 193.379 303.337C193.292 303.191 193.418 303.004 193.775 302.798Z" fill="#6E1C1A"/>
<path d="M284.279 108.036C284.302 108.118 284.206 108.218 284.017 108.37C283.96 108.276 284.039 108.153 284.279 108.036Z" fill="#601919"/>
<path d="M189.812 173.988C191.071 172.358 192.247 170.652 193.628 169.134C194.206 168.499 195.324 167.808 196.01 167.964C196.79 168.141 197.672 169.123 197.973 169.951C199.45 174.009 197.966 177.074 193.56 179.415C192.958 179.735 192.289 179.928 191.424 179.966C190.736 177.831 190.274 175.909 189.812 173.988Z" fill="#EAA756"/>
<path d="M189.62 174.125C190.274 175.909 190.736 177.831 191.194 180.046C190.685 180.047 190.176 180.032 189.654 180.003C187.308 179.87 186.424 176.914 188.192 175.368C188.668 174.952 189.137 174.543 189.62 174.125Z" fill="#292929"/>
<path d="M164.975 191.38C166.043 189.721 167.025 188.251 168.205 186.961C168.46 186.682 169.465 186.946 170.038 187.176C170.251 187.262 170.436 188.143 170.26 188.36C168.988 189.94 167.62 191.442 166.282 192.969C165.842 192.524 165.401 192.078 164.975 191.38Z" fill="#6E1C1A"/>
<path d="M188.193 207.834C187.446 206.015 186.895 203.538 186.354 201.448C187.754 201.636 189.886 202.973 191.536 203.522C190.884 205.096 189.302 206.349 188.193 207.834Z" fill="#C69971"/>
<path d="M307.518 267.518C301.008 263.657 295.047 259.465 288.518 255.518C286.125 254.09 283.427 252.935 281.018 251.518C281.37 250.468 283.26 248.198 284.018 247.018C290.516 250.935 296.465 255.595 302.81 259.68C305.306 261.287 307.794 262.907 310.498 264.626C309.941 265.401 308.509 266.805 307.518 267.518Z" fill="#A12C28"/>
<path d="M202.091 254.271C207.606 244.7 212.93 235.32 218.392 226.021C222.286 219.389 226.3 212.824 230.386 206.309C232.61 202.763 233.103 202.676 235.974 205.494C245.612 214.952 255.165 224.498 264.73 234.031C268.288 237.576 271.795 241.173 275.318 244.753C277.445 246.915 277.308 248.982 275.057 250.981C266.645 258.454 258.342 266.058 249.726 273.288C248.415 274.388 245.386 274.508 243.629 273.836C230.34 268.747 217.176 263.329 203.954 258.065C202.212 257.371 201.091 256.547 202.091 254.271ZM256.843 234.811C256.048 232.912 255.489 230.865 254.415 229.141C251.021 223.69 242.848 223.728 239.797 229.35C236.225 235.933 236.731 242.699 240.41 249.103C242.315 252.418 245.562 253.531 249.32 253.005C252.611 252.545 255.125 250.586 255.784 247.546C256.642 243.597 256.58 239.447 256.843 234.811ZM223.314 232.832C225.003 231.157 227.293 230.492 228.751 232.276C229.633 233.356 229.188 235.798 228.826 237.52C228.589 238.648 227.486 239.626 226.678 240.595C224.395 243.334 221.931 245.936 219.829 248.806C219.14 249.747 219.039 251.411 219.296 252.61C219.396 253.08 221.217 253.422 222.249 253.409C225.582 253.366 228.913 253.104 232.246 252.979C236.277 252.828 236.475 252.589 235.59 248.256C233.12 248.134 230.593 248.008 227.19 247.839C229.301 245.156 230.872 243.361 232.213 241.408C234.433 238.175 235.821 234.665 234.263 230.722C232.943 227.383 230.208 225.881 226.233 226.04C221.926 226.213 218.991 228.584 217.51 233.213C219.321 234.323 221.043 236.591 223.314 232.832Z" fill="#A72D27"/>
<path d="M300.719 202.308C296.002 214.2 290.995 225.98 286.071 237.796C285.117 240.084 284.594 243.057 283.772 245.705C282.569 245.327 281.109 244.311 280.169 243.412C272.57 236.145 264.975 228.871 257.528 221.447C251.93 215.866 246.543 210.07 241.09 204.344C240.496 203.719 240.086 202.919 239.178 201.602C240.949 201.386 242.116 201.121 243.283 201.119C257.203 201.093 271.123 201.009 285.041 201.158C290.183 201.213 295.319 201.842 300.719 202.308Z" fill="#A92E28"/>
<path d="M331.789 138.232C332.266 140.2 331.698 141.166 329.539 140.445C326.394 139.394 323.27 138.22 320.052 137.461C313.703 135.964 307.296 134.716 300.622 133.097C300.339 131.387 300.346 129.945 300.353 128.502C310.49 129.535 319.915 132.81 328.896 137.522C329.678 137.933 330.647 137.986 331.789 138.232Z" fill="#AB2F29"/>
<path d="M300.057 128.498C300.345 129.945 300.338 131.387 300.343 133.078C299.151 133.1 297.949 132.873 296.406 132.428C295.192 132.348 294.319 132.487 293.446 132.627C287.944 132.426 282.442 132.194 276.938 132.053C275.945 132.027 274.942 132.373 273.676 132.594C273.894 131.178 274.38 129.715 274.831 128.019C283.164 126.389 291.47 127.173 300.057 128.498Z" fill="#AB2F29"/>
<path d="M291.374 313.812C291.957 312.136 292.536 310.471 293.115 308.807C293.488 308.974 293.86 309.141 294.233 309.308C293.436 310.766 292.64 312.223 291.619 313.748C291.394 313.815 291.371 313.824 291.374 313.812Z" fill="#89221D"/>
<path d="M295.459 306.847C295.896 306.882 296.205 307.042 296.515 307.201C296.282 307.432 296.049 307.662 295.815 307.893C295.655 307.586 295.494 307.279 295.459 306.847Z" fill="#89221D"/>
<path d="M293.723 132.632C294.32 132.487 295.192 132.348 296.137 132.425C295.472 132.64 294.735 132.638 293.723 132.632Z" fill="#601919"/>
<path d="M178.883 241.463C178.998 240.363 179.178 239.475 179.357 238.587C179.655 238.649 179.954 238.712 180.252 238.775C179.996 239.837 179.74 240.9 179.471 241.959C179.468 241.969 179.266 241.955 179.182 241.909C179.089 241.857 179.024 241.755 178.883 241.463Z" fill="#5E1615"/>
<path d="M183.611 234.678C183.739 234.863 183.746 235.046 183.752 235.229C183.648 235.227 183.545 235.226 183.441 235.224C183.457 235.042 183.473 234.86 183.611 234.678Z" fill="#5E1615"/>
<path d="M185.303 233.958C185.311 233.976 185.296 233.939 185.303 233.958Z" fill="#5E1615"/>
<path d="M256.879 235.097C256.58 239.447 256.641 243.596 255.784 247.546C255.125 250.586 252.611 252.545 249.32 253.005C245.562 253.531 242.315 252.418 240.41 249.103C236.731 242.699 236.225 235.933 239.797 229.35C242.848 223.728 251.021 223.69 254.415 229.14C255.489 230.865 256.048 232.911 256.879 235.097ZM251.392 244.176C251.132 240.471 251.125 236.72 250.461 233.089C250.256 231.972 248.119 230.304 247.112 230.462C245.804 230.667 243.863 232.35 243.737 233.558C243.364 237.131 243.421 240.837 244 244.378C244.229 245.784 246.185 247.74 247.517 247.878C248.652 247.996 250.019 245.865 251.392 244.176Z" fill="#E1A678"/>
<path d="M223.14 233.035C221.043 236.591 219.321 234.323 217.511 233.213C218.992 228.584 221.926 226.213 226.233 226.04C230.209 225.881 232.943 227.383 234.263 230.722C235.821 234.665 234.433 238.175 232.214 241.408C230.873 243.361 229.301 245.156 227.19 247.839C230.593 248.008 233.12 248.133 235.591 248.256C236.475 252.589 236.277 252.827 232.246 252.979C228.913 253.104 225.583 253.366 222.249 253.409C221.217 253.422 219.396 253.08 219.296 252.61C219.04 251.411 219.14 249.747 219.83 248.806C221.931 245.936 224.395 243.334 226.679 240.594C227.486 239.626 228.589 238.648 228.826 237.52C229.189 235.798 229.633 233.356 228.751 232.276C227.293 230.491 225.003 231.157 223.14 233.035Z" fill="#E1A678"/>
<path d="M251.337 244.452C250.019 245.865 248.652 247.996 247.518 247.878C246.185 247.74 244.23 245.784 244 244.378C243.421 240.837 243.364 237.131 243.737 233.558C243.863 232.35 245.804 230.667 247.113 230.462C248.119 230.304 250.256 231.972 250.461 233.089C251.125 236.72 251.132 240.471 251.337 244.452Z" fill="#A23126"/>
<path fill-rule="evenodd" clip-rule="evenodd" d="M197.531 256.516C197.858 257.95 198.313 258.951 198.768 259.952C201.586 261.044 204.404 262.135 207.222 263.226C213.824 265.784 220.427 268.341 227.026 270.908C228.822 271.607 230.616 272.307 232.415 273.01C237.159 274.862 241.937 276.728 246.856 278.603C248.123 278.441 249.128 278.248 250.367 277.955C257.805 271.529 265.124 265.155 272.478 258.749C275.46 256.152 278.447 253.55 281.451 250.938C282.017 250.13 282.486 249.386 282.981 248.602C283.186 248.277 283.395 247.945 283.618 247.599C283.73 246.944 283.694 246.45 283.641 245.716L283.64 245.692C283.108 245.279 282.541 244.957 281.992 244.646C281.324 244.268 280.685 243.905 280.169 243.412C272.57 236.145 264.975 228.87 257.529 221.447C253.279 217.21 249.151 212.85 245.024 208.49C243.714 207.107 242.404 205.723 241.09 204.343C240.708 203.942 240.401 203.467 239.989 202.828C239.762 202.475 239.501 202.071 239.178 201.602C239.789 201.528 240.328 201.447 240.82 201.374C241.754 201.234 242.519 201.12 243.283 201.119C246.039 201.114 248.795 201.106 251.551 201.099C262.715 201.068 273.879 201.038 285.041 201.158C288.918 201.199 292.792 201.567 296.777 201.945C298.078 202.069 299.39 202.193 300.719 202.308C301.263 202.377 301.568 202.354 302.065 202.318L302.131 202.313C302.362 202.302 302.395 202.079 302.326 201.75C300.915 200.203 299.574 198.985 298.233 197.767C297.769 197.901 297.304 198.074 296.839 198.247C295.838 198.62 294.836 198.994 293.844 198.97C285.749 198.779 277.655 198.539 269.562 198.299C262.315 198.084 255.068 197.869 247.821 197.689C246.225 197.65 244.625 197.807 243.025 197.964C241.889 198.076 240.752 198.188 239.616 198.229C238.626 198.266 237.632 198.173 236.388 198.056C235.747 197.996 235.04 197.93 234.233 197.872C235.178 196.378 236.087 194.943 236.97 193.55C239.408 189.704 241.643 186.179 243.834 182.627C244.293 181.882 244.549 181.012 244.837 180.029C244.909 179.784 244.983 179.533 245.063 179.274C243.457 180.223 241.851 181.18 240.245 182.143L229.882 196.72L202.204 205.338C201.271 206.007 200.578 207.012 199.885 208.017C199.57 208.474 199.255 208.931 198.917 209.357C201.775 208.494 204.615 207.566 207.455 206.637C214.176 204.44 220.896 202.243 227.846 200.923L228.585 202.004C228.08 202.937 227.584 203.874 227.087 204.811C226.008 206.845 224.93 208.878 223.769 210.864C219.257 218.58 214.728 226.286 210.2 233.993C206.484 240.317 202.768 246.64 199.061 252.969C198.622 253.719 198.304 254.539 197.912 255.546C197.794 255.851 197.668 256.173 197.531 256.516ZM203.954 258.064C202.212 257.371 201.092 256.547 201.96 254.496C203.717 251.447 205.443 248.439 207.152 245.461C210.934 238.869 214.63 232.426 218.392 226.02C222.287 219.389 226.3 212.824 230.386 206.309C232.611 202.763 233.103 202.676 235.974 205.494C244.318 213.682 252.597 221.935 260.877 230.189C262.161 231.47 263.446 232.75 264.73 234.03C267.441 236.732 270.122 239.462 272.803 242.193C273.641 243.047 274.479 243.9 275.318 244.753C277.445 246.915 277.308 248.981 275.058 250.98C272.875 252.919 270.701 254.866 268.526 256.813C262.316 262.373 256.107 267.933 249.726 273.287C248.415 274.388 245.387 274.508 243.629 273.835C234.565 270.364 225.56 266.741 216.555 263.117C212.357 261.428 208.158 259.738 203.954 258.064Z" fill="#BF382F"/>
<path d="M212.726 198.577C209.001 200.971 205.484 202.988 202.204 205.338L229.882 196.72L240.245 182.143C232.298 186.91 224.353 191.828 216.393 196.72C215.339 197.367 214.154 197.801 212.726 198.577Z" fill="#AB2F29"/>
<path d="M289.991 231.595C290.051 235.548 285.641 239.36 285.32 243.618C283.106 242.786 280.995 241.872 279.088 240.64C277.215 239.432 276.022 240.033 274.697 241.469C271.124 245.341 271.018 245.298 268.394 240.5C264.574 241.067 262.137 237.528 263.366 233.203C265.041 227.312 271.484 224.319 276.987 226.969C279.881 228.362 286.958 230.176 289.991 231.595ZM267.488 238.041C267.566 238.121 267.63 238.223 267.723 238.275C267.808 238.321 268.01 238.335 268.012 238.325C268.282 237.266 268.537 236.203 268.793 235.141C268.495 235.078 268.197 235.015 267.898 234.953C267.719 235.841 267.539 236.729 267.488 238.041ZM272.03 231.043C272.014 231.226 271.999 231.408 271.983 231.59C272.086 231.592 272.19 231.594 272.293 231.595C272.287 231.412 272.281 231.229 272.03 231.043Z" fill="url(#paint2_linear_386_11992)"/>
<path d="M289.991 231.595C290.051 235.548 285.641 239.36 285.32 243.618L296.821 247.321C298.425 247.838 300.166 247.726 301.691 247.008V247.008C303.855 245.989 305.304 243.887 305.487 241.503L305.749 238.091C305.837 236.949 305.768 235.8 305.543 234.676L303.463 224.268L293.1 223.576L289.991 231.595Z" fill="url(#paint3_linear_386_11992)"/>
<g filter="url(#filter4_f_386_11992)">
<ellipse cx="19.7589" cy="20.3674" rx="19.7589" ry="20.3674" transform="matrix(0.965926 -0.258819 0.965926 0.258819 59 319.703)" fill="black" fill-opacity="0.3"/>
</g>
<g filter="url(#filter5_n_386_11992)">
<path d="M322.646 330.603V271.419L326.559 267.271H334.813L338.961 271.972V294.094L343.939 300.902V330.603H322.646Z" fill="#868686"/>
<path d="M334.813 275.567V330.603H343.938V306.064L340.425 301.288L338.961 294.094V271.972L334.813 275.567Z" fill="#9F9F9F"/>
<path d="M341.162 330.603V315.835L336.908 310.695L334.813 300.718V330.603H341.162Z" fill="#767676"/>
<path d="M328.59 285.239V326.6L318.515 325.136L307.844 323.586L309.369 288.189L317.196 280.814H322.849L328.59 285.239Z" fill="#868686"/>
<path d="M317.195 280.814L312.194 283.081L309.569 284.695L309.369 288.189L313.168 289.479H320.847L325.676 287.997L328.59 285.239L322.849 280.814H317.195Z" fill="#B3B3B3"/>
<path d="M328.59 285.239V326.6L318.515 325.136L321.411 306.44L320.847 289.479L325.676 287.997L328.59 285.239Z" fill="#9F9F9F"/>
<path d="M300.787 330.603L299.347 315.835V303.504L303.042 298.749L309.254 298.937L314.341 299.285L316.342 303.227L316.065 330.603H300.787Z" fill="#767676"/>
<path d="M299.347 303.504L300.042 307.715L308.046 309.311L316.342 303.227L314.341 299.285L308.972 297.382L303.042 298.749L299.347 303.504Z" fill="#B3B3B3"/>
<path d="M312.194 306.269L308.046 330.604H316.065L316.342 303.228L312.194 306.269Z" fill="#9F9F9F"/>
<path d="M311.364 331.71L312.747 324.52L311.364 316.915L316.266 310.696H324.857L333.21 316.501L339.57 319.819V331.71H311.364Z" fill="#868686"/>
<path d="M339.57 319.819L331.14 322.861L326.757 320.372L311.364 316.915L316.266 310.696H324.857L333.21 316.501L339.57 319.819Z" fill="#B3B3B3"/>
<path d="M326.756 320.372L322.849 325.35L319.383 331.71H330.604L331.14 322.861L326.756 320.372Z" fill="#767676"/>
<path d="M331.14 322.861L329.338 331.71H339.57V319.819L331.14 322.861Z" fill="#9F9F9F"/>
<path d="M308.046 330.603V309.311L312.19 306.294L310.088 330.603H308.046Z" fill="#868686"/>
<path d="M322.646 271.419L325.85 275.567H334.813L338.961 271.972L334.813 267.271H326.559L322.646 271.419Z" fill="#B3B3B3"/>
</g>
<path d="M213.477 330.091L220.909 320.608L250.894 312.764L260.121 306.383L286.518 313.496L304.971 327.127L303.689 334.536H215.014L213.477 330.091Z" fill="#929292"/>
<path d="M238.977 327.128L286.518 313.496L288.94 322.254L295.488 334.536H242.629L238.977 327.128Z" fill="#868686"/>
<path d="M250.894 312.764L261.941 320.543L238.977 327.128L229.914 328.181L213.477 330.091L225.413 322.254L245.884 316.475L250.894 312.764Z" fill="#868686"/>
<path d="M213.477 330.091L228.201 327.255L238.977 327.128L250.702 333.399L215.014 334.537L213.477 330.091Z" fill="#767676"/>
<path d="M260.121 306.383L261.941 320.543L267.989 318.809L279.714 317.587L286.518 313.496L260.121 306.383Z" fill="#BFBEBD"/>
<path d="M295.488 334.537L304.063 332.378L303.689 334.537H295.488Z" fill="#838180"/>
<path d="M215.014 334.537L275.882 332.06L295.488 334.537H215.014Z" fill="#636363"/>
<path d="M268.66 334.752L263.791 324.266L257.8 321.645L254.804 301.797L279.033 304.353L315.845 304.044L337.94 317.9L338.509 323.583L331.2 334.752H268.66Z" fill="#929292"/>
<path d="M254.804 301.797L260.405 311.493L272.405 318.275L298.015 317.614L337.94 317.9L315.845 304.044L279.033 304.353L254.804 301.797Z" fill="#B3B3B3"/>
<path d="M272.405 318.275L280.103 331.335L295.641 334.752H268.66L263.791 324.266L257.8 321.645L254.804 301.797L260.405 311.493L272.405 318.275Z" fill="#767676"/>
<path d="M272.404 318.275L300.055 315.929L313.094 308.123L315.845 304.044L337.94 317.9L338.075 319.251L314.69 319.566L298.014 317.614L272.404 318.275Z" fill="#9F9F9F"/>
<path d="M295.641 334.752L309.768 329.3L332.387 327.238L338.509 323.583L331.2 334.752H295.641Z" fill="#767676"/>
<path d="M141.505 231.692C142.1 232.821 142.695 233.949 143.325 235.143C142.443 235.791 141.905 236.608 142.666 238.009C142.406 240.056 142.204 241.87 141.759 243.622C141.494 244.667 140.856 245.636 140.021 244.95C138.7 246.186 137.491 247.318 136.179 248.5C134.764 249.844 133.26 249.488 131.916 248.797C129.677 247.646 127.54 246.294 125.361 245.027C124.698 245.263 123.966 245.373 123.399 245.117C120.882 243.985 119.298 241.826 117.708 239.582C117.648 239.35 117.594 239.221 117.534 239.026C117.491 238.87 117.426 238.811 117.328 238.646C116.511 235.418 115.905 232.324 117.3 229.336C118.387 230.858 119.273 232.426 120.515 233.623C122.494 235.531 123.331 235.336 124.976 233.197C126.984 230.586 129.332 228.779 132.911 229.935C133.234 230.039 133.714 229.98 134.007 229.806C135.989 228.626 137.724 229.408 139.441 230.416C140.138 230.825 140.817 231.266 141.505 231.692ZM130.39 236.378C133.089 236.042 135.789 235.706 138.389 235.383C137.029 234.665 135.54 233.87 134.038 233.099C133.866 233.01 133.558 232.961 133.425 233.054C131.714 234.243 130.023 235.461 128.327 236.672C128.35 236.735 128.374 236.797 128.397 236.86C128.975 236.725 129.554 236.59 130.39 236.378Z" fill="#B35D23"/>
<path d="M117.259 229.216C115.905 232.323 116.511 235.417 117.355 238.703C117.429 238.969 117.479 239.035 117.54 239.093C117.594 239.221 117.649 239.349 117.713 239.743C117.777 242.643 117.824 245.277 117.889 247.912C117.91 248.763 117.98 249.614 117.888 250.473C114.608 250.138 111.457 249.866 108.338 249.391C107.693 249.293 106.851 248.546 106.643 247.918C106.218 246.633 106.162 245.227 106.093 243.868C107.659 243.727 109.469 244.084 110.426 243.34C112.042 242.083 111.579 239.903 111.119 238.086C110.734 236.563 109.282 236.362 107.966 236.114C107.01 235.934 106.057 235.733 105.103 235.541C105.103 235.541 105.11 235.382 105.18 235.228C105.194 234.794 105.139 234.514 105.083 234.235C105.061 234.088 105.039 233.941 105.092 233.561C105.16 230.83 105.154 228.334 105.148 225.838C105.148 225.838 105.16 225.864 105.247 225.842C105.493 225.698 105.651 225.576 105.808 225.454C106.502 224.992 107.196 224.53 108.05 223.978C108.31 223.873 108.385 223.822 108.435 223.735C108.435 223.735 108.385 223.701 108.537 223.723C111.104 222.899 113.519 222.053 116.058 221.249C116.349 221.846 116.603 222.392 116.666 222.959C116.898 225.041 117.067 227.13 117.259 229.216Z" fill="#7798B1"/>
<path d="M117.301 229.337C117.067 227.13 116.898 225.041 116.666 222.959C116.603 222.392 116.349 221.846 116.141 221.161C118.439 220.38 120.777 219.729 123.238 219.087C123.601 219.052 123.841 219.009 124.212 218.971C124.593 218.905 124.843 218.834 125.228 218.782C128.482 218.558 131.601 218.315 134.837 218.109C135.44 218.164 135.927 218.182 136.534 218.228C136.902 218.249 137.149 218.242 137.506 218.292C138.424 218.495 139.232 218.64 140.039 218.785C140.533 222.982 141.026 227.178 141.512 231.533C140.817 231.266 140.138 230.826 139.441 230.416C137.725 229.408 135.989 228.627 134.007 229.806C133.714 229.98 133.235 230.04 132.911 229.935C129.332 228.779 126.984 230.586 124.976 233.198C123.331 235.337 122.495 235.531 120.516 233.623C119.273 232.426 118.388 230.858 117.301 229.337ZM128.539 229.093C129.507 228.14 129.534 226.972 128.894 225.947C128.579 225.442 127.555 224.889 127.107 225.053C125.826 225.525 125.65 226.783 126.009 227.955C126.33 229.005 126.985 229.842 128.539 229.093ZM136.163 228.233C136.97 228.861 138.037 229.061 138.42 228.104C138.772 227.224 138.554 226.034 138.311 225.048C138.237 224.75 136.818 224.419 136.74 224.546C136.266 225.327 135.952 226.22 135.692 227.108C135.618 227.359 135.904 227.715 136.163 228.233ZM129.008 224.607C129.372 224.291 129.736 223.976 130.1 223.66C129.795 223.322 129.553 222.83 129.173 222.676C128.006 222.2 126.805 221.764 125.577 221.507C125.148 221.417 124.602 221.892 124.11 222.109C124.396 222.553 124.587 223.237 124.988 223.398C126.202 223.889 127.498 224.177 129.008 224.607ZM138.138 222.853C138.282 222.31 138.426 221.768 138.569 221.225C138.074 221.183 137.519 220.978 137.096 221.133C136.222 221.454 135.365 221.893 134.61 222.436C134.268 222.682 134.186 223.291 133.985 223.735C134.503 223.866 135.079 224.207 135.526 224.083C136.362 223.85 137.123 223.347 138.138 222.853Z" fill="#95ADBD"/>
<path d="M125.093 218.763C124.843 218.834 124.593 218.905 124.135 218.924C123.656 218.94 123.386 219.009 123.116 219.078C120.777 219.729 118.439 220.38 116.017 221.119C113.519 222.053 111.104 222.9 108.56 223.744C108.007 222.084 107.198 220.423 108.706 218.694C111.055 217.814 113.132 216.872 115.302 216.264C118.642 215.327 122.051 214.634 125.423 213.809C127.669 213.26 127.664 213.239 126.756 211.121C125.115 207.29 122.846 206.058 118.756 206.749C118.404 206.809 118.03 206.741 117.667 206.732C119.883 203.802 123.676 203.139 126.695 205.124C127.241 205.483 127.865 205.725 128.566 206.193C129.831 208.484 130.965 210.615 132.157 212.713C132.319 212.998 132.752 213.255 133.087 213.294C134.881 213.505 136.684 213.643 138.483 213.806C140.327 214.714 141.136 216.908 140.157 218.725C139.232 218.64 138.424 218.495 137.436 218.231C136.976 218.142 136.694 218.171 136.413 218.2C135.927 218.182 135.44 218.164 134.719 218.036C131.573 218.054 128.66 218.173 125.749 218.329C125.523 218.341 125.311 218.612 125.093 218.763Z" fill="#653017"/>
<path d="M106.693 261.064C102.928 259.38 102.926 259.378 105.064 255.827C105.375 255.312 105.723 254.82 106.271 254.248C107.133 254.321 107.782 254.455 108.426 254.61C113.507 255.827 118.668 256.229 123.875 256.095C124.5 256.079 125.118 255.776 125.824 255.682C126.57 257.09 127.621 257.921 129.105 258.089C131.325 258.341 132.941 257.38 134.186 255.472C135.63 255.259 136.925 255.006 138.232 254.874C138.597 254.837 138.997 255.154 139.333 255.404C137.731 257.037 136.177 258.576 134.624 260.114C132.485 261.295 130.368 262.52 128.192 263.627C127.655 263.9 126.831 264.03 126.301 263.818C124.032 262.914 121.823 261.86 119.595 260.855C118.836 260.513 118.138 259.767 116.979 260.563C113.427 261.721 110.083 261.877 106.693 261.064Z" fill="#894220"/>
<path d="M102.472 199.36C103.43 199.713 103.5 200.437 103.184 201.24C102.158 203.853 101.137 206.468 100.03 209.046C99.711 209.789 99.2869 210.761 97.9052 209.96C96.2922 209.466 94.8798 209.066 93.4673 208.666C91.586 208.979 89.7047 209.291 87.5932 209.592C87.1713 208.534 86.7394 207.467 86.8298 206.446C87.204 202.223 88.9323 198.564 91.9493 195.579C92.485 195.049 93.3473 194.85 94.0588 194.498C95.2143 195.447 96.3698 196.396 97.7037 197.451C99.4123 198.157 100.942 198.759 102.472 199.36Z" fill="#7E8389"/>
<path d="M104.978 235.56C106.057 235.733 107.01 235.935 107.966 236.114C109.282 236.362 110.734 236.563 111.119 238.086C111.579 239.903 112.042 242.083 110.426 243.341C109.469 244.084 107.659 243.728 106.05 243.835C105.748 243.765 105.663 243.805 105.614 243.924C100.778 242.998 96.261 241.325 92.385 238.076C94.8637 236.769 96.38 234.761 97.5541 232.432C99.9872 233.481 102.42 234.53 104.978 235.56Z" fill="#95B0C2"/>
<path d="M110.83 268.584C109.834 269.744 108.839 270.903 107.802 272.11C107.803 272.116 107.807 272.232 107.853 272.326C108.261 273.163 108.677 273.996 109.091 274.83C108.201 275.171 107.319 275.775 106.419 275.803C104.003 275.876 101.574 275.782 99.1612 275.603C97.2957 275.464 96.6009 274.331 97.6084 272.777C99.4303 269.967 101.516 267.328 103.517 264.636C103.654 264.452 104.003 264.425 104.419 264.419C105.134 264.962 105.643 265.475 106.24 265.849C107.749 266.794 109.297 267.676 110.83 268.584Z" fill="#643119"/>
<path d="M117.571 206.795C118.03 206.741 118.404 206.809 118.756 206.749C122.846 206.058 125.115 207.29 126.756 211.12C127.664 213.239 127.669 213.26 125.423 213.809C122.051 214.634 118.642 215.327 115.302 216.264C113.132 216.872 111.055 217.814 108.808 218.624C108.901 217.665 109.122 216.689 109.574 215.657C111.129 216.089 112.419 216.831 113.825 215.75C116.014 214.068 115.928 211.803 113.569 209.993C114.871 208.948 116.173 207.903 117.571 206.795Z" fill="#894220"/>
<path d="M125.739 255.606C125.118 255.776 124.5 256.079 123.875 256.095C118.668 256.229 113.507 255.827 108.427 254.61C107.782 254.456 107.133 254.322 106.355 254.173C106.265 252.799 106.307 251.43 106.515 249.888C110.476 250.063 114.27 250.41 118.197 250.791C120.927 250.907 123.525 250.989 126.097 251.192C125.961 252.744 125.85 254.175 125.739 255.606Z" fill="#653118"/>
<path d="M145.091 264.031C145.097 264.52 145.28 265.102 145.079 265.479C144.244 267.046 145.166 267.618 146.364 268.237C147.182 268.66 147.984 269.23 148.594 269.912C149.428 270.844 148.959 271.902 147.709 271.99C144.117 272.241 140.521 272.438 136.925 272.639C135.708 272.707 135.02 272.267 135.317 270.887C135.802 268.627 136.251 266.36 136.957 264.018C139.829 263.971 142.46 264.001 145.091 264.031Z" fill="#643119"/>
<path d="M126.122 251.071C123.525 250.989 120.927 250.907 118.188 250.718C118.047 250.611 118.028 250.465 118.028 250.465C117.98 249.614 117.91 248.763 117.889 247.912C117.824 245.277 117.777 242.643 117.719 239.848C119.298 241.826 120.882 243.985 123.399 245.117C123.967 245.373 124.698 245.263 125.361 245.027C127.541 246.294 129.677 247.646 131.916 248.797C133.261 249.488 134.764 249.844 136.251 248.578C137.829 248.579 139.235 248.533 140.572 249.081C140.587 249.226 140.602 249.372 140.491 249.656C139.777 249.932 139.194 250.112 138.597 250.199C136.889 250.449 135.175 250.662 133.363 250.825C131.995 249.504 130.46 248.945 128.761 249.494C127.811 249.8 126.997 250.531 126.122 251.071Z" fill="#97ACB9"/>
<path d="M94.0112 194.355C93.3476 194.85 92.4853 195.049 91.9496 195.579C88.9326 198.564 87.2043 202.223 86.8301 206.446C86.7396 207.467 87.1715 208.535 87.4606 209.602C86.5962 210.476 85.6345 211.328 84.5008 212.333C82.6034 208.779 82.6336 205.219 83.7162 201.675C85.2412 196.683 88.2967 192.929 93.2412 190.63C93.5149 191.988 93.7391 193.1 94.0112 194.355Z" fill="#989896"/>
<path d="M113.45 209.985C115.928 211.803 116.014 214.068 113.825 215.75C112.419 216.831 111.129 216.089 109.683 215.602C108.786 214.875 107.994 214.167 107.241 213.418C104.108 210.302 105.241 203.647 108.877 201.085C109.117 202.209 109.502 203.176 109.495 204.14C109.473 206.989 110.877 208.805 113.45 209.985Z" fill="#DFBC96"/>
<path d="M140.592 248.951C139.235 248.533 137.829 248.579 136.354 248.527C137.491 247.318 138.701 246.186 140.021 244.95C140.856 245.636 141.494 244.667 141.759 243.622C142.204 241.87 142.406 240.056 142.732 238.126C143.81 238.63 144.867 239.277 145.95 239.939C146.386 239.707 146.905 239.431 147.543 239.224C148.495 241.762 150.202 243.464 152.417 244.719C149.522 248.317 147.217 248.687 141.073 246.476C140.917 247.27 140.764 248.046 140.592 248.951Z" fill="#98AFBE"/>
<path d="M145.104 263.904C142.46 264.001 139.829 263.971 137.061 263.944C137.086 263.161 137.247 262.373 137.408 261.586C136.525 261.102 135.689 260.643 134.738 260.149C136.177 258.576 137.731 257.037 139.424 255.339C139.914 254.919 140.265 254.658 140.615 254.398C141.45 254.765 142.29 255.12 143.118 255.5C145.48 256.586 146.224 258.069 145.716 260.627C145.508 261.675 145.316 262.726 145.104 263.904Z" fill="#96AEBE"/>
<path d="M93.4557 208.784C94.8799 209.066 96.2923 209.466 97.7816 209.954C96.144 214.575 94.4295 219.108 92.5644 223.808C91.6548 224.001 90.8959 224.027 90.1288 223.938C89.498 223.224 88.8754 222.624 88.2528 222.025C89.4574 219.03 90.6697 216.039 91.8632 213.04C92.4091 211.668 92.9182 210.282 93.4557 208.784Z" fill="#6D371D"/>
<path d="M150.314 236.797C150.115 235.87 149.796 234.946 149.773 234.015C149.763 233.618 150.369 233.206 150.922 232.845C151.936 233.229 152.916 233.388 153.457 233.961C153.954 234.488 153.979 235.462 154.212 236.239C153.556 236.052 152.902 235.861 152.243 235.685C152.159 235.663 152.052 235.722 151.955 235.743C152.633 237.307 156.23 238.705 157.229 238.121C156.622 237.604 155.355 236.995 155.372 236.425C155.395 235.668 156.42 234.942 156.89 234.358C156.243 234.355 155.456 234.352 154.67 234.349C154.762 233.545 154.854 232.741 154.95 231.913C153.973 232.626 152.786 233.044 151.562 232.035C153.551 229.322 158.114 229.971 159.495 233.265C160.714 236.175 159.611 239.596 156.088 240.813C155.258 240.706 154.525 240.745 154.117 240.4C152.786 239.274 151.573 238.009 150.314 236.797Z" fill="#95B0C2"/>
<path d="M110.921 268.517C109.298 267.676 107.749 266.794 106.24 265.849C105.643 265.475 105.134 264.962 104.537 264.409C105.159 263.273 105.828 262.241 106.595 261.136C110.083 261.877 113.427 261.721 116.862 260.602C115.396 262.716 113.794 264.82 112.191 266.922C111.801 267.434 111.405 267.941 110.921 268.517Z" fill="#97AEBC"/>
<path d="M88.1139 222.01C88.8752 222.624 89.4978 223.224 90.1122 223.962C90.1041 224.101 90.0709 224.147 89.9961 224.183C89.8673 224.313 89.8132 224.406 89.7607 224.498C89.7623 224.497 89.7645 224.494 89.648 224.49C89.2884 224.733 89.0455 224.98 88.8045 225.224C88.8065 225.223 88.809 225.218 88.6908 225.248C87.6732 226.081 87.6756 226.975 88.3066 227.928C88.3048 227.924 88.2986 227.919 88.3313 228.026C89.7936 229.03 89.0415 230.151 88.6753 231.231C88.6669 231.23 88.6501 231.23 88.5114 231.264C87.4649 231.345 86.5574 231.402 85.6491 231.438C85.0821 231.46 84.5137 231.448 83.9459 231.452C81.7913 229.866 81.9381 228.367 83.4052 225.156C84.2568 223.292 85.5496 221.738 88.1139 222.01Z" fill="#98AFBE"/>
<path d="M133.735 207.825C136.472 205.621 135.417 202.76 134.912 199.994C135.05 199.881 135.188 199.768 135.326 199.655C136.087 200.162 137.107 200.501 137.559 201.206C138.76 203.076 140.089 204.884 140.12 207.349C140.146 209.459 139.064 211.029 138.08 212.738C136.96 211.592 136.02 210.47 135.073 209.354C134.634 208.838 134.182 208.335 133.735 207.825Z" fill="#DFBC96"/>
<path d="M97.5375 232.314C96.38 234.761 94.8637 236.769 92.3258 237.976C90.9121 236.833 89.5952 235.623 88.1597 234.28C88.0319 234.079 88.0228 234.012 88.1418 233.947C90.8557 233.376 92.3651 231.429 93.9052 229.522C95.1104 230.413 96.3157 231.305 97.5375 232.314Z" fill="#64331D"/>
<path d="M93.9299 229.387C92.3648 231.429 90.8554 233.376 88.1595 233.824C88.2496 232.876 88.4498 232.053 88.6501 231.23C88.6501 231.23 88.6668 231.23 88.8043 231.216C89.8759 229.91 90.8101 228.62 91.4579 227.725C90.4998 227.784 89.3992 227.851 88.2985 227.919C88.2985 227.919 88.3047 227.924 88.3091 227.796C88.4786 226.851 88.6438 226.035 88.809 225.218C88.809 225.218 88.8064 225.223 88.9087 225.204C89.2621 224.955 89.5132 224.724 89.7644 224.494C89.7644 224.494 89.7622 224.497 89.8354 224.461C89.9627 224.333 90.0168 224.24 90.0708 224.146C90.0708 224.146 90.104 224.101 90.1204 224.077C90.8956 224.027 91.6545 224.001 92.5472 223.929C94.1956 225.076 94.6578 227.024 93.9299 229.387Z" fill="#96AEBE"/>
<path d="M150.189 236.81C151.573 238.009 152.786 239.274 154.117 240.4C154.525 240.745 155.258 240.707 155.968 240.855C154.948 242.143 153.802 243.42 152.537 244.708C150.202 243.464 148.495 241.762 147.64 239.174C148.435 238.311 149.249 237.567 150.189 236.81Z" fill="#64331D"/>
<path d="M133.615 207.805C134.181 208.335 134.634 208.838 135.073 209.354C136.02 210.47 136.959 211.592 137.976 212.797C138.179 213.122 138.308 213.362 138.46 213.704C136.683 213.643 134.881 213.505 133.087 213.294C132.752 213.255 132.319 212.998 132.157 212.713C130.965 210.615 129.831 208.484 128.67 206.246C130.274 206.68 131.885 207.233 133.615 207.805Z" fill="#894220"/>
<path d="M88.5116 231.264C88.4501 232.053 88.2499 232.876 88.0317 233.822C88.0228 234.012 88.0319 234.079 88.0566 234.248C87.5762 235.323 86.941 236.254 86.6173 237.283C86.1296 238.833 85.2351 239.059 83.8533 238.571C82.4499 238.075 81.9408 237.236 82.4146 235.692C82.8297 234.339 83.3999 233.034 83.9238 231.58C84.5139 231.448 85.0822 231.46 85.6493 231.438C86.5576 231.402 87.465 231.345 88.5116 231.264Z" fill="#6D371D"/>
<path d="M140.661 254.278C140.265 254.658 139.914 254.919 139.473 255.244C138.997 255.154 138.596 254.837 138.231 254.874C136.925 255.006 135.63 255.259 134.197 255.338C133.862 253.769 133.662 252.329 133.463 250.889C135.174 250.662 136.888 250.449 138.597 250.199C139.194 250.112 139.777 249.932 140.499 249.766C140.656 251.211 140.682 252.684 140.661 254.278Z" fill="#643119"/>
<path d="M151.451 232.054C152.785 233.043 153.973 232.626 154.949 231.913C154.854 232.741 154.762 233.545 154.669 234.349C155.456 234.352 156.242 234.355 156.889 234.358C156.42 234.942 155.394 235.668 155.372 236.425C155.355 236.995 156.622 237.604 157.229 238.121C156.23 238.705 152.632 237.307 151.954 235.743C152.052 235.722 152.158 235.662 152.243 235.685C152.901 235.861 153.556 236.052 154.212 236.239C153.979 235.462 153.954 234.488 153.456 233.961C152.915 233.388 151.936 233.229 151.051 232.818C151.083 232.523 151.212 232.298 151.451 232.054Z" fill="#6A8CA1"/>
<path d="M102.486 199.234C100.943 198.758 99.4125 198.157 97.822 197.464C98.7318 195.157 100.237 196.679 101.506 196.882C102.839 197.095 102.91 198.033 102.486 199.234Z" fill="#64331D"/>
<path d="M117.888 250.473C118.028 250.465 118.047 250.611 118.055 250.684C114.27 250.41 110.476 250.063 106.55 249.748C106.157 247.929 105.896 246.077 105.624 244.074C105.663 243.805 105.748 243.765 105.912 243.837C106.162 245.227 106.218 246.634 106.643 247.918C106.851 248.546 107.693 249.294 108.338 249.392C111.457 249.866 114.608 250.138 117.888 250.473Z" fill="#8694A1"/>
<path d="M105.031 225.91C105.154 228.334 105.16 230.831 105.104 233.45C104.891 231.443 104.719 229.314 104.607 227.183C104.586 226.789 104.806 226.383 105.031 225.91Z" fill="#8694A1"/>
<path d="M105.066 234.359C105.139 234.515 105.195 234.794 105.197 235.15C105.112 234.979 105.08 234.731 105.066 234.359Z" fill="#8694A1"/>
<path d="M105.705 225.479C105.65 225.576 105.493 225.698 105.234 225.838C105.288 225.739 105.445 225.621 105.705 225.479Z" fill="#8694A1"/>
<path d="M108.36 223.727C108.385 223.823 108.31 223.874 108.144 223.904C108.106 223.81 108.175 223.744 108.36 223.727Z" fill="#653017"/>
<path d="M130.261 236.416C129.554 236.59 128.976 236.725 128.397 236.86C128.374 236.797 128.351 236.734 128.327 236.672C130.023 235.461 131.714 234.243 133.425 233.053C133.559 232.961 133.866 233.01 134.038 233.099C135.54 233.87 137.029 234.665 138.389 235.383C135.789 235.706 133.09 236.042 130.261 236.416Z" fill="#9A4715"/>
<path d="M117.534 239.026C117.48 239.035 117.429 238.97 117.361 238.839C117.427 238.811 117.491 238.87 117.534 239.026Z" fill="#97ACB9"/>
<path d="M136.094 228.128C135.904 227.715 135.618 227.359 135.692 227.108C135.952 226.22 136.265 225.327 136.74 224.546C136.817 224.419 138.237 224.75 138.31 225.048C138.553 226.033 138.771 227.224 138.42 228.104C138.037 229.061 136.97 228.861 136.094 228.128Z" fill="#151F29"/>
<path d="M128.884 224.576C127.497 224.177 126.202 223.889 124.988 223.398C124.587 223.237 124.396 222.554 124.11 222.109C124.602 221.892 125.148 221.417 125.576 221.507C126.805 221.764 128.006 222.2 129.173 222.676C129.553 222.83 129.795 223.322 130.1 223.66C129.736 223.976 129.372 224.291 128.884 224.576Z" fill="#151F29"/>
<path d="M138.026 222.904C137.123 223.347 136.362 223.85 135.526 224.083C135.079 224.207 134.503 223.866 133.985 223.735C134.185 223.29 134.268 222.682 134.61 222.435C135.365 221.893 136.222 221.454 137.096 221.133C137.519 220.978 138.074 221.183 138.569 221.225C138.426 221.767 138.282 222.31 138.026 222.904Z" fill="#151F29"/>
<path d="M125.228 218.781C125.311 218.612 125.523 218.34 125.749 218.328C128.66 218.173 131.573 218.054 134.603 217.999C131.601 218.314 128.482 218.557 125.228 218.781Z" fill="#64331D"/>
<path d="M136.534 218.228C136.694 218.171 136.975 218.142 137.326 218.175C137.149 218.243 136.902 218.249 136.534 218.228Z" fill="#64331D"/>
<path d="M123.238 219.086C123.385 219.009 123.655 218.94 124.003 218.918C123.841 219.009 123.601 219.052 123.238 219.086Z" fill="#64331D"/>
<path d="M133.363 250.825C133.663 252.329 133.863 253.769 134.052 255.344C132.941 257.38 131.325 258.34 129.105 258.089C127.621 257.921 126.57 257.09 125.824 255.681C125.85 254.175 125.961 252.744 126.097 251.192C126.997 250.531 127.811 249.8 128.761 249.493C130.46 248.945 131.995 249.504 133.363 250.825ZM129.138 251.556C127.983 252.241 127.238 253.168 127.807 254.553C128.28 255.703 129.227 256.252 130.489 255.881C131.646 255.541 132.272 254.66 132.094 253.495C131.871 252.036 130.908 251.313 129.138 251.556Z" fill="#D4822C"/>
<path d="M88.3314 228.026C89.3993 227.851 90.5 227.784 91.4581 227.725C90.8103 228.62 89.8761 229.91 88.8128 231.216C89.0416 230.151 89.7937 229.03 88.3314 228.026Z" fill="#6A8CA1"/>
<path d="M88.6909 225.248C88.6439 226.035 88.4788 226.851 88.3111 227.8C87.6757 226.975 87.6732 226.082 88.6909 225.248Z" fill="#6A8CA1"/>
<path d="M89.6479 224.49C89.5133 224.725 89.2621 224.955 88.9067 225.206C89.0454 224.979 89.2884 224.733 89.6479 224.49Z" fill="#6A8CA1"/>
<path d="M89.9965 224.183C90.0172 224.24 89.9632 224.333 89.8343 224.463C89.8135 224.406 89.8676 224.313 89.9965 224.183Z" fill="#6A8CA1"/>
<path d="M129.26 251.514C130.907 251.313 131.871 252.037 132.094 253.495C132.272 254.66 131.646 255.542 130.489 255.882C129.227 256.253 128.28 255.703 127.807 254.553C127.238 253.169 127.983 252.241 129.26 251.514Z" fill="#6B3110"/>
<path d="M123.997 316.741C123.997 316.905 124.047 317.064 124.141 317.198V317.198C124.548 317.779 125.398 317.806 125.841 317.253L125.869 317.217C125.986 317.072 126.049 316.891 126.049 316.704V274.988H123.997V316.741Z" fill="#99592A"/>
<path d="M124.018 264.463C124.313 263.556 125.597 263.556 125.892 264.463L126.945 267.706C127.077 268.112 127.455 268.387 127.882 268.387H131.292C132.246 268.387 132.643 269.608 131.871 270.169L129.112 272.173C128.767 272.424 128.623 272.869 128.754 273.274L129.808 276.517C130.103 277.425 129.064 278.179 128.292 277.619L125.534 275.614C125.188 275.364 124.721 275.364 124.376 275.614L121.617 277.619C120.845 278.179 119.806 277.425 120.101 276.517L121.155 273.274C121.287 272.869 121.142 272.424 120.797 272.173L118.038 270.169C117.266 269.608 117.663 268.387 118.618 268.387H122.027C122.454 268.387 122.832 268.112 122.964 267.706L124.018 264.463Z" fill="#FFB738"/>
<path fill-rule="evenodd" clip-rule="evenodd" d="M121.651 295.511L121.558 295.743C120.732 297.798 121.352 300.151 123.085 301.532V301.532L121.651 302.177C119.636 303.083 117.36 303.22 115.251 302.561L111.957 301.532L113.462 295.101L115.572 296.122C116.926 296.777 118.497 296.813 119.881 296.226C120.757 295.854 120.923 295.815 121.651 295.511Z" fill="#2067BB"/>
<path d="M121.651 295.511L121.558 295.743C120.732 297.798 121.352 300.151 123.085 301.532V301.532L123.489 301.35C123.818 301.201 124.09 300.949 124.261 300.631L124.723 299.773C125.475 298.375 125.558 296.713 124.947 295.248C124.724 294.713 124.11 294.458 123.574 294.679C123.113 294.87 122.096 295.326 121.651 295.511Z" fill="#194C95"/>
<ellipse cx="125.776" cy="297.564" rx="3.01006" ry="3.42052" fill="#9ECFEC"/>
<path fill-rule="evenodd" clip-rule="evenodd" d="M102.516 319.866H112.504L112.493 319.744C112.275 317.266 110.048 315.462 107.579 315.761L107.067 313.982L101.784 316.719L102.516 319.866Z" fill="#2066B9"/>
<path d="M104.979 306.731L99.7798 308.099L101.784 316.719L107.067 313.982L104.979 306.731Z" fill="#184C94"/>
<path fill-rule="evenodd" clip-rule="evenodd" d="M82.9507 319.817V320.002L92.8018 319.866L92.6232 319.24C92.2192 317.826 91.1686 316.688 89.7917 316.171L90.2746 314.119L84.9311 312.067L83.1211 318.569C83.008 318.976 82.9507 319.395 82.9507 319.817Z" fill="#1E66BC"/>
<path d="M91.4336 309.194L86.6448 305.91L84.9311 312.067L90.2746 314.119L91.4336 309.194Z" fill="#194D95"/>
<path fill-rule="evenodd" clip-rule="evenodd" d="M92.665 285.479L79.2566 280.633L75.6826 282.513V304.986L92.665 311.064V285.479Z" fill="#70AAD7"/>
<path fill-rule="evenodd" clip-rule="evenodd" d="M116.472 280.419L99.4668 274.167L81.7193 277.94L79.9407 280.921L92.665 285.479L116.472 280.419Z" fill="#8CC0E3"/>
<rect width="24.3387" height="25.5851" transform="matrix(0.978148 -0.207912 0 1 92.665 285.479)" fill="#A5D2EF"/>
<path d="M102.243 289.081C102.149 288.025 101.306 286.384 100.464 287.029C99.8246 287.519 99.2201 288.618 98.8222 289.218C98.1943 290.164 99.6137 291.572 100.738 291.407C101.78 291.254 102.336 290.131 102.243 289.081Z" fill="#0D1A2C"/>
<path d="M90.3376 289.478C90.2435 288.418 89.6173 287.326 88.5599 287.363C87.5257 287.4 86.8952 288.457 86.9191 289.495C86.9453 290.632 87.7101 291.876 88.8334 291.751C89.8755 291.635 90.4311 290.531 90.3376 289.478Z" fill="#0D1A2C"/>
<path d="M84.8628 295.343C84.7688 294.281 84.143 293.167 83.0863 293.167C82.0526 293.168 81.4226 294.203 81.4465 295.242C81.4726 296.379 82.237 297.651 83.3596 297.564C84.4011 297.484 84.9563 296.4 84.8628 295.343Z" fill="#0D1A2C"/>
<path d="M80.2089 302.304C80.1149 301.237 79.4895 300.101 78.4334 300.065C77.4004 300.03 76.7707 301.043 76.7946 302.082C76.8208 303.221 77.5847 304.519 78.7066 304.472C79.7474 304.428 80.3023 303.363 80.2089 302.304Z" fill="#0D1A2C"/>
<path d="M111.684 288.537C111.121 287.73 110.56 286.625 109.905 286.485C108.89 286.269 108.239 287.637 108.263 288.674C108.29 289.81 109.055 291.028 110.179 290.863C111.222 290.71 112.286 289.402 111.684 288.537Z" fill="#0D1A2C"/>
<path d="M107.305 296.473C107.211 295.417 106.585 294.346 105.527 294.421C104.492 294.493 103.861 295.573 103.885 296.61C103.911 297.745 104.676 298.964 105.8 298.799C106.843 298.646 107.399 297.523 107.305 296.473Z" fill="#0D1A2C"/>
<path fill-rule="evenodd" clip-rule="evenodd" d="M105.8 293.049C105.8 293.049 107.513 291.708 108.947 291.817C110.803 291.959 111.485 292.376 112.368 293.596C112.608 293.929 112.829 294.265 113.05 294.6C113.732 295.639 114.408 296.667 115.651 297.564C115.714 297.753 114.669 297.92 113.325 297.936C113.325 297.936 114.205 301.227 113.873 303.31C113.366 306.487 109.903 309.657 109.494 310.288C109.085 310.919 109.197 311.607 109.494 312.888C110.112 314.959 98.132 311.148 97.0436 303.174C96.7668 301.145 97.8645 297.997 97.8645 297.997C96.8111 298.013 95.9359 297.836 95.5386 297.29C96.2018 297.219 97.044 296.288 97.9951 295.236C99.1158 293.997 100.388 292.591 101.696 292.228C104.158 291.544 105.8 293.049 105.8 293.049ZM104.374 297.566C103.877 297.807 103.319 297.891 102.773 297.809L101.454 297.61C101.393 297.601 101.391 297.513 101.451 297.499C103.173 297.113 104.332 296.531 105.863 295.516C105.987 295.433 106.152 295.443 106.267 295.537C106.68 295.874 107.702 296.661 108.81 297.153C108.945 297.213 109.26 297.338 109.533 297.438C109.593 297.46 109.576 297.564 109.513 297.564H108.495C108.161 297.564 107.831 297.496 107.525 297.365L106.533 296.94C106.241 296.815 105.91 296.822 105.624 296.961L104.374 297.566Z" fill="#FFF5E3"/>
<path d="M72.1421 305.91L72.7915 300.985C73.3652 296.634 76.9837 293.326 81.3683 293.143L83.635 293.049L81.5827 297.29V300.574H79.8041C78.8973 300.574 78.1622 301.309 78.1622 302.216V305.91H72.1421Z" fill="#2067BB"/>
<path d="M81.5827 297.29V300.574V300.574C83.3963 300.574 84.8664 299.104 84.8664 297.29V295.567C84.8664 294.582 84.412 293.653 83.635 293.049V293.049L81.5827 297.29Z" fill="#2067BB"/>
<path d="M78.1622 305.91H72.1421L72.1912 307.827C72.24 309.729 73.7963 311.246 75.6994 311.246V311.246V311.246C77.3826 311.246 78.7671 309.92 78.8402 308.239L78.8463 308.099L78.747 306.61C78.7247 306.274 78.4884 305.992 78.1622 305.91V305.91Z" fill="#9DCEEB"/>
<path d="M72.1437 284.476C71.6176 284.464 71.4202 283.793 71.8532 283.494L79.8038 277.998C79.8038 277.998 88.6898 277.926 94.4437 276.904C109.084 274.304 109.084 273.483 109.084 273.483L117.916 277.303C118.375 277.501 118.349 278.151 117.874 278.305C114.126 279.52 103.125 282.879 93.2123 283.882C85.3137 284.68 75.883 284.565 72.1437 284.476Z" fill="#1E65B9"/>
<path d="M94.4437 276.904C109.084 274.304 109.084 273.483 109.084 273.483L107.226 270.017C107.111 269.801 106.866 269.688 106.627 269.739C106.449 269.778 106.216 269.828 105.937 269.887C103.596 270.383 98.0071 271.541 94.17 272.115C90.4396 272.674 85.1911 273.191 82.4034 273.449C81.9077 273.494 81.4898 273.532 81.172 273.56C81.1578 273.562 81.1438 273.563 81.13 273.564C80.7531 273.598 80.4468 273.883 80.3884 274.257L79.8038 277.998C79.8038 277.998 88.6898 277.926 94.4437 276.904Z" fill="#FFB737"/>
<path fill-rule="evenodd" clip-rule="evenodd" d="M74.6046 264.316C75.6908 264.693 78.7362 263.49 84.4946 261.129C84.595 261.088 84.703 261.173 84.6831 261.28L82.4034 273.449C85.1911 273.191 90.4396 272.674 94.17 272.115C98.0071 271.541 103.596 270.383 105.937 269.887C103.108 266.002 99.9946 262.493 94.1975 256.509C91.65 253.879 87.5763 253.446 84.5553 255.514C77.287 260.491 73.6875 263.504 74.6046 264.316Z" fill="#1F65B9"/>
<path d="M82.5402 264.727L81.172 273.56C81.4898 273.532 81.9077 273.494 82.4034 273.449L84.6831 261.28C84.703 261.173 84.595 261.088 84.4946 261.129C78.7362 263.49 75.6908 264.693 74.6046 264.316C75.7206 265.305 81.98 264.607 82.5402 264.727Z" fill="#184C95"/>
<defs>
<filter id="filter0_n_386_11992" x="84.4766" y="262.383" width="91.4941" height="28.1533" filterUnits="userSpaceOnUse" color-interpolation-filters="sRGB">
<feFlood flood-opacity="0" result="BackgroundImageFix"/>
<feBlend mode="normal" in="SourceGraphic" in2="BackgroundImageFix" result="shape"/>
<feTurbulence type="fractalNoise" baseFrequency="0.085470087826251984 0.085470087826251984" stitchTiles="stitch" numOctaves="3" result="noise" seed="6678" />
<feColorMatrix in="noise" type="luminanceToAlpha" result="alphaNoise" />
<feComponentTransfer in="alphaNoise" result="coloredNoise1">
<feFuncA type="discrete" tableValues="0 0 0 0 0 0 0 0 0 1 1 1 1 1 1 1 1 1 1 1 1 1 1 1 1 1 1 1 1 1 1 1 1 1 1 1 1 1 1 1 0 0 0 0 0 0 0 0 0 0 0 0 0 0 0 0 0 0 0 0 0 0 0 0 0 0 0 0 0 0 0 0 0 0 0 0 0 0 0 0 0 0 0 0 0 0 0 0 0 0 0 0 0 0 0 0 0 0 0 0 "/>
</feComponentTransfer>
<feComposite operator="in" in2="shape" in="coloredNoise1" result="noise1Clipped" />
<feFlood flood-color="rgba(7, 69, 2, 0.6)" result="color1Flood" />
<feComposite operator="in" in2="noise1Clipped" in="color1Flood" result="color1" />
<feMerge result="effect1_noise_386_11992">
<feMergeNode in="shape" />
<feMergeNode in="color1" />
</feMerge>
</filter>
<filter id="filter1_d_386_11992" x="80.4766" y="262.383" width="99.4941" height="36.1531" filterUnits="userSpaceOnUse" color-interpolation-filters="sRGB">
<feFlood flood-opacity="0" result="BackgroundImageFix"/>
<feColorMatrix in="SourceAlpha" type="matrix" values="0 0 0 0 0 0 0 0 0 0 0 0 0 0 0 0 0 0 127 0" result="hardAlpha"/>
<feOffset dy="4"/>
<feGaussianBlur stdDeviation="2"/>
<feComposite in2="hardAlpha" operator="out"/>
<feColorMatrix type="matrix" values="0 0 0 0 0 0 0 0 0 0 0 0 0 0 0 0 0 0 0.25 0"/>
<feBlend mode="normal" in2="BackgroundImageFix" result="effect1_dropShadow_386_11992"/>
<feBlend mode="normal" in="SourceGraphic" in2="effect1_dropShadow_386_11992" result="shape"/>
</filter>
<filter id="filter2_f_386_11992" x="145.572" y="261.421" width="221.91" height="96.6486" filterUnits="userSpaceOnUse" color-interpolation-filters="sRGB">
<feFlood flood-opacity="0" result="BackgroundImageFix"/>
<feBlend mode="normal" in="SourceGraphic" in2="BackgroundImageFix" result="shape"/>
<feGaussianBlur stdDeviation="12.7" result="effect1_foregroundBlur_386_11992"/>
</filter>
<filter id="filter3_f_386_11992" x="69.4354" y="247.697" width="113.808" height="67.6831" filterUnits="userSpaceOnUse" color-interpolation-filters="sRGB">
<feFlood flood-opacity="0" result="BackgroundImageFix"/>
<feBlend mode="normal" in="SourceGraphic" in2="BackgroundImageFix" result="shape"/>
<feGaussianBlur stdDeviation="12.7" result="effect1_foregroundBlur_386_11992"/>
</filter>
<filter id="filter4_f_386_11992" x="44.9491" y="287.116" width="105.62" height="65.489" filterUnits="userSpaceOnUse" color-interpolation-filters="sRGB">
<feFlood flood-opacity="0" result="BackgroundImageFix"/>
<feBlend mode="normal" in="SourceGraphic" in2="BackgroundImageFix" result="shape"/>
<feGaussianBlur stdDeviation="12.7" result="effect1_foregroundBlur_386_11992"/>
</filter>
<filter id="filter5_n_386_11992" x="299.347" y="267.271" width="44.5918" height="64.4392" filterUnits="userSpaceOnUse" color-interpolation-filters="sRGB">
<feFlood flood-opacity="0" result="BackgroundImageFix"/>
<feBlend mode="normal" in="SourceGraphic" in2="BackgroundImageFix" result="shape"/>
<feTurbulence type="fractalNoise" baseFrequency="0.067114092409610748 0.067114092409610748" stitchTiles="stitch" numOctaves="3" result="noise" seed="2919" />
<feColorMatrix in="noise" type="luminanceToAlpha" result="alphaNoise" />
<feComponentTransfer in="alphaNoise" result="coloredNoise1">
<feFuncA type="discrete" tableValues="0 0 0 1 1 1 1 1 1 1 1 1 1 1 1 1 1 1 1 1 1 1 1 1 1 1 1 1 1 1 1 1 1 1 1 1 1 1 1 1 1 1 1 1 1 1 1 1 0 0 0 0 0 0 0 0 0 0 0 0 0 0 0 0 0 0 0 0 0 0 0 0 0 0 0 0 0 0 0 0 0 0 0 0 0 0 0 0 0 0 0 0 0 0 0 0 0 0 0 0 "/>
</feComponentTransfer>
<feComposite operator="in" in2="shape" in="coloredNoise1" result="noise1Clipped" />
<feFlood flood-color="rgba(0, 42, 13, 0.6)" result="color1Flood" />
<feComposite operator="in" in2="noise1Clipped" in="color1Flood" result="color1" />
<feMerge result="effect1_noise_386_11992">
<feMergeNode in="shape" />
<feMergeNode in="color1" />
</feMerge>
</filter>
<linearGradient id="paint0_linear_386_11992" x1="254.265" y1="141.584" x2="257.434" y2="181.892" gradientUnits="userSpaceOnUse">
<stop stop-color="#BF382F"/>
<stop offset="1" stop-color="#AB2F29"/>
</linearGradient>
<linearGradient id="paint1_linear_386_11992" x1="284.809" y1="282.356" x2="305.218" y2="317.262" gradientUnits="userSpaceOnUse">
<stop stop-color="#89221D"/>
<stop offset="1" stop-color="#661D1B"/>
</linearGradient>
<linearGradient id="paint2_linear_386_11992" x1="298.627" y1="224.268" x2="284.445" y2="248.114" gradientUnits="userSpaceOnUse">
<stop stop-color="#8B221E"/>
<stop offset="1" stop-color="#751D1B"/>
</linearGradient>
<linearGradient id="paint3_linear_386_11992" x1="298.627" y1="224.268" x2="284.445" y2="248.114" gradientUnits="userSpaceOnUse">
<stop stop-color="#8B221E"/>
<stop offset="1" stop-color="#751D1B"/>
</linearGradient>
</defs>
</svg>
