<svg width="44" height="44" viewBox="0 0 44 44" fill="none" xmlns="http://www.w3.org/2000/svg">
<path d="M11.8852 18.6251C11.8919 18.6251 11.8986 18.6252 11.9054 18.625H11.8751C11.3306 18.625 10.8764 18.2381 10.7725 17.7242C10.8147 17.9337 10.9168 18.1335 11.0792 18.2959C11.2989 18.5156 11.587 18.625 11.8751 18.625C11.8785 18.625 11.8818 18.625 11.8852 18.6251ZM10.7501 17.5V17.4698C10.7499 17.4765 10.75 17.4832 10.7501 17.4899C10.7501 17.4933 10.7501 17.4966 10.7501 17.5Z" fill="#CCE7FF"/>
<path d="M20.8751 16.375C20.8751 15.7537 21.3788 15.25 22.0001 15.25C22.6214 15.25 23.1251 15.7537 23.1251 16.375V21.3047L27.003 23.2441L27.1036 23.3008C27.5851 23.6061 27.7664 24.232 27.506 24.7529C27.2455 25.2738 26.6358 25.5047 26.1027 25.3027L25.9972 25.2559L21.4972 23.0059C21.1161 22.8153 20.8751 22.4261 20.8751 22V16.375Z" fill="#CCE7FF"/>
<path d="M22.4171 10.7578L22.0001 10.75C18.8793 10.7617 15.8797 11.9794 13.6359 14.1484L13.0001 14.7839V11.875C13.0001 11.2537 12.4964 10.75 11.8751 10.75C11.2538 10.75 10.7501 11.2537 10.7501 11.875V17.4698V17.5C10.7501 18.1213 11.2538 18.625 11.8751 18.625H11.9054H17.5001L17.6154 18.6191C18.1825 18.5614 18.6251 18.0824 18.6251 17.5C18.6251 16.9176 18.1825 16.4386 17.6154 16.3809L17.5001 16.375H14.5912L15.1993 15.7666C17.0252 14.0015 19.4627 13.0101 22.0021 13C23.7814 13.0004 25.5207 13.5281 27.0001 14.5166C28.4801 15.5055 29.6334 16.9113 30.3146 18.5557C30.9958 20.2002 31.1745 22.01 30.8273 23.7559C30.48 25.5017 29.623 27.1056 28.3644 28.3643C27.1057 29.6229 25.5018 30.4799 23.756 30.8271C22.0102 31.1744 20.2003 30.9956 18.5558 30.3145C16.9114 29.6332 15.5056 28.4799 14.5167 27C13.5279 25.52 13.0001 23.78 13.0001 22C13.0001 21.3787 12.4964 20.875 11.8751 20.875C11.2538 20.875 10.7501 21.3787 10.7501 22C10.7501 24.2249 11.4096 26.4 12.6456 28.25C13.8817 30.0999 15.639 31.542 17.6945 32.3936C19.75 33.245 22.0123 33.4681 24.1945 33.0342C26.3767 32.6001 28.3819 31.5284 29.9552 29.9551C31.5285 28.3817 32.6002 26.3766 33.0343 24.1943C33.4683 22.0122 33.2451 19.7499 32.3937 17.6943C31.5422 15.6389 30.1 13.8816 28.2501 12.6455C26.5159 11.4868 24.4959 10.8349 22.4171 10.7578Z" fill="#CCE7FF"/>
</svg>
