<svg width="44" height="44" viewBox="0 0 44 44" fill="none" xmlns="http://www.w3.org/2000/svg">
<path d="M28.75 14.125C28.75 13.8266 28.6319 13.5401 28.4209 13.3291C28.2099 13.1181 27.9234 13 27.625 13H16.375C16.0766 13 15.7901 13.1181 15.5791 13.3291C15.3681 13.5401 15.25 13.8266 15.25 14.125V30.1855L21.4414 26.6484L21.5752 26.583C21.8928 26.4535 22.2561 26.4756 22.5586 26.6484L28.75 30.1855V14.125ZM31 32.125C31 32.526 30.7863 32.8964 30.4395 33.0977C30.0926 33.2989 29.6646 33.3005 29.3164 33.1016L22 28.9199L14.6836 33.1016C14.3354 33.3005 13.9074 33.2989 13.5605 33.0977C13.2137 32.8964 13 32.526 13 32.125V14.125C13 13.2299 13.3553 12.3712 13.9883 11.7383C14.6212 11.1053 15.4799 10.75 16.375 10.75H27.625C28.5201 10.75 29.3788 11.1053 30.0117 11.7383C30.6447 12.3712 31 13.2299 31 14.125V32.125Z" fill="#CCE7FF"/>
</svg>
