<svg width="44" height="44" viewBox="0 0 44 44" fill="none" xmlns="http://www.w3.org/2000/svg">
<path d="M28.1747 14.1748C28.6303 13.7192 29.3695 13.7192 29.8251 14.1748C30.2807 14.6305 30.2807 15.3696 29.8251 15.8252L23.6503 22L29.8251 28.1748L29.9052 28.2637C30.2788 28.7219 30.2522 29.3981 29.8251 29.8252C29.398 30.2523 28.7218 30.2789 28.2636 29.9053L28.1747 29.8252L21.9999 23.6504L15.8251 29.8252C15.3695 30.2808 14.6303 30.2808 14.1747 29.8252C13.7191 29.3696 13.7191 28.6305 14.1747 28.1748L20.3495 22L14.1747 15.8252L14.0946 15.7364C13.721 15.2781 13.7476 14.6019 14.1747 14.1748C14.6018 13.7477 15.278 13.7211 15.7362 14.0948L15.8251 14.1748L21.9999 20.3496L28.1747 14.1748Z" fill="#CCE7FF"/>
</svg>
