<svg width="436" height="436" viewBox="0 0 436 436" fill="none" xmlns="http://www.w3.org/2000/svg">
<g filter="url(#filter0_f_386_12181)">
<path d="M314.99 358.383C326.517 359.349 330.46 367.36 313.895 368.185C266.169 370.562 191.293 368.97 147.12 365.866C134.937 362.348 129.449 357.447 148.215 356.064C190.196 352.97 264.83 354.183 314.99 358.383Z" fill="#181818"/>
</g>
<path d="M276.976 340.505C276.919 341.593 276.868 342.23 276.868 342.23C273.747 342.479 272.465 343.096 270.424 344.077C270.268 344.152 270.107 344.229 269.941 344.308C272.025 342.563 273.312 341.633 276.976 340.505Z" fill="#08498F"/>
<path fill-rule="evenodd" clip-rule="evenodd" d="M275.483 318.678C275.483 318.678 277.193 336.364 276.976 340.505C273.312 341.633 272.025 342.563 269.941 344.308C270.107 344.229 270.268 344.152 270.424 344.077C272.465 343.096 273.747 342.479 276.868 342.23C276.868 342.23 282.247 342.698 285.181 344.308C288.948 346.376 295.86 350.581 296.264 358.162C296.356 359.892 295.571 361.626 295.571 361.626C279.228 361.969 269.957 361.377 253.317 359.548C253.317 359.548 253.828 354.91 254.009 351.928C254.601 342.205 252.987 328.665 251.979 321.5C261.43 321.78 266.561 321.076 275.483 318.678Z" fill="#105DAB"/>
<path fill-rule="evenodd" clip-rule="evenodd" d="M274.098 296.5L275.483 314.5V318.678C266.561 321.076 261.43 321.78 251.979 321.5C251.555 318.486 251.239 316.6 251.239 316.6L250.5 296.5H274.098Z" fill="#1A579D"/>
<path d="M187.295 337.505C187.352 338.593 187.403 339.23 187.403 339.23C190.525 339.479 191.807 340.096 193.847 341.077C194.004 341.152 194.164 341.229 194.33 341.308C192.246 339.564 190.96 338.633 187.295 337.505Z" fill="#08498F"/>
<path fill-rule="evenodd" clip-rule="evenodd" d="M188 316C188 316 187.078 333.365 187.295 337.505C190.96 338.633 192.246 339.564 194.33 341.308C194.164 341.229 194.004 341.152 193.847 341.077C191.807 340.096 190.525 339.479 187.403 339.23C187.403 339.23 182.024 339.699 179.091 341.308C175.324 343.376 168.411 347.581 168.008 355.162C167.915 356.892 168.7 358.626 168.7 358.626C185.044 358.969 194.314 358.377 210.955 356.548C210.955 356.548 210.444 351.911 210.262 348.928C209.673 339.24 210.251 325.715 210.649 318.5C201.256 319.479 196.326 318.83 188 316Z" fill="#105DAB"/>
<path fill-rule="evenodd" clip-rule="evenodd" d="M188 295V311.5V316C196.326 318.83 201.256 319.479 210.649 318.5C210.818 315.428 210.955 313.5 210.955 313.5C211.687 309.892 211.654 306.938 211.625 304.281C211.588 300.958 211.556 298.098 213.033 295C215.691 289.425 188 295 188 295Z" fill="#1A579D"/>
<path d="M316.5 261.999C308.261 263.307 295.5 251.999 295.5 251.999L289.5 276.999C289.5 276.999 306.185 288.547 318 287.499C333.099 286.161 342.279 274.127 346.407 267.079C345.66 267.925 336.686 269.527 331.5 267C327.079 264.846 322.289 259.556 323.17 258C321.724 259.627 319.458 261.53 316.5 261.999Z" fill="#2067BB"/>
<path fill-rule="evenodd" clip-rule="evenodd" d="M323.17 258L323.229 257.933C323.745 257.432 325.781 257.053 328.259 256.955C330.649 257.98 333.914 259.292 336.5 260C338.129 260.446 340.103 260.82 341.997 261.12C344.797 263.537 346.718 266.348 346.484 266.948L346.454 267L346.407 267.079C345.66 267.925 336.686 269.527 331.5 267C327.079 264.846 322.289 259.556 323.17 258Z" fill="#194C95"/>
<path d="M348.476 263.764C349.976 263.265 352.756 257.082 352.976 252.264C353.346 244.134 350.506 235.581 342.476 234.264C332.75 232.669 330.291 238.664 328.741 242.442C328.139 243.908 328.075 244.57 326.976 245.264C326.146 245.788 324.528 245.837 324.528 245.837C324.528 245.837 322.982 246.086 321.976 247.764C319.494 251.899 322.271 255.6 324.476 257.265C324.476 257.265 330.111 262.09 334.5 263.5C339.697 265.17 346.976 264.263 348.476 263.764Z" fill="#9ECFEC"/>
<path d="M346.407 267.079L346.453 267C346.447 267.025 346.431 267.052 346.407 267.079Z" fill="#194C95"/>
<path d="M346.454 267L346.484 266.948C346.476 266.968 346.466 266.985 346.454 267Z" fill="#194C95"/>
<path d="M323.229 257.933L323.17 258C323.187 257.978 323.207 257.955 323.229 257.933Z" fill="#194C95"/>
<path d="M121.5 336.582C121.5 337.18 121.316 337.763 120.974 338.252V338.252C119.488 340.375 116.379 340.474 114.761 338.451L114.657 338.322C114.232 337.79 114 337.129 114 336.448V184H121.5V336.582Z" fill="#99592A"/>
<path d="M121.424 145.537C120.346 142.221 115.654 142.221 114.576 145.537L110.726 157.388C110.244 158.871 108.862 159.875 107.302 159.875H94.8416C91.3542 159.875 89.9042 164.338 92.7256 166.388L102.806 173.712C104.068 174.629 104.596 176.253 104.114 177.737L100.264 189.587C99.1859 192.904 102.982 195.662 105.803 193.612L115.884 186.288C117.146 185.371 118.854 185.371 120.116 186.288L130.197 193.612C133.018 195.662 136.814 192.904 135.736 189.587L131.886 177.737C131.404 176.253 131.932 174.629 133.194 173.712L143.274 166.388C146.096 164.338 144.646 159.875 141.158 159.875H128.698C127.138 159.875 125.756 158.871 125.274 157.388L121.424 145.537Z" fill="#FFB738"/>
<path fill-rule="evenodd" clip-rule="evenodd" d="M130.074 259L130.414 259.845C133.432 267.355 131.163 275.956 124.833 281V281L130.074 283.358C137.435 286.671 145.755 287.17 153.459 284.763L165.5 282L160 257.5L152.286 261.233C147.34 263.626 141.6 263.756 136.541 261.61C133.338 260.252 132.734 260.109 130.074 259Z" fill="#2067BB"/>
<path d="M130.074 259L130.414 259.845C133.432 267.355 131.163 275.956 124.833 281V281L123.356 280.335C122.152 279.794 121.161 278.87 120.535 277.708L118.846 274.572C116.097 269.465 115.795 263.391 118.026 258.037C118.841 256.081 121.084 255.15 123.044 255.959C124.729 256.655 128.446 258.321 130.074 259Z" fill="#194C95"/>
<ellipse cx="11" cy="12.5" rx="11" ry="12.5" transform="matrix(-1 0 0 1 126 254)" fill="#9ECFEC"/>
<rect x="160" y="194" width="141" height="116" rx="2" fill="#A5D2EF"/>
<path d="M188.179 227.021C186.954 226.814 192.218 216.166 197.974 216.002C203.553 215.843 210.043 225.797 208.381 225.797C207.157 225.797 202.458 221.861 197.974 222.122C193.471 222.384 189.403 227.229 188.179 227.021Z" fill="#181818"/>
<path d="M250.182 227.211C248.936 226.999 254.291 216.169 260.145 216.002C265.82 215.84 272.421 225.965 270.731 225.965C269.485 225.965 264.706 221.961 260.145 222.227C255.565 222.494 251.427 227.422 250.182 227.211Z" fill="#181818"/>
<path d="M219.199 254.51C217.835 254.66 223.7 262.384 230.111 262.504C236.326 262.619 243.556 255.398 241.705 255.398C240.341 255.398 236.996 249.195 232 249.005C226.983 248.814 220.563 254.359 219.199 254.51Z" fill="#181818"/>
<path fill-rule="evenodd" clip-rule="evenodd" d="M302.484 116.683C298.425 118.915 285.515 116.193 261.047 110.709C260.621 110.614 260.25 111.026 260.401 111.436L277.682 158.228C277.299 158.257 276.905 158.287 276.5 158.318C265 159.189 244.722 160.593 230.045 160.886C214.417 161.198 191.434 160.378 181.803 159.99C190.412 142.649 200.406 126.606 219.386 98.9185C227.726 86.7515 243.614 82.2756 257.011 88.4493C289.244 103.303 305.577 112.837 302.484 116.683Z" fill="#1F65B9"/>
<path d="M271.242 123.678L282.648 157.839C281.367 157.942 279.682 158.075 277.682 158.228L260.401 111.436C260.25 111.026 260.621 110.614 261.047 110.709C285.515 116.193 298.425 118.915 302.484 116.683C298.72 121.364 273.387 122.824 271.242 123.678Z" fill="#184C95"/>
<path fill-rule="evenodd" clip-rule="evenodd" d="M282.648 175.795C283.115 175.73 283.566 175.666 284 175.604L320 201.111C303.531 202.12 263.45 204.395 235.5 204.5C203.84 204.618 157.991 202.062 141.073 201.045C138.956 200.918 138.264 198.176 140.042 197.019L171.736 176.402C171.736 176.402 172.291 179.663 232.196 180.091C248.601 180.208 270.734 177.468 282.648 175.795Z" fill="#1E65B9"/>
<path d="M291.083 174.542L322.498 197.053C324.18 198.259 323.426 200.9 321.36 201.028C320.927 201.054 320.473 201.082 320 201.111L284 175.604C288.392 174.977 291.083 174.542 291.083 174.542Z" fill="#184C95"/>
<path fill-rule="evenodd" clip-rule="evenodd" d="M171.736 176.402C171.736 176.402 172.291 179.663 232.196 180.091C248.601 180.208 270.734 177.468 282.648 175.795L276.5 158.318C265 159.189 244.722 160.593 230.045 160.886C214.417 161.198 191.434 160.378 181.803 159.99C180.654 159.943 179.694 159.903 178.961 159.872C177.976 159.829 177.082 160.443 176.769 161.377L171.736 176.402Z" fill="#FFB737"/>
<path d="M282.818 157.826C284.337 157.704 285.747 158.631 286.232 160.076L291.083 174.542C291.083 174.542 288.392 174.977 284 175.604C283.566 175.666 283.115 175.73 282.648 175.795L276.5 158.318C276.905 158.287 277.299 158.257 277.682 158.228C279.682 158.075 281.367 157.942 282.648 157.839C282.706 157.835 282.762 157.83 282.818 157.826Z" fill="#E39620"/>
<path fill-rule="evenodd" clip-rule="evenodd" d="M232.12 239.667C232.12 239.667 224.279 233.526 217.711 234.029C209.214 234.68 206.089 236.588 202.048 242.174C200.945 243.699 199.934 245.238 198.925 246.772C195.8 251.526 192.705 256.234 187.013 260.342C186.724 261.207 191.51 261.973 197.663 262.043C197.663 262.043 191.479 276.488 193 286.028C195.32 300.575 213.332 315.717 215.205 318.605C217.078 321.494 216.567 324.644 215.205 330.509C212.376 339.993 267.231 322.542 272.215 286.028C273.483 276.741 268.456 262.323 268.456 262.323C273.28 262.399 277.287 261.588 279.106 259.089C276.07 258.762 272.213 254.498 267.858 249.683C262.727 244.01 256.904 237.572 250.914 235.909C239.638 232.776 232.12 239.667 232.12 239.667ZM238.651 260.352C240.926 261.454 243.481 261.842 245.981 261.464L252.021 260.553C252.298 260.511 252.308 260.107 252.034 260.046C244.15 258.279 238.844 255.614 231.832 250.963C231.263 250.586 230.511 250.628 229.982 251.06C228.091 252.605 223.413 256.206 218.337 258.462C217.722 258.736 216.275 259.308 215.025 259.765C214.752 259.865 214.83 260.342 215.121 260.342H219.781C221.308 260.342 222.82 260.032 224.223 259.43L228.766 257.483C230.1 256.911 231.617 256.946 232.924 257.579L238.651 260.352Z" fill="#FFF5E3"/>
<defs>
<filter id="filter0_f_386_12181" x="100.004" y="318.33" width="261" height="87" filterUnits="userSpaceOnUse" color-interpolation-filters="sRGB">
<feFlood flood-opacity="0" result="BackgroundImageFix"/>
<feBlend mode="normal" in="SourceGraphic" in2="BackgroundImageFix" result="shape"/>
<feGaussianBlur stdDeviation="18" result="effect1_foregroundBlur_386_12181"/>
</filter>
</defs>
</svg>
