<svg width="36" height="36" viewBox="0 0 36 36" fill="none" xmlns="http://www.w3.org/2000/svg">
<path fill-rule="evenodd" clip-rule="evenodd" d="M16.8211 0.663178C17.5531 0.251435 18.4469 0.251434 19.1789 0.663177L32.7743 8.3106C33.5314 8.73649 34 9.53766 34 10.4064V25.5937C34 26.4625 33.5314 27.2636 32.7743 27.6895L19.1789 35.3369C18.4469 35.7487 17.5531 35.7487 16.8211 35.3369L3.22571 27.6895C2.46856 27.2636 2 26.4625 2 25.5937V10.4064C2 9.53766 2.46856 8.73649 3.22571 8.3106L16.8211 0.663178ZM18.1175 33.2955C18.0443 33.3367 17.9548 33.3367 17.8816 33.2955L17.7858 33.2416C17.7561 33.2249 17.7303 33.202 17.71 33.1745L7.51361 19.3064C7.39686 19.1476 7.51025 18.9235 7.70734 18.9235H28.2925C28.4896 18.9235 28.6029 19.1476 28.4862 19.3064L18.289 33.1745C18.2688 33.202 18.243 33.2249 18.2133 33.2416L18.1175 33.2955ZM31.9187 25.9317C31.9187 26.0172 31.8733 26.0963 31.7995 26.1394L22.2795 31.696C22.0517 31.8289 21.8069 31.5512 21.9675 31.3419L29.9805 20.8956C30.0975 20.7431 30.3373 20.7827 30.399 20.9647L31.906 25.4096C31.9144 25.4345 31.9187 25.4606 31.9187 25.4868V25.9317ZM4.14414 26.1396C4.07092 26.0963 4.02599 26.0176 4.02599 25.9326V25.4732C4.02599 25.4559 4.02786 25.4386 4.03156 25.4217L5.1365 20.3775C5.18052 20.1765 5.44019 20.12 5.56369 20.2845L13.8683 31.3473C14.0262 31.5577 13.7801 31.8325 13.5537 31.6987L4.14414 26.1396ZM4.04201 17.4712C4.12036 17.8191 4.12036 18.18 4.04201 18.5278L3.12937 22.5801C3.11677 22.6361 3.03437 22.6269 3.03437 22.5696V13.4295C3.03437 13.3721 3.11677 13.3629 3.12937 13.4189L4.04201 17.4712ZM32.9655 22.6447C32.9655 22.7008 32.8858 22.7115 32.871 22.6575L31.766 18.6367C31.6514 18.2196 31.6514 17.7794 31.766 17.3623L32.871 13.3415C32.8858 13.2875 32.9655 13.2982 32.9655 13.3543V22.6447ZM7.69737 17.077C7.50202 17.077 7.3882 16.8564 7.50141 16.6972L17.7088 2.3432C17.7293 2.31441 17.7559 2.29049 17.7867 2.27313L17.8817 2.21952C17.9549 2.17824 18.0443 2.17814 18.1175 2.21926L18.2136 2.27318C18.2436 2.29002 18.2696 2.31311 18.29 2.34088L28.7917 16.6946C28.9079 16.8534 28.7945 17.077 28.5976 17.077H7.69737ZM3.34935 10.3467C3.34141 10.3225 3.33736 10.2972 3.33736 10.2717V9.82428C3.33736 9.73911 3.38241 9.6603 3.4558 9.61708L14.5378 3.0907C14.7648 2.95705 15.0105 3.23296 14.8516 3.44299L5.5258 15.7679C5.40873 15.9226 5.16607 15.8821 5.10558 15.6978L3.34935 10.3467ZM32.4146 10.2687C32.4146 10.2961 32.4098 10.3234 32.4006 10.3493L30.4126 15.9324C30.3468 16.1174 30.0989 16.1497 29.9878 15.9877L21.3604 3.41146C21.2134 3.19716 21.4637 2.93436 21.6849 3.07076L32.3003 9.61638C32.3713 9.66017 32.4146 9.73763 32.4146 9.82106V10.2687Z" fill="#CCE7FF"/>
</svg>
