<svg width="247" height="120" viewBox="0 0 247 120" fill="none" xmlns="http://www.w3.org/2000/svg">
<path d="M194.32 63.7089V101.586C194.32 104.644 191.01 106.555 188.362 105.026L155.56 86.0884C154.331 85.3788 153.574 84.0675 153.574 82.6484V44.7709C153.574 41.7132 156.884 39.8021 159.532 41.331L192.334 60.269C193.563 60.9785 194.32 62.2898 194.32 63.7089Z" fill="#47445A"/>
<path d="M194.32 63.7089C194.32 62.2898 193.563 60.9785 192.334 60.269L159.532 41.331C156.884 39.8021 153.574 41.7132 153.574 44.7709V82.6484C153.574 84.0675 154.331 85.3788 155.56 86.0884L188.362 105.026C191.01 106.555 194.32 104.644 194.32 101.586V63.7089Z" fill="#282633"/>
<path fill-rule="evenodd" clip-rule="evenodd" d="M151.455 88.3048L194.453 113.13C195.016 113.456 195.655 113.627 196.306 113.627C196.956 113.627 197.595 113.456 198.159 113.13L241.157 88.3048C241.72 87.9795 242.188 87.5117 242.513 86.9483C242.839 86.3849 243.01 85.7459 243.01 85.0953V35.4442C243.01 34.7936 242.839 34.1545 242.513 33.5912C242.188 33.0278 241.72 32.56 241.157 32.2347L198.159 7.40912C197.595 7.08384 196.956 6.9126 196.306 6.9126C195.655 6.9126 195.016 7.08384 194.453 7.40912L151.455 32.2347C150.892 32.56 150.424 33.0278 150.099 33.5912C149.773 34.1545 149.602 34.7936 149.602 35.4442V85.0953C149.602 85.7459 149.773 86.3849 150.099 86.9483C150.424 87.5117 150.892 87.9795 151.455 88.3048ZM192.334 60.269C193.563 60.9785 194.32 62.2898 194.32 63.7089V101.586C194.32 104.644 191.01 106.555 188.362 105.026L155.56 86.0884C154.331 85.3788 153.574 84.0675 153.574 82.6484V44.7709C153.574 41.7132 156.884 39.8021 159.532 41.331L192.334 60.269ZM231.094 37.891L198.292 56.8291C197.063 57.5386 195.549 57.5386 194.32 56.8291L161.518 37.891C158.87 36.3622 158.87 32.5401 161.518 31.0112L194.32 12.0725C195.549 11.3629 197.063 11.3629 198.292 12.0725L231.094 31.0112C233.742 32.54 233.742 36.3622 231.094 37.891ZM204.25 105.026L237.052 86.0884C238.281 85.3788 239.038 84.0675 239.038 82.6484V44.7709C239.038 41.7132 235.728 39.8021 233.08 41.331L200.278 60.269C199.049 60.9785 198.292 62.2898 198.292 63.7089V101.586C198.292 104.644 201.602 106.555 204.25 105.026Z" fill="#47445A"/>
<path d="M231.094 37.891L198.292 56.8291C197.063 57.5386 195.549 57.5386 194.32 56.8291L161.518 37.891C158.87 36.3622 158.87 32.5401 161.518 31.0112L194.32 12.0725C195.549 11.3629 197.063 11.3629 198.292 12.0725L231.094 31.0112C233.742 32.54 233.742 36.3622 231.094 37.891Z" fill="#282633"/>
<path d="M237.052 86.0884L204.25 105.026C201.602 106.555 198.292 104.644 198.292 101.586V63.7089C198.292 62.2898 199.049 60.9785 200.278 60.269L233.08 41.331C235.728 39.8021 239.038 41.7132 239.038 44.7709V82.6484C239.038 84.0675 238.281 85.3788 237.052 86.0884Z" fill="#282633"/>
<path d="M196.306 4.97217C195.315 4.97221 194.341 5.23346 193.482 5.729L150.484 30.5542L150.17 30.7505C149.452 31.2306 148.852 31.8697 148.418 32.6206L148.243 32.9478C147.861 33.7227 147.662 34.5766 147.662 35.4438V85.0952C147.662 85.9624 147.861 86.8164 148.243 87.5913L148.418 87.9185C148.852 88.6695 149.452 89.3094 150.17 89.7896L150.484 89.9849L193.482 114.811C194.341 115.307 195.315 115.567 196.306 115.567C197.173 115.567 198.027 115.368 198.802 114.986L199.129 114.811L242.127 89.9849C242.878 89.5512 243.518 88.9513 243.998 88.2329L244.193 87.9185C244.689 87.0601 244.95 86.0864 244.95 85.0952V35.4438C244.95 34.4528 244.689 33.4789 244.193 32.6206L243.998 32.3062C243.518 31.5879 242.878 30.9879 242.127 30.5542L199.129 5.729L198.802 5.5542C198.027 5.17229 197.173 4.97217 196.306 4.97217Z" stroke="#282633" stroke-width="3.88052" stroke-miterlimit="1"/>
<path d="M97.6146 66.2717C97.065 65.5013 95.8733 65.6805 95.5747 66.5785L89.9584 83.4637C89.9184 83.584 89.8984 83.71 89.8992 83.8367L89.9119 85.7247C89.9147 86.1407 90.1405 86.5231 90.5034 86.7264L122.155 104.462C123.233 105.066 124.38 103.787 123.662 102.781L97.6146 66.2717Z" fill="#282633"/>
<path fill-rule="evenodd" clip-rule="evenodd" d="M86.1593 33.8904C86.1565 33.4773 86.3742 33.094 86.7304 32.8848L133.478 5.42914C133.832 5.2209 134.271 5.21646 134.63 5.41746L181.73 31.8109C182.093 32.0143 182.318 32.3967 182.321 32.8126L182.683 86.6492C182.686 87.0623 182.468 87.4455 182.112 87.6547L135.365 115.11C135.01 115.319 134.572 115.323 134.213 115.122L87.1126 88.7286C86.7498 88.5253 86.524 88.1429 86.5212 87.727L86.1593 33.8904ZM93.8104 60.3535C93.8945 60.5948 93.8964 60.8572 93.8157 61.0997L92.0351 66.4528C91.622 67.6945 89.7888 67.4039 89.78 66.0953L89.7083 55.4305C89.6995 54.1226 91.5273 53.8067 91.958 55.0417L93.8104 60.3535ZM133.504 9.34722C133.859 9.1388 134.297 9.13428 134.656 9.33536L134.976 9.51472C135.125 9.59809 135.253 9.7133 135.352 9.85213L168.539 56.369C169.082 57.1301 168.545 58.1876 167.61 58.1981L101.225 58.9458C100.287 58.9563 99.7268 57.9048 100.259 57.1322L132.815 9.87772C132.911 9.73864 133.036 9.62222 133.182 9.53663L133.504 9.34722ZM178.339 33.8139C178.702 34.0173 178.928 34.3997 178.93 34.8156L178.943 36.7037C178.944 36.8304 178.924 36.9564 178.884 37.0767L173.268 53.9611C172.969 54.859 171.777 55.0383 171.228 54.2679L145.18 17.7589C144.463 16.7529 145.61 15.4732 146.688 16.0773L178.339 33.8139ZM89.5765 35.8167C89.5737 35.4036 89.7914 35.0204 90.1476 34.8111L121.539 16.3745C122.607 15.7474 123.781 17.0091 123.078 18.0288L97.5373 55.1019C96.9998 55.8821 95.8037 55.721 95.4918 54.8264L89.6537 38.0827C89.6118 37.9626 89.59 37.8366 89.5892 37.7095L89.5765 35.8167ZM167.617 61.5938C168.555 61.5832 169.115 62.6348 168.583 63.4073L136.028 110.662C135.932 110.802 135.807 110.918 135.661 111.004L135.338 111.193C134.984 111.402 134.545 111.406 134.186 111.205L133.867 111.026C133.718 110.942 133.59 110.827 133.491 110.688L100.302 64.1706C99.7593 63.4095 100.296 62.352 101.231 62.3415L167.617 61.5938ZM89.8992 83.8367C89.8984 83.71 89.9184 83.584 89.9584 83.4637L95.5747 66.5785C95.8733 65.6805 97.065 65.5013 97.6146 66.2717L123.662 102.781C124.38 103.787 123.233 105.066 122.155 104.462L90.5034 86.7264C90.1405 86.5231 89.9147 86.1407 89.9119 85.7247L89.8992 83.8367ZM179.189 82.4577C179.231 82.5777 179.252 82.7038 179.253 82.8309L179.266 84.7237C179.269 85.1368 179.051 85.52 178.695 85.7292L147.304 104.166C146.236 104.793 145.062 103.531 145.765 102.512L171.305 65.4393C171.843 64.6591 173.039 64.8202 173.351 65.7148L179.189 82.4577ZM175.032 60.186C174.948 59.9447 174.946 59.6823 175.027 59.4398L176.807 54.0868C177.22 52.8451 179.054 53.1357 179.062 54.4443L179.134 65.1098C179.143 66.4178 177.315 66.7336 176.884 65.4985L175.032 60.186Z" fill="#47445A"/>
<path d="M89.78 66.0953C89.7888 67.4039 91.622 67.6945 92.0351 66.4528L93.8157 61.0997C93.8964 60.8572 93.8945 60.5948 93.8104 60.3535L91.958 55.0417C91.5273 53.8067 89.6995 54.1226 89.7083 55.4305L89.78 66.0953Z" fill="#282633"/>
<path d="M123.078 18.0288C123.781 17.0091 122.607 15.7474 121.539 16.3745L90.1476 34.8111C89.7914 35.0204 89.5737 35.4036 89.5765 35.8167L89.5892 37.7095C89.59 37.8366 89.6118 37.9626 89.6537 38.0827L95.4918 54.8264C95.8037 55.721 96.9998 55.8821 97.5373 55.1019L123.078 18.0288Z" fill="#282633"/>
<path d="M135.352 9.85213C135.253 9.7133 135.125 9.59809 134.976 9.51472L134.656 9.33536C134.297 9.13428 133.859 9.1388 133.504 9.34722L133.182 9.53663C133.036 9.62222 132.911 9.73864 132.815 9.87772L100.259 57.1322C99.7268 57.9048 100.287 58.9563 101.225 58.9458L167.61 58.1981C168.545 58.1876 169.082 57.1301 168.539 56.369L135.352 9.85213Z" fill="#282633"/>
<path d="M135.661 111.004C135.807 110.918 135.932 110.802 136.028 110.662L168.583 63.4073C169.115 62.6348 168.555 61.5832 167.617 61.5938L101.231 62.3415C100.296 62.352 99.7593 63.4095 100.302 64.1706L133.491 110.688C133.59 110.827 133.718 110.942 133.867 111.026L134.186 111.205C134.545 111.406 134.984 111.402 135.338 111.193L135.661 111.004Z" fill="#282633"/>
<path d="M178.695 85.7292C179.051 85.52 179.269 85.1368 179.266 84.7237L179.253 82.8309C179.252 82.7038 179.231 82.5777 179.189 82.4577L173.351 65.7148C173.039 64.8202 171.843 64.6591 171.305 65.4393L145.765 102.512C145.062 103.531 146.236 104.793 147.304 104.166L178.695 85.7292Z" fill="#282633"/>
<path d="M179.062 54.4443C179.054 53.1357 177.22 52.8451 176.807 54.0868L175.027 59.4398C174.946 59.6823 174.948 59.9447 175.032 60.186L176.884 65.4985C177.315 66.7336 179.143 66.4178 179.134 65.1098L179.062 54.4443Z" fill="#282633"/>
<path d="M178.884 37.0767C178.924 36.9564 178.944 36.8304 178.943 36.7037L178.93 34.8156C178.928 34.3997 178.702 34.0173 178.339 33.8139L146.688 16.0773C145.61 15.4732 144.463 16.7529 145.18 17.7589L171.228 54.2679C171.777 55.0383 172.969 54.859 173.268 53.9611L178.884 37.0767Z" fill="#282633"/>
<path d="M135.556 3.29224C134.59 2.83222 133.465 2.84393 132.508 3.32349L132.306 3.43384L85.5581 30.8889L85.3628 31.0129C84.474 31.6178 83.9152 32.6018 83.8511 33.675L83.8452 33.9055L84.2065 87.7424C84.2144 88.9121 84.8104 89.994 85.7817 90.6272L85.981 90.7473L133.082 117.141C134.09 117.706 135.31 117.73 136.334 117.216L136.537 117.106L183.284 89.6506C184.352 89.0231 185.006 87.8732 184.998 86.634L184.635 32.7971L184.626 32.5647C184.541 31.4081 183.881 30.3642 182.861 29.7922L135.761 3.39868L135.556 3.29224Z" stroke="#282633" stroke-width="4.62857"/>
<path d="M24.2156 24.6511C23.9511 24.8387 23.7329 25.0842 23.5775 25.3687L4.54765 60.2164C4.19963 60.8537 4.1995 61.6242 4.54729 62.2616L22.0184 94.2813C22.1765 94.571 22.3996 94.8201 22.6702 95.009L41.1431 107.907C41.5015 108.157 41.9279 108.291 42.365 108.291H80.2704C80.7143 108.291 81.1472 108.153 81.5087 107.895L99.62 94.9923C99.8703 94.814 100.079 94.5838 100.232 94.3174L118.654 62.2606C119.019 61.6247 119.032 60.8457 118.689 60.1977L100.253 25.4135C100.087 25.1003 99.8453 24.8333 99.5503 24.6368L81.4903 12.6063C81.1399 12.3729 80.7282 12.2483 80.3071 12.2483H42.3739C41.9314 12.2483 41.4997 12.3859 41.1388 12.642L24.2156 24.6511ZM87.8725 93.6414C89.6006 94.1242 89.998 96.3942 88.5367 97.4353L80.0958 103.449C79.7342 103.706 79.3013 103.845 78.8574 103.845H43.7554C43.3184 103.845 42.8919 103.711 42.5335 103.46L33.9363 97.4573C32.4533 96.4218 32.85 94.1266 34.5945 93.6489L60.9435 86.4338C61.3161 86.3317 61.7093 86.3328 62.0814 86.4367L87.8725 93.6414ZM57.7437 36.76C58.6649 37.0184 59.3017 37.8582 59.3017 38.815V80.645C59.3017 81.6067 58.6585 82.4496 57.731 82.7035L27.1893 91.0661C26.2349 91.3274 25.2261 90.8985 24.7521 90.0299L9.60082 62.2625C9.25301 61.6251 9.25314 60.8546 9.60117 60.2173L26.2896 29.6584C26.766 28.7859 27.7818 28.3579 28.739 28.6263L57.7437 36.76ZM113.622 60.11C113.966 60.758 113.953 61.537 113.587 62.1729L97.5608 90.0629C97.0745 90.9092 96.0761 91.3177 95.1361 91.0551L65.2945 82.7188C64.3722 82.4612 63.7344 81.6208 63.7344 80.6632V38.8326C63.7344 37.8716 64.3766 37.0292 65.3032 36.7746L95.034 28.6054C95.9981 28.3405 97.017 28.7805 97.4852 29.6639L113.622 60.11ZM87.983 22.2681C89.506 23.2825 89.1298 25.6176 87.3653 26.1024L62.0963 33.046C61.7225 33.1487 61.3277 33.1477 60.9545 33.043L35.9525 26.0318C34.224 25.5471 33.8297 23.275 35.2936 22.2362L42.5483 17.0884C42.9092 16.8323 43.3408 16.6947 43.7834 16.6947H78.9695C79.3906 16.6947 79.8022 16.8193 80.1527 17.0527L87.983 22.2681Z" fill="#47445A"/>
<path d="M87.8725 93.6414C89.6006 94.1242 89.998 96.3942 88.5367 97.4353L80.0958 103.449C79.7342 103.706 79.3013 103.845 78.8574 103.845H43.7554C43.3184 103.845 42.8919 103.711 42.5335 103.46L33.9363 97.4573C32.4533 96.4218 32.85 94.1266 34.5945 93.6489L60.9435 86.4338C61.3161 86.3317 61.7093 86.3328 62.0814 86.4367L87.8725 93.6414Z" fill="#282633"/>
<path d="M113.622 60.11C113.966 60.758 113.953 61.537 113.587 62.1729L97.5608 90.0629C97.0745 90.9092 96.0761 91.3177 95.1361 91.0551L65.2945 82.7188C64.3722 82.4612 63.7344 81.6208 63.7344 80.6632V38.8326C63.7344 37.8716 64.3766 37.0292 65.3032 36.7746L95.034 28.6054C95.9981 28.3405 97.017 28.7805 97.4852 29.6639L113.622 60.11Z" fill="#282633"/>
<path d="M57.7437 36.76C58.6649 37.0184 59.3017 37.8582 59.3017 38.815V80.645C59.3017 81.6067 58.6585 82.4496 57.731 82.7035L27.1893 91.0661C26.2349 91.3274 25.2261 90.8985 24.7521 90.0299L9.60082 62.2625C9.25301 61.6251 9.25314 60.8546 9.60117 60.2173L26.2896 29.6584C26.766 28.7859 27.7818 28.3579 28.739 28.6263L57.7437 36.76Z" fill="#282633"/>
<path d="M87.983 22.2681C89.506 23.2825 89.1298 25.6176 87.3653 26.1024L62.0963 33.046C61.7225 33.1487 61.3277 33.1477 60.9545 33.043L35.9525 26.0318C34.224 25.5471 33.8297 23.275 35.2936 22.2362L42.5483 17.0884C42.9092 16.8323 43.3408 16.6947 43.7834 16.6947H78.9695C79.3906 16.6947 79.8022 16.8193 80.1527 17.0527L87.983 22.2681Z" fill="#282633"/>
<path d="M42.3735 10.1135C41.4885 10.1136 40.6256 10.3895 39.9038 10.9016L22.98 22.9104L22.7866 23.0569C22.3446 23.41 21.9765 23.848 21.7046 24.3459L2.67432 59.1936L2.55225 59.4358C2.01938 60.5784 2.01868 61.8995 2.55127 63.0422L2.67334 63.2834L20.145 95.304C20.4215 95.8106 20.7975 96.2553 21.2495 96.6116L21.4487 96.759L39.9214 109.656C40.638 110.157 41.4908 110.425 42.3647 110.425H80.27C81.0468 110.425 81.807 110.214 82.4692 109.816L82.7476 109.633L100.859 96.7307C101.297 96.4188 101.671 96.0271 101.962 95.5774L102.083 95.3811L120.504 63.3245C121.235 62.0527 121.262 60.4945 120.575 59.1985L102.138 24.4143L102.007 24.1838C101.684 23.6565 101.25 23.2046 100.734 22.8606L82.6733 10.8303L82.4048 10.6653C81.7662 10.3049 81.0439 10.1135 80.3071 10.1135H42.3735Z" stroke="#282633" stroke-width="4.26857"/>
</svg>
